<svg width="18" height="18" viewBox="0 0 18 18" fill="none" xmlns="http://www.w3.org/2000/svg">
<path fill-rule="evenodd" clip-rule="evenodd" d="M9 17.125C13.4873 17.125 17.125 13.4873 17.125 9C17.125 4.51269 13.4873 0.875 9 0.875C4.51269 0.875 0.875 4.51269 0.875 9C0.875 13.4873 4.51269 17.125 9 17.125ZM11.9419 7.77527C12.186 7.5312 12.186 7.13547 11.9419 6.89139C11.6979 6.64731 11.3021 6.64731 11.0581 6.89139L8.16667 9.78278L6.94194 8.55806C6.69786 8.31398 6.30214 8.31398 6.05806 8.55806C5.81398 8.80214 5.81398 9.19786 6.05806 9.44194L7.72472 11.1086C7.9688 11.3527 8.36453 11.3527 8.60861 11.1086L11.9419 7.77527Z" fill="#2C1810"/>
</svg>
