<svg width="258" height="39" viewBox="0 0 258 39" fill="none" xmlns="http://www.w3.org/2000/svg">
<path d="M26.247 38.6608C25.338 38.6152 24.439 38.458 23.571 38.1928C22.712 37.9312 21.821 37.7751 20.921 37.7283C20.021 37.7751 19.13 37.9312 18.27 38.1928C17.403 38.458 16.504 38.6152 15.595 38.6608C15.209 38.6659 14.824 38.6113 14.456 38.4991C13.202 38.1068 12.312 37.047 11.469 36.0251C10.958 35.3498 10.358 34.7414 9.68401 34.2153C8.94701 33.7564 8.152 33.391 7.319 33.128C6.054 32.6635 4.747 32.1852 3.983 31.1737C3.218 30.1621 3.158 28.8339 3.09 27.5402C3.08 26.6873 2.96 25.8389 2.733 25.0147C2.423 24.2521 2.01401 23.5306 1.51401 22.8677C0.779008 21.7632 0 20.6174 0 19.3271C0 18.0368 0.778998 16.891 1.532 15.8003C2.033 15.1383 2.442 14.4166 2.75 13.6533C2.978 12.8302 3.098 11.983 3.108 11.1312C3.175 9.83403 3.24701 8.49214 4.00101 7.49431C4.75401 6.49649 6.07201 6.00446 7.33701 5.53996C8.16801 5.27428 8.96 4.90653 9.694 4.4458C10.369 3.9197 10.969 3.31131 11.48 2.63595C12.33 1.60372 13.213 0.55429 14.466 0.162043C14.835 0.0498233 15.219 -0.00477501 15.606 0.000327202C16.515 0.0458695 17.414 0.203125 18.281 0.468271C19.14 0.731662 20.031 0.887771 20.932 0.932775C21.832 0.887771 22.723 0.731662 23.582 0.468271C24.449 0.203125 25.348 0.0458695 26.257 0.000327202C26.644 -0.00477501 27.028 0.0498233 27.397 0.162043C28.65 0.55429 29.54 1.61405 30.383 2.63595C30.894 3.31131 31.495 3.9197 32.169 4.4458C32.905 4.90466 33.7 5.27011 34.533 5.53308C35.798 5.99758 37.105 6.47585 37.87 7.48743C38.634 8.49902 38.695 9.82715 38.763 11.1243C38.772 11.9761 38.892 12.8233 39.12 13.6464C39.415 14.4096 39.81 15.1335 40.295 15.8003C41.049 16.9048 41.827 18.0437 41.827 19.3409C41.827 20.638 41.049 21.7769 40.295 22.8814C39.796 23.5443 39.387 24.2658 39.077 25.0285C38.849 25.8527 38.729 26.7011 38.72 27.554C38.652 28.8477 38.58 30.1896 37.827 31.1874C37.073 32.1852 35.755 32.6773 34.491 33.1418C33.657 33.4048 32.862 33.7702 32.126 34.2291C31.452 34.7552 30.851 35.3635 30.34 36.0389C29.49 37.0711 28.608 38.1034 27.354 38.5128C26.995 38.6171 26.621 38.6671 26.247 38.6608Z" fill="url(#paint0_linear_553_290)"/>
<path d="M41.5992 19.3273C41.5992 21.3917 39.4882 23.088 38.8632 24.9426C38.2162 26.866 38.8632 29.4362 37.6522 31.0362C36.4412 32.6362 33.6842 32.8529 32.0082 34.0262C30.3332 35.1995 29.3082 37.6528 27.3112 38.2756C25.3902 38.8777 23.0542 37.4945 20.9212 37.4945C18.7892 37.4945 16.4532 38.8708 14.5312 38.2756C12.5342 37.6528 11.4952 35.1789 9.83717 34.0262C8.18017 32.8736 5.41217 32.6499 4.19017 31.0362C2.96917 29.4225 3.62617 26.866 2.97917 24.9426C2.35417 23.088 0.243164 21.3814 0.243164 19.3273C0.243164 17.2731 2.35417 15.5665 2.97917 13.712C3.62617 11.792 2.97917 9.2183 4.19017 7.61835C5.40117 6.01839 8.14817 5.82227 9.83717 4.62832C11.5272 3.43438 12.5342 1.0052 14.5312 0.378973C16.4532 -0.223161 18.7892 1.16003 20.9212 1.16003C23.0542 1.16003 25.3902 -0.216279 27.3112 0.378973C29.3082 1.00176 30.3472 3.47567 32.0082 4.62832C33.6692 5.78098 36.4302 6.00463 37.6522 7.61835C38.8742 9.23207 38.2162 11.792 38.8632 13.712C39.4882 15.5665 41.5992 17.2731 41.5992 19.3273Z" fill="url(#paint1_linear_553_290)"/>
<path d="M26.2469 37.4978C25.4439 37.449 24.6509 37.3045 23.8859 37.0677C22.9239 36.7755 21.9279 36.6055 20.9209 36.5619C19.9139 36.6055 18.9169 36.7755 17.9559 37.0677C17.1909 37.3045 16.3979 37.449 15.5949 37.4978C15.3349 37.5021 15.0759 37.4661 14.8269 37.3911C13.9199 37.1055 13.1879 36.2281 12.4129 35.2957C11.8389 34.5393 11.1639 33.859 10.4049 33.2725C9.58394 32.7518 8.69493 32.3365 7.76193 32.0373C6.61193 31.6175 5.52594 31.2184 4.97194 30.4889C4.41894 29.7595 4.37194 28.6584 4.30794 27.4783C4.29994 26.5247 4.16294 25.5763 3.90094 24.6568C3.55994 23.7934 3.10394 22.9767 2.54294 22.2276C1.85694 21.2229 1.21094 20.2733 1.21094 19.3271C1.21094 18.3809 1.85694 17.4312 2.54294 16.4265C3.10294 15.684 3.55894 14.8743 3.90094 14.018C4.16294 13.0973 4.29894 12.1477 4.30794 11.1931C4.37194 10.0164 4.42894 8.90157 4.97194 8.18245C5.51494 7.46333 6.61193 7.05388 7.76193 6.6341C8.69593 6.33626 9.58394 5.92092 10.4049 5.39887C11.1639 4.81233 11.8389 4.13209 12.4129 3.3757C13.1879 2.44669 13.9199 1.56586 14.8269 1.28027C15.0759 1.2082 15.3349 1.17339 15.5949 1.17705C16.3969 1.22453 17.1909 1.36785 17.9559 1.6037C18.9169 1.89583 19.9139 2.06586 20.9209 2.1095C21.9279 2.06586 22.9239 1.89583 23.8859 1.6037C24.6509 1.36785 25.4439 1.22453 26.2469 1.17705C26.5069 1.17339 26.7659 1.2082 27.0149 1.28027C27.9219 1.56586 28.6539 2.44669 29.4289 3.3757C30.0029 4.13209 30.678 4.81233 31.437 5.39887C32.257 5.92092 33.1459 6.33626 34.0799 6.6341C35.2299 7.05388 36.3159 7.453 36.8699 8.18245C37.4229 8.91189 37.4729 10.0164 37.5339 11.1931C37.5419 12.1477 37.6789 13.0973 37.9409 14.018C38.2829 14.8743 38.7389 15.684 39.2979 16.4265C39.9839 17.4312 40.631 18.3809 40.631 19.3271C40.631 20.2733 39.9839 21.2229 39.2979 22.2276C38.7379 22.9767 38.2809 23.7934 37.9409 24.6568C37.6789 25.5763 37.5419 26.5247 37.5339 27.4783C37.4729 28.6584 37.4119 29.7698 36.8699 30.4889C36.3269 31.208 35.2299 31.6175 34.0799 32.0373C33.1469 32.3365 32.258 32.7518 31.437 33.2725C30.678 33.859 30.0029 34.5393 29.4289 35.2957C28.6539 36.2281 27.9219 37.1055 27.0149 37.3911C26.7659 37.4661 26.5069 37.5021 26.2469 37.4978Z" fill="url(#paint2_linear_553_290)"/>
<path d="M26.2469 37.4978C25.4439 37.449 24.6509 37.3045 23.8859 37.0677C22.9239 36.7755 21.9279 36.6055 20.9209 36.5619C19.9139 36.6055 18.9169 36.7755 17.9559 37.0677C17.1909 37.3045 16.3979 37.449 15.5949 37.4978C15.3349 37.5021 15.0759 37.4661 14.8269 37.3911C13.9199 37.1055 13.1879 36.2281 12.4129 35.2957C11.8389 34.5393 11.1639 33.859 10.4049 33.2725C9.58394 32.7518 8.69493 32.3365 7.76193 32.0373C6.61193 31.6175 5.52594 31.2184 4.97194 30.4889C4.41894 29.7595 4.37194 28.6584 4.30794 27.4783C4.29994 26.5247 4.16294 25.5763 3.90094 24.6568C3.55994 23.7934 3.10394 22.9767 2.54294 22.2276C1.85694 21.2229 1.21094 20.2733 1.21094 19.3271C1.21094 18.3809 1.85694 17.4312 2.54294 16.4265C3.10294 15.684 3.55894 14.8743 3.90094 14.018C4.16294 13.0973 4.29894 12.1477 4.30794 11.1931C4.37194 10.0164 4.42894 8.90157 4.97194 8.18245C5.51494 7.46333 6.61193 7.05388 7.76193 6.6341C8.69593 6.33626 9.58394 5.92092 10.4049 5.39887C11.1639 4.81233 11.8389 4.13209 12.4129 3.3757C13.1879 2.44669 13.9199 1.56586 14.8269 1.28027C15.0759 1.2082 15.3349 1.17339 15.5949 1.17705C16.3969 1.22453 17.1909 1.36785 17.9559 1.6037C18.9169 1.89583 19.9139 2.06586 20.9209 2.1095C21.9279 2.06586 22.9239 1.89583 23.8859 1.6037C24.6509 1.36785 25.4439 1.22453 26.2469 1.17705C26.5069 1.17339 26.7659 1.2082 27.0149 1.28027C27.9219 1.56586 28.6539 2.44669 29.4289 3.3757C30.0029 4.13209 30.678 4.81233 31.437 5.39887C32.257 5.92092 33.1459 6.33626 34.0799 6.6341C35.2299 7.05388 36.3159 7.453 36.8699 8.18245C37.4229 8.91189 37.4729 10.0164 37.5339 11.1931C37.5419 12.1477 37.6789 13.0973 37.9409 14.018C38.2829 14.8743 38.7389 15.684 39.2979 16.4265C39.9839 17.4312 40.631 18.3809 40.631 19.3271C40.631 20.2733 39.9839 21.2229 39.2979 22.2276C38.7379 22.9767 38.2809 23.7934 37.9409 24.6568C37.6789 25.5763 37.5419 26.5247 37.5339 27.4783C37.4729 28.6584 37.4119 29.7698 36.8699 30.4889C36.3269 31.208 35.2299 31.6175 34.0799 32.0373C33.1469 32.3365 32.258 32.7518 31.437 33.2725C30.678 33.859 30.0029 34.5393 29.4289 35.2957C28.6539 36.2281 27.9219 37.1055 27.0149 37.3911C26.7659 37.4661 26.5069 37.5021 26.2469 37.4978Z" fill="url(#paint3_linear_553_290)"/>
<path d="M26.2468 36.5653C25.5298 36.5135 24.8228 36.3807 24.1388 36.1696C23.0968 35.8525 22.0158 35.6708 20.9238 35.6294C19.8328 35.6702 18.7508 35.8519 17.7098 36.1696C17.0238 36.3804 16.3158 36.5132 15.5988 36.5653C15.4398 36.569 15.2818 36.548 15.1308 36.5034C14.4988 36.3073 13.8518 35.5331 13.1728 34.7142C12.5468 33.8909 11.8078 33.1525 10.9768 32.519C10.0908 31.9479 9.12977 31.4931 8.11877 31.1668C7.10777 30.7952 6.15077 30.4476 5.76877 29.9384C5.38677 29.4292 5.32876 28.4658 5.28976 27.4301C5.28176 26.3944 5.12877 25.3645 4.83577 24.3678C4.47477 23.4233 3.98077 22.5308 3.36777 21.715C2.76477 20.8307 2.19678 19.9946 2.19678 19.3271C2.19678 18.6596 2.76477 17.8235 3.36777 16.9392C3.98077 16.1234 4.47477 15.2309 4.83577 14.2864C5.12877 13.2898 5.28176 12.2598 5.28976 11.2241C5.34676 10.1919 5.40077 9.20778 5.77177 8.71575C6.14377 8.22372 7.11177 7.85901 8.12277 7.48741C9.13277 7.16106 10.0938 6.70631 10.9798 6.13519C11.8108 5.50374 12.5488 4.76639 13.1728 3.94341C13.8558 3.12451 14.5018 2.35034 15.1338 2.15077C15.2858 2.10611 15.4438 2.08521 15.6018 2.08885C16.3198 2.14061 17.0288 2.27459 17.7128 2.48797C18.7548 2.80427 19.8358 2.98479 20.9278 3.02473C22.0188 2.9834 23.0998 2.80291 24.1428 2.48797C24.8268 2.27459 25.5358 2.14061 26.2538 2.08885C26.4118 2.08521 26.5698 2.10611 26.7218 2.15077C27.3538 2.35034 27.9998 3.12451 28.6828 3.94341C29.3068 4.76639 30.0448 5.50374 30.8758 6.13519C31.7618 6.70631 32.7228 7.16106 33.7328 7.48741C34.7438 7.85901 35.7018 8.20996 36.0838 8.71575C36.4658 9.22155 36.5088 10.1884 36.5658 11.2241C36.5738 12.2598 36.7268 13.2897 37.0198 14.2864C37.3878 15.232 37.8888 16.1246 38.5088 16.9392C39.1128 17.8235 39.6838 18.6596 39.6838 19.3271C39.6838 19.9946 39.1128 20.8307 38.5088 21.715C37.8968 22.5308 37.4028 23.4233 37.0408 24.3678C36.7478 25.3645 36.5958 26.3944 36.5868 27.4301C36.5298 28.4623 36.4768 29.4464 36.1048 29.9384C35.7338 30.4304 34.7658 30.7952 33.7548 31.1668C32.7438 31.4931 31.7828 31.9479 30.8968 32.519C30.0558 33.1529 29.3078 33.895 28.6758 34.7245C27.9928 35.5434 27.3468 36.3176 26.7148 36.5137C26.5618 36.5549 26.4038 36.5723 26.2468 36.5653Z" fill="#2C1810"/>
<path d="M18.049 20.6988V19.5567L21.079 16.5866C21.369 16.294 21.61 16.034 21.803 15.8067C21.996 15.5795 22.1411 15.3593 22.2381 15.1462C22.3351 14.9332 22.383 14.7059 22.383 14.4644C22.383 14.1888 22.3201 13.9531 22.1951 13.757C22.0701 13.5582 21.898 13.4048 21.68 13.2968C21.461 13.1888 21.2121 13.1349 20.9341 13.1349C20.6471 13.1349 20.396 13.1945 20.18 13.3138C19.964 13.4303 19.796 13.5965 19.677 13.8124C19.56 14.0283 19.502 14.2854 19.502 14.5837H17.998C17.998 14.0298 18.124 13.5482 18.377 13.1391C18.63 12.73 18.9781 12.4133 19.4211 12.1888C19.8671 11.9644 20.379 11.8522 20.955 11.8522C21.54 11.8522 22.055 11.9616 22.498 12.1803C22.941 12.3991 23.2851 12.6988 23.5291 13.0795C23.7761 13.4602 23.9 13.8948 23.9 14.3835C23.9 14.7102 23.8371 15.0312 23.7121 15.3465C23.5871 15.6619 23.367 16.0113 23.052 16.3948C22.739 16.7783 22.3 17.2428 21.735 17.7883L20.231 19.3181V19.3778H24.032V20.6988H18.049Z" fill="#E9C91A"/>
<path d="M26.1928 28.8742L26.6588 30.0351L27.9438 30.1036L26.9469 30.8898L27.2748 32.0941L26.1928 31.4199L25.1108 32.0941L25.4418 30.8898L24.4438 30.1036L25.7278 30.0351L26.1928 28.8742Z" fill="url(#paint4_linear_553_290)"/>
<path d="M15.9009 28.8742L16.3669 30.0351L17.6529 30.1036L16.6529 30.8898L16.9839 32.0941L15.9009 31.4199L14.8189 32.0941L15.1499 30.8898L14.1499 30.1036L15.4359 30.0351L15.9009 28.8742Z" fill="url(#paint5_linear_553_290)"/>
<path d="M30.1801 27.2594L30.6451 28.4203L31.9312 28.4911L30.9341 29.2772L31.2621 30.4815L30.1801 29.8051L29.0981 30.4815L29.4282 29.2772L28.4312 28.4911L29.7141 28.4203L30.1801 27.2594Z" fill="url(#paint6_linear_553_290)"/>
<path d="M11.916 27.2594L12.381 28.4203L13.6671 28.4911L12.6671 29.2772L12.998 30.4815L11.916 29.8051L10.833 30.4815L11.164 29.2772L10.165 28.4911L11.45 28.4203L11.916 27.2594Z" fill="url(#paint7_linear_553_290)"/>
<path d="M21.0488 29.1323L21.6728 30.6923L23.3998 30.7837L22.0578 31.8389L22.5018 33.456L21.0488 32.5492L19.5958 33.456L20.0378 31.8389L18.6948 30.7837L20.4228 30.6923L21.0488 29.1323Z" fill="url(#paint8_linear_553_290)"/>
<path d="M13.395 24.8101C13.557 24.2857 13.57 23.7283 13.431 23.1975C13.292 22.6667 13.007 22.1823 12.605 21.7959C11.918 22.95 12.643 24.2685 13.395 24.8101Z" fill="url(#paint9_linear_553_290)"/>
<path d="M11.4492 20.0715C11.0902 20.4394 10.5562 21.9225 11.7472 23.1268C12.1182 22.2539 12.1992 20.9239 11.4492 20.0715Z" fill="url(#paint10_linear_553_290)"/>
<path d="M10.412 9.46207C8.92605 10.9559 8.73004 12.1321 9.15304 13.5939C9.80704 12.9727 10.36 11.2139 10.412 9.46207Z" fill="url(#paint11_linear_553_290)"/>
<path d="M10.6012 18.2785C9.80019 18.7356 9.8922 20.2209 10.3652 20.9888C10.8992 20.2735 11.2912 19.38 10.6012 18.2785Z" fill="url(#paint12_linear_553_290)"/>
<path d="M10.4548 16.4855C9.96777 16.6455 9.07877 17.557 9.48277 18.8707C10.0998 18.3886 10.8418 17.3697 10.4548 16.4855Z" fill="url(#paint13_linear_553_290)"/>
<path d="M10.4188 14.4687C10.0628 14.567 9.03882 15.3826 9.22382 16.8447C9.89482 16.4746 10.6978 15.7755 10.4188 14.4687Z" fill="url(#paint14_linear_553_290)"/>
<path d="M9.19319 14.9124C9.82619 14.6291 10.7762 13.4548 10.6112 12.4976C9.96319 12.6849 9.15519 13.825 9.19319 14.9124Z" fill="url(#paint15_linear_553_290)"/>
<path d="M13.5429 25.0514C12.5979 24.1783 11.0599 23.8538 10.3389 24.1372C11.3169 25.7462 12.8629 25.4513 13.5429 25.0514Z" fill="url(#paint16_linear_553_290)"/>
<path d="M15.3249 26.102C15.4119 25.2932 15.0889 23.9088 14.0909 23.6483C13.8529 24.0915 13.8079 25.3458 15.3249 26.102Z" fill="url(#paint17_linear_553_290)"/>
<path d="M15.6648 26.3645C14.9778 26.0262 13.3278 25.5621 12.2788 26.0742C13.7348 27.3635 15.3128 26.664 15.6648 26.3645Z" fill="url(#paint18_linear_553_290)"/>
<path d="M17.4431 27.0018C17.3671 26.1794 16.9211 25.1125 15.6891 24.8566C15.5551 25.3021 15.7271 26.5175 17.4431 27.0018Z" fill="url(#paint19_linear_553_290)"/>
<path d="M17.7881 27.2002C17.0251 26.9922 14.9522 26.743 14.0352 27.4562C14.5902 27.8526 15.2722 28.0445 15.9602 27.9976C16.6482 27.9506 17.2961 27.6679 17.7881 27.2002Z" fill="url(#paint20_linear_553_290)"/>
<path d="M20.0211 27.5405C19.8041 26.4875 18.6861 26.0169 17.8091 25.8204C17.7261 26.8667 18.8371 27.456 20.0211 27.5405Z" fill="url(#paint21_linear_553_290)"/>
<path d="M16.873 28.146C19.111 28.985 20.0111 28.1895 20.0181 27.6888C19.2271 27.6203 17.331 27.506 16.873 28.146Z" fill="url(#paint22_linear_553_290)"/>
<path d="M9.07475 21.7457C8.99375 23.5389 10.9177 23.4407 11.8227 23.4521C11.5387 23.0752 9.96275 21.7114 9.07475 21.7457Z" fill="url(#paint23_linear_553_290)"/>
<path d="M8.06619 19.2652C8.00419 20.7251 9.24719 21.4585 10.4672 21.4356C10.1032 20.7297 9.13119 19.3932 8.06619 19.2652Z" fill="url(#paint24_linear_553_290)"/>
<path d="M9.46885 19.2178C9.30085 18.5896 9.06485 17.4747 8.01285 16.9332C7.61385 18.2423 8.77885 19.1333 9.46885 19.2178Z" fill="url(#paint25_linear_553_290)"/>
<path d="M9.14607 17.1462C9.09107 16.4608 8.64508 15.106 7.96408 14.8913C7.42508 16.4951 8.68007 17.0183 9.14607 17.1462Z" fill="url(#paint26_linear_553_290)"/>
<path d="M9.0842 15.4021C9.1362 14.7782 9.20219 13.3203 8.34219 12.4656C7.73219 14.4309 8.7462 15.2421 9.0842 15.4021Z" fill="url(#paint27_linear_553_290)"/>
<path d="M28.7029 24.8101C28.5389 24.2859 28.5259 23.7285 28.6639 23.1975C28.8029 22.6666 29.0879 22.1821 29.4899 21.7959C30.1799 22.95 29.4519 24.2685 28.7029 24.8101Z" fill="url(#paint28_linear_553_290)"/>
<path d="M30.6481 20.0715C31.0051 20.4394 31.5411 21.9225 30.3481 23.1268C29.9791 22.2539 29.8961 20.9239 30.6481 20.0715Z" fill="url(#paint29_linear_553_290)"/>
<path d="M31.6831 9.46207C33.1711 10.9559 33.3681 12.1321 32.9451 13.5939C32.2881 12.9727 31.7351 11.2139 31.6831 9.46207Z" fill="url(#paint30_linear_553_290)"/>
<path d="M31.4941 18.2785C32.2951 18.7356 32.2031 20.2209 31.7301 20.9888C31.1961 20.2735 30.8061 19.38 31.4941 18.2785Z" fill="url(#paint31_linear_553_290)"/>
<path d="M31.6428 16.4855C32.1148 16.6455 33.0178 17.557 32.6118 18.8707C31.9968 18.3886 31.2528 17.3697 31.6428 16.4855Z" fill="url(#paint32_linear_553_290)"/>
<path d="M31.6691 14.4687C32.0281 14.567 33.0491 15.3826 32.8641 16.8447C32.2001 16.4746 31.3971 15.7755 31.6691 14.4687Z" fill="url(#paint33_linear_553_290)"/>
<path d="M32.902 14.9124C32.268 14.6291 31.318 13.4548 31.484 12.4976C32.141 12.6849 32.94 13.825 32.902 14.9124Z" fill="url(#paint34_linear_553_290)"/>
<path d="M28.5508 25.0514C29.4968 24.1783 31.0348 23.8538 31.7558 24.1372C30.7768 25.7461 29.2338 25.4513 28.5508 25.0514Z" fill="url(#paint35_linear_553_290)"/>
<path d="M26.7699 26.102C26.6829 25.2933 27.0059 23.9088 28.0039 23.6483C28.2419 24.0915 28.2869 25.3458 26.7699 26.102Z" fill="url(#paint36_linear_553_290)"/>
<path d="M26.4302 26.3645C27.1172 26.0262 28.7672 25.5621 29.8162 26.0742C28.3602 27.3635 26.7822 26.664 26.4302 26.3645Z" fill="url(#paint37_linear_553_290)"/>
<path d="M24.6528 27.0018C24.7278 26.1794 25.1768 25.1125 26.4058 24.8566C26.5408 25.3021 26.3678 26.5175 24.6528 27.0018Z" fill="url(#paint38_linear_553_290)"/>
<path d="M24.3071 27.2002C25.0701 26.9922 27.1551 26.743 28.0621 27.4562C27.5071 27.8527 26.8241 28.0448 26.1361 27.9978C25.4481 27.9509 24.7991 27.6681 24.3071 27.2002Z" fill="url(#paint39_linear_553_290)"/>
<path d="M22.0742 27.5406C22.2942 26.4875 23.4112 26.0169 24.2882 25.8205C24.3642 26.8667 23.2602 27.4561 22.0742 27.5406Z" fill="url(#paint40_linear_553_290)"/>
<path d="M25.2222 28.146C22.9862 28.985 22.0832 28.1895 22.0762 27.6888C22.8682 27.6203 24.7632 27.506 25.2222 28.146Z" fill="url(#paint41_linear_553_290)"/>
<path d="M33.0199 21.7457C33.1009 23.5389 31.1769 23.4407 30.2739 23.4521C30.5579 23.0752 32.1409 21.7114 33.0199 21.7457Z" fill="url(#paint42_linear_553_290)"/>
<path d="M34.0319 19.2652C34.0939 20.7251 32.8509 21.4585 31.6289 21.4356C31.9949 20.7297 32.9639 19.3932 34.0319 19.2652Z" fill="url(#paint43_linear_553_290)"/>
<path d="M32.625 19.2179C32.793 18.5896 33.03 17.4747 34.084 16.9332C34.481 18.2423 33.323 19.1333 32.625 19.2179Z" fill="url(#paint44_linear_553_290)"/>
<path d="M32.9521 17.1462C33.0061 16.4608 33.4531 15.106 34.1331 14.8913C34.6701 16.4951 33.4151 17.0183 32.9521 17.1462Z" fill="url(#paint45_linear_553_290)"/>
<path d="M33.0131 15.4021C32.9611 14.7782 32.8931 13.3203 33.7551 12.4656C34.3651 14.4309 33.3461 15.2421 33.0131 15.4021Z" fill="url(#paint46_linear_553_290)"/>
<path d="M57.9061 16.995L54.2881 16.977V14.601L64.1701 14.619V16.995H60.5701L60.5341 26.931H57.8701L57.9061 16.995ZM65.6831 14.619H68.3471V19.479H73.3331V14.619H75.9971V26.931H73.3331V21.747H68.3471V26.931H65.6831V14.619ZM78.4631 14.619H86.9951V17.013H81.1271V19.569H85.4111V21.837H81.1271V24.537H87.2111V26.931H78.4631V14.619ZM99.1071 27.435C97.9071 27.435 96.8271 27.159 95.8671 26.607C94.9071 26.043 94.1511 25.257 93.5991 24.249C93.0591 23.241 92.7891 22.089 92.7891 20.793C92.7891 19.509 93.0651 18.363 93.6171 17.355C94.1811 16.335 94.9551 15.543 95.9391 14.979C96.9231 14.403 98.0271 14.115 99.2511 14.115C100.487 14.115 101.579 14.409 102.527 14.997C103.487 15.573 104.117 16.377 104.417 17.409L102.113 18.093C101.993 17.673 101.675 17.307 101.159 16.995C100.643 16.671 100.031 16.509 99.3231 16.509C98.5551 16.509 97.8771 16.695 97.2891 17.067C96.7131 17.439 96.2631 17.955 95.9391 18.615C95.6151 19.275 95.4531 20.013 95.4531 20.829C95.4531 21.669 95.6091 22.413 95.9211 23.061C96.2451 23.697 96.6951 24.189 97.2711 24.537C97.8471 24.873 98.5071 25.041 99.2511 25.041C100.151 25.041 100.895 24.801 101.483 24.321C102.071 23.841 102.449 23.175 102.617 22.323H99.4491V20.217H105.119V20.883C105.119 22.191 104.867 23.343 104.363 24.339C103.859 25.323 103.151 26.085 102.239 26.625C101.339 27.165 100.295 27.435 99.1071 27.435ZM115.095 27.273C114.291 27.273 113.643 26.931 113.151 26.247C113.019 26.055 112.833 25.743 112.593 25.311L111.675 23.781C111.219 23.037 110.505 22.641 109.533 22.593V26.931H106.869V14.583H111.729C112.521 14.583 113.223 14.745 113.835 15.069C114.447 15.393 114.921 15.843 115.257 16.419C115.593 16.995 115.761 17.649 115.761 18.381C115.761 18.969 115.635 19.515 115.383 20.019C115.143 20.523 114.807 20.925 114.375 21.225C113.943 21.513 113.469 21.657 112.953 21.657H112.233C112.533 21.729 112.833 21.867 113.133 22.071C113.433 22.263 113.691 22.521 113.907 22.845L114.213 23.421C114.513 23.961 114.717 24.309 114.825 24.465C115.005 24.681 115.143 24.837 115.239 24.933C115.347 25.029 115.455 25.077 115.563 25.077C115.683 25.077 115.785 25.047 115.869 24.987L116.661 26.769C116.289 27.105 115.767 27.273 115.095 27.273ZM111.207 20.199C111.807 20.199 112.269 20.061 112.593 19.785C112.929 19.509 113.097 19.131 113.097 18.651C113.097 18.123 112.941 17.715 112.629 17.427C112.317 17.127 111.867 16.977 111.279 16.977H109.533V20.199H111.207ZM123.195 27.471C121.971 27.471 120.855 27.183 119.847 26.607C118.851 26.019 118.065 25.221 117.489 24.213C116.913 23.193 116.625 22.071 116.625 20.847C116.625 19.599 116.913 18.465 117.489 17.445C118.065 16.425 118.851 15.621 119.847 15.033C120.855 14.445 121.971 14.151 123.195 14.151C124.431 14.151 125.547 14.445 126.543 15.033C127.539 15.609 128.319 16.407 128.883 17.427C129.459 18.447 129.747 19.587 129.747 20.847C129.747 22.083 129.459 23.205 128.883 24.213C128.319 25.221 127.533 26.019 126.525 26.607C125.529 27.183 124.419 27.471 123.195 27.471ZM123.177 25.077C123.909 25.077 124.569 24.897 125.157 24.537C125.745 24.165 126.207 23.661 126.543 23.025C126.879 22.377 127.047 21.651 127.047 20.847C127.047 20.019 126.879 19.281 126.543 18.633C126.219 17.973 125.763 17.463 125.175 17.103C124.587 16.731 123.921 16.545 123.177 16.545C122.457 16.545 121.803 16.731 121.215 17.103C120.639 17.475 120.183 17.991 119.847 18.651C119.511 19.299 119.343 20.031 119.343 20.847C119.343 21.639 119.511 22.359 119.847 23.007C120.183 23.643 120.639 24.147 121.215 24.519C121.803 24.891 122.457 25.077 123.177 25.077ZM130.897 17.103L130.861 16.995C130.777 16.755 130.639 16.677 130.447 16.761L129.853 14.601C130.321 14.421 130.759 14.331 131.167 14.331C131.683 14.331 132.127 14.481 132.499 14.781C132.883 15.069 133.171 15.501 133.363 16.077L133.435 16.311L135.271 22.413L137.557 14.601H139.915L142.399 22.647L144.757 14.619H147.637L143.749 26.931H141.103L138.871 19.965L138.727 19.173L138.583 19.965L136.459 26.931H133.903L130.897 17.103ZM151.738 16.995L148.12 16.977V14.601L158.002 14.619V16.995H154.402L154.366 26.931H151.702L151.738 16.995ZM159.515 14.619H162.179V19.479H167.165V14.619H169.829V26.931H167.165V21.747H162.179V26.931H159.515V14.619ZM179.836 27.273C179.02 27.273 178.312 27.111 177.712 26.787C177.112 26.463 176.65 26.013 176.326 25.437C176.002 24.861 175.84 24.213 175.84 23.493C175.84 23.361 175.852 23.175 175.876 22.935H178.252C178.24 23.475 178.366 23.925 178.63 24.285C178.894 24.645 179.302 24.825 179.854 24.825C180.334 24.825 180.712 24.645 180.988 24.285C181.264 23.925 181.402 23.427 181.402 22.791V14.583H184.066V22.845C184.066 24.213 183.688 25.293 182.932 26.085C182.176 26.877 181.144 27.273 179.836 27.273ZM192.312 27.471C191.088 27.471 189.972 27.183 188.964 26.607C187.968 26.019 187.182 25.221 186.606 24.213C186.03 23.193 185.742 22.071 185.742 20.847C185.742 19.599 186.03 18.465 186.606 17.445C187.182 16.425 187.968 15.621 188.964 15.033C189.972 14.445 191.088 14.151 192.312 14.151C193.548 14.151 194.664 14.445 195.66 15.033C196.656 15.609 197.436 16.407 198 17.427C198.576 18.447 198.864 19.587 198.864 20.847C198.864 22.083 198.576 23.205 198 24.213C197.436 25.221 196.65 26.019 195.642 26.607C194.646 27.183 193.536 27.471 192.312 27.471ZM192.294 25.077C193.026 25.077 193.686 24.897 194.274 24.537C194.862 24.165 195.324 23.661 195.66 23.025C195.996 22.377 196.164 21.651 196.164 20.847C196.164 20.019 195.996 19.281 195.66 18.633C195.336 17.973 194.88 17.463 194.292 17.103C193.704 16.731 193.038 16.545 192.294 16.545C191.574 16.545 190.92 16.731 190.332 17.103C189.756 17.475 189.3 17.991 188.964 18.651C188.628 19.299 188.46 20.031 188.46 20.847C188.46 21.639 188.628 22.359 188.964 23.007C189.3 23.643 189.756 24.147 190.332 24.519C190.92 24.891 191.574 25.077 192.294 25.077ZM205.689 27.399C204.633 27.399 203.709 27.189 202.917 26.769C202.137 26.337 201.531 25.731 201.099 24.951C200.679 24.159 200.469 23.241 200.469 22.197V14.601H203.133V22.197C203.133 23.061 203.361 23.751 203.817 24.267C204.285 24.783 204.903 25.041 205.671 25.041C206.451 25.041 207.069 24.783 207.525 24.267C207.981 23.751 208.209 23.061 208.209 22.197V14.601H210.873V22.197C210.873 23.253 210.657 24.171 210.225 24.951C209.805 25.731 209.199 26.337 208.407 26.769C207.627 27.189 206.721 27.399 205.689 27.399ZM221.443 27.273C220.639 27.273 219.991 26.931 219.499 26.247C219.367 26.055 219.181 25.743 218.941 25.311L218.023 23.781C217.567 23.037 216.853 22.641 215.881 22.593V26.931H213.217V14.583H218.077C218.869 14.583 219.571 14.745 220.183 15.069C220.795 15.393 221.269 15.843 221.605 16.419C221.941 16.995 222.109 17.649 222.109 18.381C222.109 18.969 221.983 19.515 221.731 20.019C221.491 20.523 221.155 20.925 220.723 21.225C220.291 21.513 219.817 21.657 219.301 21.657H218.581C218.881 21.729 219.181 21.867 219.481 22.071C219.781 22.263 220.039 22.521 220.255 22.845L220.561 23.421C220.861 23.961 221.065 24.309 221.173 24.465C221.353 24.681 221.491 24.837 221.587 24.933C221.695 25.029 221.803 25.077 221.911 25.077C222.031 25.077 222.133 25.047 222.217 24.987L223.009 26.769C222.637 27.105 222.115 27.273 221.443 27.273ZM217.555 20.199C218.155 20.199 218.617 20.061 218.941 19.785C219.277 19.509 219.445 19.131 219.445 18.651C219.445 18.123 219.289 17.715 218.977 17.427C218.665 17.127 218.215 16.977 217.627 16.977H215.881V20.199H217.555ZM232.009 25.833L228.283 21.117L226.897 19.047L227.095 20.955V26.931H224.431V14.439H226.213L227.257 15.645L231.451 21.153L232.279 22.467L232.135 20.865V14.619H234.799V27.039H233.089L232.009 25.833ZM241.547 14.403H242.897L248.189 26.931H245.291L244.157 24.213H240.179L239.063 26.931H236.147L241.547 14.403ZM243.203 21.963L242.123 18.831L241.115 21.963H243.203ZM249.533 14.619H252.197V24.537H257.975V26.931H249.533V14.619Z" fill="black"/>
<defs>
<linearGradient id="paint0_linear_553_290" x1="26.847" y1="0.695362" x2="12.873" y2="48.0373" gradientUnits="userSpaceOnUse">
<stop stop-color="#FFF5A8"/>
<stop offset="0.31" stop-color="#BD8100"/>
<stop offset="0.76" stop-color="#E0BE58"/>
<stop offset="1" stop-color="#F1DC83"/>
</linearGradient>
<linearGradient id="paint1_linear_553_290" x1="4.67216" y1="2.66365" x2="35.8062" y2="37.0711" gradientUnits="userSpaceOnUse">
<stop stop-color="#FFF5A8"/>
<stop offset="0.31" stop-color="#BD8100"/>
<stop offset="0.76" stop-color="#E0BE58"/>
<stop offset="1" stop-color="#F1DC83"/>
</linearGradient>
<linearGradient id="paint2_linear_553_290" x1="5.44394" y1="3.45484" x2="35.0989" y2="36.2278" gradientUnits="userSpaceOnUse">
<stop stop-color="#05224C"/>
<stop offset="1" stop-color="#0B2D62"/>
</linearGradient>
<linearGradient id="paint3_linear_553_290" x1="28.6469" y1="-2.44608" x2="4.83596" y2="69.8737" gradientUnits="userSpaceOnUse">
<stop stop-color="#FFF5A8"/>
<stop offset="0.31" stop-color="#BD8100"/>
<stop offset="0.76" stop-color="#E0BE58"/>
<stop offset="1" stop-color="#F1DC83"/>
</linearGradient>
<linearGradient id="paint4_linear_553_290" x1="26.1928" y1="32.0941" x2="26.1928" y2="28.8742" gradientUnits="userSpaceOnUse">
<stop stop-color="#F8DA5B"/>
<stop offset="0.09" stop-color="#DCB749"/>
<stop offset="0.19" stop-color="#C39938"/>
<stop offset="0.27" stop-color="#B3872F"/>
<stop offset="0.33" stop-color="#AE802B"/>
<stop offset="0.34" stop-color="#B58930"/>
<stop offset="0.42" stop-color="#E5C34F"/>
<stop offset="0.46" stop-color="#F8DA5B"/>
<stop offset="0.51" stop-color="#FAE783"/>
<stop offset="0.58" stop-color="#FDF9BD"/>
<stop offset="0.61" stop-color="#F7F0AF"/>
<stop offset="0.74" stop-color="#E5D384"/>
<stop offset="0.8" stop-color="#DEC874"/>
<stop offset="0.93" stop-color="#F3EAA6"/>
<stop offset="1" stop-color="#FDF9BD"/>
</linearGradient>
<linearGradient id="paint5_linear_553_290" x1="15.9009" y1="32.0941" x2="15.9009" y2="28.8742" gradientUnits="userSpaceOnUse">
<stop stop-color="#F8DA5B"/>
<stop offset="0.09" stop-color="#DCB749"/>
<stop offset="0.19" stop-color="#C39938"/>
<stop offset="0.27" stop-color="#B3872F"/>
<stop offset="0.33" stop-color="#AE802B"/>
<stop offset="0.34" stop-color="#B58930"/>
<stop offset="0.42" stop-color="#E5C34F"/>
<stop offset="0.46" stop-color="#F8DA5B"/>
<stop offset="0.51" stop-color="#FAE783"/>
<stop offset="0.58" stop-color="#FDF9BD"/>
<stop offset="0.61" stop-color="#F7F0AF"/>
<stop offset="0.74" stop-color="#E5D384"/>
<stop offset="0.8" stop-color="#DEC874"/>
<stop offset="0.93" stop-color="#F3EAA6"/>
<stop offset="1" stop-color="#FDF9BD"/>
</linearGradient>
<linearGradient id="paint6_linear_553_290" x1="30.1802" y1="30.4792" x2="30.1802" y2="27.2594" gradientUnits="userSpaceOnUse">
<stop stop-color="#F8DA5B"/>
<stop offset="0.09" stop-color="#DCB749"/>
<stop offset="0.19" stop-color="#C39938"/>
<stop offset="0.27" stop-color="#B3872F"/>
<stop offset="0.33" stop-color="#AE802B"/>
<stop offset="0.34" stop-color="#B58930"/>
<stop offset="0.42" stop-color="#E5C34F"/>
<stop offset="0.46" stop-color="#F8DA5B"/>
<stop offset="0.51" stop-color="#FAE783"/>
<stop offset="0.58" stop-color="#FDF9BD"/>
<stop offset="0.61" stop-color="#F7F0AF"/>
<stop offset="0.74" stop-color="#E5D384"/>
<stop offset="0.8" stop-color="#DEC874"/>
<stop offset="0.93" stop-color="#F3EAA6"/>
<stop offset="1" stop-color="#FDF9BD"/>
</linearGradient>
<linearGradient id="paint7_linear_553_290" x1="11.916" y1="30.4792" x2="11.916" y2="27.2594" gradientUnits="userSpaceOnUse">
<stop stop-color="#F8DA5B"/>
<stop offset="0.09" stop-color="#DCB749"/>
<stop offset="0.19" stop-color="#C39938"/>
<stop offset="0.27" stop-color="#B3872F"/>
<stop offset="0.33" stop-color="#AE802B"/>
<stop offset="0.34" stop-color="#B58930"/>
<stop offset="0.42" stop-color="#E5C34F"/>
<stop offset="0.46" stop-color="#F8DA5B"/>
<stop offset="0.51" stop-color="#FAE783"/>
<stop offset="0.58" stop-color="#FDF9BD"/>
<stop offset="0.61" stop-color="#F7F0AF"/>
<stop offset="0.74" stop-color="#E5D384"/>
<stop offset="0.8" stop-color="#DEC874"/>
<stop offset="0.93" stop-color="#F3EAA6"/>
<stop offset="1" stop-color="#FDF9BD"/>
</linearGradient>
<linearGradient id="paint8_linear_553_290" x1="21.0488" y1="33.456" x2="21.0488" y2="29.1323" gradientUnits="userSpaceOnUse">
<stop stop-color="#F8DA5B"/>
<stop offset="0.09" stop-color="#DCB749"/>
<stop offset="0.19" stop-color="#C39938"/>
<stop offset="0.27" stop-color="#B3872F"/>
<stop offset="0.33" stop-color="#AE802B"/>
<stop offset="0.34" stop-color="#B58930"/>
<stop offset="0.42" stop-color="#E5C34F"/>
<stop offset="0.46" stop-color="#F8DA5B"/>
<stop offset="0.51" stop-color="#FAE783"/>
<stop offset="0.58" stop-color="#FDF9BD"/>
<stop offset="0.61" stop-color="#F7F0AF"/>
<stop offset="0.74" stop-color="#E5D384"/>
<stop offset="0.8" stop-color="#DEC874"/>
<stop offset="0.93" stop-color="#F3EAA6"/>
<stop offset="1" stop-color="#FDF9BD"/>
</linearGradient>
<linearGradient id="paint9_linear_553_290" x1="7.83697" y1="18.9806" x2="34.2611" y2="18.9806" gradientUnits="userSpaceOnUse">
<stop stop-color="#F8DA5B"/>
<stop offset="0.09" stop-color="#DCB749"/>
<stop offset="0.19" stop-color="#C39938"/>
<stop offset="0.27" stop-color="#B3872F"/>
<stop offset="0.33" stop-color="#AE802B"/>
<stop offset="0.34" stop-color="#B58930"/>
<stop offset="0.42" stop-color="#E5C34F"/>
<stop offset="0.46" stop-color="#F8DA5B"/>
<stop offset="0.51" stop-color="#FAE783"/>
<stop offset="0.58" stop-color="#FDF9BD"/>
<stop offset="0.61" stop-color="#F7F0AF"/>
<stop offset="0.74" stop-color="#E5D384"/>
<stop offset="0.8" stop-color="#DEC874"/>
<stop offset="0.93" stop-color="#F3EAA6"/>
<stop offset="1" stop-color="#FDF9BD"/>
</linearGradient>
<linearGradient id="paint10_linear_553_290" x1="7.83619" y1="18.9815" x2="34.2612" y2="18.9815" gradientUnits="userSpaceOnUse">
<stop stop-color="#F8DA5B"/>
<stop offset="0.09" stop-color="#DCB749"/>
<stop offset="0.19" stop-color="#C39938"/>
<stop offset="0.27" stop-color="#B3872F"/>
<stop offset="0.33" stop-color="#AE802B"/>
<stop offset="0.34" stop-color="#B58930"/>
<stop offset="0.42" stop-color="#E5C34F"/>
<stop offset="0.46" stop-color="#F8DA5B"/>
<stop offset="0.51" stop-color="#FAE783"/>
<stop offset="0.58" stop-color="#FDF9BD"/>
<stop offset="0.61" stop-color="#F7F0AF"/>
<stop offset="0.74" stop-color="#E5D384"/>
<stop offset="0.8" stop-color="#DEC874"/>
<stop offset="0.93" stop-color="#F3EAA6"/>
<stop offset="1" stop-color="#FDF9BD"/>
</linearGradient>
<linearGradient id="paint11_linear_553_290" x1="7.83604" y1="18.982" x2="34.2611" y2="18.982" gradientUnits="userSpaceOnUse">
<stop stop-color="#F8DA5B"/>
<stop offset="0.09" stop-color="#DCB749"/>
<stop offset="0.19" stop-color="#C39938"/>
<stop offset="0.27" stop-color="#B3872F"/>
<stop offset="0.33" stop-color="#AE802B"/>
<stop offset="0.34" stop-color="#B58930"/>
<stop offset="0.42" stop-color="#E5C34F"/>
<stop offset="0.46" stop-color="#F8DA5B"/>
<stop offset="0.51" stop-color="#FAE783"/>
<stop offset="0.58" stop-color="#FDF9BD"/>
<stop offset="0.61" stop-color="#F7F0AF"/>
<stop offset="0.74" stop-color="#E5D384"/>
<stop offset="0.8" stop-color="#DEC874"/>
<stop offset="0.93" stop-color="#F3EAA6"/>
<stop offset="1" stop-color="#FDF9BD"/>
</linearGradient>
<linearGradient id="paint12_linear_553_290" x1="7.8362" y1="18.9824" x2="34.2612" y2="18.9824" gradientUnits="userSpaceOnUse">
<stop stop-color="#F8DA5B"/>
<stop offset="0.09" stop-color="#DCB749"/>
<stop offset="0.19" stop-color="#C39938"/>
<stop offset="0.27" stop-color="#B3872F"/>
<stop offset="0.33" stop-color="#AE802B"/>
<stop offset="0.34" stop-color="#B58930"/>
<stop offset="0.42" stop-color="#E5C34F"/>
<stop offset="0.46" stop-color="#F8DA5B"/>
<stop offset="0.51" stop-color="#FAE783"/>
<stop offset="0.58" stop-color="#FDF9BD"/>
<stop offset="0.61" stop-color="#F7F0AF"/>
<stop offset="0.74" stop-color="#E5D384"/>
<stop offset="0.8" stop-color="#DEC874"/>
<stop offset="0.93" stop-color="#F3EAA6"/>
<stop offset="1" stop-color="#FDF9BD"/>
</linearGradient>
<linearGradient id="paint13_linear_553_290" x1="7.83577" y1="18.9826" x2="34.2608" y2="18.9826" gradientUnits="userSpaceOnUse">
<stop stop-color="#F8DA5B"/>
<stop offset="0.09" stop-color="#DCB749"/>
<stop offset="0.19" stop-color="#C39938"/>
<stop offset="0.27" stop-color="#B3872F"/>
<stop offset="0.33" stop-color="#AE802B"/>
<stop offset="0.34" stop-color="#B58930"/>
<stop offset="0.42" stop-color="#E5C34F"/>
<stop offset="0.46" stop-color="#F8DA5B"/>
<stop offset="0.51" stop-color="#FAE783"/>
<stop offset="0.58" stop-color="#FDF9BD"/>
<stop offset="0.61" stop-color="#F7F0AF"/>
<stop offset="0.74" stop-color="#E5D384"/>
<stop offset="0.8" stop-color="#DEC874"/>
<stop offset="0.93" stop-color="#F3EAA6"/>
<stop offset="1" stop-color="#FDF9BD"/>
</linearGradient>
<linearGradient id="paint14_linear_553_290" x1="7.83681" y1="18.9832" x2="34.261" y2="18.9832" gradientUnits="userSpaceOnUse">
<stop stop-color="#F8DA5B"/>
<stop offset="0.09" stop-color="#DCB749"/>
<stop offset="0.19" stop-color="#C39938"/>
<stop offset="0.27" stop-color="#B3872F"/>
<stop offset="0.33" stop-color="#AE802B"/>
<stop offset="0.34" stop-color="#B58930"/>
<stop offset="0.42" stop-color="#E5C34F"/>
<stop offset="0.46" stop-color="#F8DA5B"/>
<stop offset="0.51" stop-color="#FAE783"/>
<stop offset="0.58" stop-color="#FDF9BD"/>
<stop offset="0.61" stop-color="#F7F0AF"/>
<stop offset="0.74" stop-color="#E5D384"/>
<stop offset="0.8" stop-color="#DEC874"/>
<stop offset="0.93" stop-color="#F3EAA6"/>
<stop offset="1" stop-color="#FDF9BD"/>
</linearGradient>
<linearGradient id="paint15_linear_553_290" x1="7.83619" y1="18.9836" x2="34.2612" y2="18.9836" gradientUnits="userSpaceOnUse">
<stop stop-color="#F8DA5B"/>
<stop offset="0.09" stop-color="#DCB749"/>
<stop offset="0.19" stop-color="#C39938"/>
<stop offset="0.27" stop-color="#B3872F"/>
<stop offset="0.33" stop-color="#AE802B"/>
<stop offset="0.34" stop-color="#B58930"/>
<stop offset="0.42" stop-color="#E5C34F"/>
<stop offset="0.46" stop-color="#F8DA5B"/>
<stop offset="0.51" stop-color="#FAE783"/>
<stop offset="0.58" stop-color="#FDF9BD"/>
<stop offset="0.61" stop-color="#F7F0AF"/>
<stop offset="0.74" stop-color="#E5D384"/>
<stop offset="0.8" stop-color="#DEC874"/>
<stop offset="0.93" stop-color="#F3EAA6"/>
<stop offset="1" stop-color="#FDF9BD"/>
</linearGradient>
<linearGradient id="paint16_linear_553_290" x1="7.83587" y1="18.9788" x2="34.2608" y2="18.9788" gradientUnits="userSpaceOnUse">
<stop stop-color="#F8DA5B"/>
<stop offset="0.09" stop-color="#DCB749"/>
<stop offset="0.19" stop-color="#C39938"/>
<stop offset="0.27" stop-color="#B3872F"/>
<stop offset="0.33" stop-color="#AE802B"/>
<stop offset="0.34" stop-color="#B58930"/>
<stop offset="0.42" stop-color="#E5C34F"/>
<stop offset="0.46" stop-color="#F8DA5B"/>
<stop offset="0.51" stop-color="#FAE783"/>
<stop offset="0.58" stop-color="#FDF9BD"/>
<stop offset="0.61" stop-color="#F7F0AF"/>
<stop offset="0.74" stop-color="#E5D384"/>
<stop offset="0.8" stop-color="#DEC874"/>
<stop offset="0.93" stop-color="#F3EAA6"/>
<stop offset="1" stop-color="#FDF9BD"/>
</linearGradient>
<linearGradient id="paint17_linear_553_290" x1="7.83597" y1="18.9808" x2="34.2609" y2="18.9808" gradientUnits="userSpaceOnUse">
<stop stop-color="#F8DA5B"/>
<stop offset="0.09" stop-color="#DCB749"/>
<stop offset="0.19" stop-color="#C39938"/>
<stop offset="0.27" stop-color="#B3872F"/>
<stop offset="0.33" stop-color="#AE802B"/>
<stop offset="0.34" stop-color="#B58930"/>
<stop offset="0.42" stop-color="#E5C34F"/>
<stop offset="0.46" stop-color="#F8DA5B"/>
<stop offset="0.51" stop-color="#FAE783"/>
<stop offset="0.58" stop-color="#FDF9BD"/>
<stop offset="0.61" stop-color="#F7F0AF"/>
<stop offset="0.74" stop-color="#E5D384"/>
<stop offset="0.8" stop-color="#DEC874"/>
<stop offset="0.93" stop-color="#F3EAA6"/>
<stop offset="1" stop-color="#FDF9BD"/>
</linearGradient>
<linearGradient id="paint18_linear_553_290" x1="7.83583" y1="18.976" x2="34.2607" y2="18.976" gradientUnits="userSpaceOnUse">
<stop stop-color="#F8DA5B"/>
<stop offset="0.09" stop-color="#DCB749"/>
<stop offset="0.19" stop-color="#C39938"/>
<stop offset="0.27" stop-color="#B3872F"/>
<stop offset="0.33" stop-color="#AE802B"/>
<stop offset="0.34" stop-color="#B58930"/>
<stop offset="0.42" stop-color="#E5C34F"/>
<stop offset="0.46" stop-color="#F8DA5B"/>
<stop offset="0.51" stop-color="#FAE783"/>
<stop offset="0.58" stop-color="#FDF9BD"/>
<stop offset="0.61" stop-color="#F7F0AF"/>
<stop offset="0.74" stop-color="#E5D384"/>
<stop offset="0.8" stop-color="#DEC874"/>
<stop offset="0.93" stop-color="#F3EAA6"/>
<stop offset="1" stop-color="#FDF9BD"/>
</linearGradient>
<linearGradient id="paint19_linear_553_290" x1="7.83711" y1="18.9805" x2="34.2611" y2="18.9805" gradientUnits="userSpaceOnUse">
<stop stop-color="#F8DA5B"/>
<stop offset="0.09" stop-color="#DCB749"/>
<stop offset="0.19" stop-color="#C39938"/>
<stop offset="0.27" stop-color="#B3872F"/>
<stop offset="0.33" stop-color="#AE802B"/>
<stop offset="0.34" stop-color="#B58930"/>
<stop offset="0.42" stop-color="#E5C34F"/>
<stop offset="0.46" stop-color="#F8DA5B"/>
<stop offset="0.51" stop-color="#FAE783"/>
<stop offset="0.58" stop-color="#FDF9BD"/>
<stop offset="0.61" stop-color="#F7F0AF"/>
<stop offset="0.74" stop-color="#E5D384"/>
<stop offset="0.8" stop-color="#DEC874"/>
<stop offset="0.93" stop-color="#F3EAA6"/>
<stop offset="1" stop-color="#FDF9BD"/>
</linearGradient>
<linearGradient id="paint20_linear_553_290" x1="7.83717" y1="18.9749" x2="34.2611" y2="18.9749" gradientUnits="userSpaceOnUse">
<stop stop-color="#F8DA5B"/>
<stop offset="0.09" stop-color="#DCB749"/>
<stop offset="0.19" stop-color="#C39938"/>
<stop offset="0.27" stop-color="#B3872F"/>
<stop offset="0.33" stop-color="#AE802B"/>
<stop offset="0.34" stop-color="#B58930"/>
<stop offset="0.42" stop-color="#E5C34F"/>
<stop offset="0.46" stop-color="#F8DA5B"/>
<stop offset="0.51" stop-color="#FAE783"/>
<stop offset="0.58" stop-color="#FDF9BD"/>
<stop offset="0.61" stop-color="#F7F0AF"/>
<stop offset="0.74" stop-color="#E5D384"/>
<stop offset="0.8" stop-color="#DEC874"/>
<stop offset="0.93" stop-color="#F3EAA6"/>
<stop offset="1" stop-color="#FDF9BD"/>
</linearGradient>
<linearGradient id="paint21_linear_553_290" x1="7.83711" y1="18.9811" x2="34.261" y2="18.9811" gradientUnits="userSpaceOnUse">
<stop stop-color="#F8DA5B"/>
<stop offset="0.09" stop-color="#DCB749"/>
<stop offset="0.19" stop-color="#C39938"/>
<stop offset="0.27" stop-color="#B3872F"/>
<stop offset="0.33" stop-color="#AE802B"/>
<stop offset="0.34" stop-color="#B58930"/>
<stop offset="0.42" stop-color="#E5C34F"/>
<stop offset="0.46" stop-color="#F8DA5B"/>
<stop offset="0.51" stop-color="#FAE783"/>
<stop offset="0.58" stop-color="#FDF9BD"/>
<stop offset="0.61" stop-color="#F7F0AF"/>
<stop offset="0.74" stop-color="#E5D384"/>
<stop offset="0.8" stop-color="#DEC874"/>
<stop offset="0.93" stop-color="#F3EAA6"/>
<stop offset="1" stop-color="#FDF9BD"/>
</linearGradient>
<linearGradient id="paint22_linear_553_290" x1="7.83603" y1="18.9744" x2="34.2611" y2="18.9744" gradientUnits="userSpaceOnUse">
<stop stop-color="#F8DA5B"/>
<stop offset="0.09" stop-color="#DCB749"/>
<stop offset="0.19" stop-color="#C39938"/>
<stop offset="0.27" stop-color="#B3872F"/>
<stop offset="0.33" stop-color="#AE802B"/>
<stop offset="0.34" stop-color="#B58930"/>
<stop offset="0.42" stop-color="#E5C34F"/>
<stop offset="0.46" stop-color="#F8DA5B"/>
<stop offset="0.51" stop-color="#FAE783"/>
<stop offset="0.58" stop-color="#FDF9BD"/>
<stop offset="0.61" stop-color="#F7F0AF"/>
<stop offset="0.74" stop-color="#E5D384"/>
<stop offset="0.8" stop-color="#DEC874"/>
<stop offset="0.93" stop-color="#F3EAA6"/>
<stop offset="1" stop-color="#FDF9BD"/>
</linearGradient>
<linearGradient id="paint23_linear_553_290" x1="7.83574" y1="18.9816" x2="34.2608" y2="18.9816" gradientUnits="userSpaceOnUse">
<stop stop-color="#F8DA5B"/>
<stop offset="0.09" stop-color="#DCB749"/>
<stop offset="0.19" stop-color="#C39938"/>
<stop offset="0.27" stop-color="#B3872F"/>
<stop offset="0.33" stop-color="#AE802B"/>
<stop offset="0.34" stop-color="#B58930"/>
<stop offset="0.42" stop-color="#E5C34F"/>
<stop offset="0.46" stop-color="#F8DA5B"/>
<stop offset="0.51" stop-color="#FAE783"/>
<stop offset="0.58" stop-color="#FDF9BD"/>
<stop offset="0.61" stop-color="#F7F0AF"/>
<stop offset="0.74" stop-color="#E5D384"/>
<stop offset="0.8" stop-color="#DEC874"/>
<stop offset="0.93" stop-color="#F3EAA6"/>
<stop offset="1" stop-color="#FDF9BD"/>
</linearGradient>
<linearGradient id="paint24_linear_553_290" x1="7.83619" y1="18.9819" x2="34.2612" y2="18.9819" gradientUnits="userSpaceOnUse">
<stop stop-color="#F8DA5B"/>
<stop offset="0.09" stop-color="#DCB749"/>
<stop offset="0.19" stop-color="#C39938"/>
<stop offset="0.27" stop-color="#B3872F"/>
<stop offset="0.33" stop-color="#AE802B"/>
<stop offset="0.34" stop-color="#B58930"/>
<stop offset="0.42" stop-color="#E5C34F"/>
<stop offset="0.46" stop-color="#F8DA5B"/>
<stop offset="0.51" stop-color="#FAE783"/>
<stop offset="0.58" stop-color="#FDF9BD"/>
<stop offset="0.61" stop-color="#F7F0AF"/>
<stop offset="0.74" stop-color="#E5D384"/>
<stop offset="0.8" stop-color="#DEC874"/>
<stop offset="0.93" stop-color="#F3EAA6"/>
<stop offset="1" stop-color="#FDF9BD"/>
</linearGradient>
<linearGradient id="paint25_linear_553_290" x1="7.83585" y1="18.9825" x2="34.2607" y2="18.9825" gradientUnits="userSpaceOnUse">
<stop stop-color="#F8DA5B"/>
<stop offset="0.09" stop-color="#DCB749"/>
<stop offset="0.19" stop-color="#C39938"/>
<stop offset="0.27" stop-color="#B3872F"/>
<stop offset="0.33" stop-color="#AE802B"/>
<stop offset="0.34" stop-color="#B58930"/>
<stop offset="0.42" stop-color="#E5C34F"/>
<stop offset="0.46" stop-color="#F8DA5B"/>
<stop offset="0.51" stop-color="#FAE783"/>
<stop offset="0.58" stop-color="#FDF9BD"/>
<stop offset="0.61" stop-color="#F7F0AF"/>
<stop offset="0.74" stop-color="#E5D384"/>
<stop offset="0.8" stop-color="#DEC874"/>
<stop offset="0.93" stop-color="#F3EAA6"/>
<stop offset="1" stop-color="#FDF9BD"/>
</linearGradient>
<linearGradient id="paint26_linear_553_290" x1="7.83608" y1="18.983" x2="34.2609" y2="18.983" gradientUnits="userSpaceOnUse">
<stop stop-color="#F8DA5B"/>
<stop offset="0.09" stop-color="#DCB749"/>
<stop offset="0.19" stop-color="#C39938"/>
<stop offset="0.27" stop-color="#B3872F"/>
<stop offset="0.33" stop-color="#AE802B"/>
<stop offset="0.34" stop-color="#B58930"/>
<stop offset="0.42" stop-color="#E5C34F"/>
<stop offset="0.46" stop-color="#F8DA5B"/>
<stop offset="0.51" stop-color="#FAE783"/>
<stop offset="0.58" stop-color="#FDF9BD"/>
<stop offset="0.61" stop-color="#F7F0AF"/>
<stop offset="0.74" stop-color="#E5D384"/>
<stop offset="0.8" stop-color="#DEC874"/>
<stop offset="0.93" stop-color="#F3EAA6"/>
<stop offset="1" stop-color="#FDF9BD"/>
</linearGradient>
<linearGradient id="paint27_linear_553_290" x1="7.83619" y1="18.9853" x2="34.2613" y2="18.9853" gradientUnits="userSpaceOnUse">
<stop stop-color="#F8DA5B"/>
<stop offset="0.09" stop-color="#DCB749"/>
<stop offset="0.19" stop-color="#C39938"/>
<stop offset="0.27" stop-color="#B3872F"/>
<stop offset="0.33" stop-color="#AE802B"/>
<stop offset="0.34" stop-color="#B58930"/>
<stop offset="0.42" stop-color="#E5C34F"/>
<stop offset="0.46" stop-color="#F8DA5B"/>
<stop offset="0.51" stop-color="#FAE783"/>
<stop offset="0.58" stop-color="#FDF9BD"/>
<stop offset="0.61" stop-color="#F7F0AF"/>
<stop offset="0.74" stop-color="#E5D384"/>
<stop offset="0.8" stop-color="#DEC874"/>
<stop offset="0.93" stop-color="#F3EAA6"/>
<stop offset="1" stop-color="#FDF9BD"/>
</linearGradient>
<linearGradient id="paint28_linear_553_290" x1="7.83609" y1="18.9806" x2="34.2609" y2="18.9806" gradientUnits="userSpaceOnUse">
<stop stop-color="#F8DA5B"/>
<stop offset="0.09" stop-color="#DCB749"/>
<stop offset="0.19" stop-color="#C39938"/>
<stop offset="0.27" stop-color="#B3872F"/>
<stop offset="0.33" stop-color="#AE802B"/>
<stop offset="0.34" stop-color="#B58930"/>
<stop offset="0.42" stop-color="#E5C34F"/>
<stop offset="0.46" stop-color="#F8DA5B"/>
<stop offset="0.51" stop-color="#FAE783"/>
<stop offset="0.58" stop-color="#FDF9BD"/>
<stop offset="0.61" stop-color="#F7F0AF"/>
<stop offset="0.74" stop-color="#E5D384"/>
<stop offset="0.8" stop-color="#DEC874"/>
<stop offset="0.93" stop-color="#F3EAA6"/>
<stop offset="1" stop-color="#FDF9BD"/>
</linearGradient>
<linearGradient id="paint29_linear_553_290" x1="7.8361" y1="18.9815" x2="34.2611" y2="18.9815" gradientUnits="userSpaceOnUse">
<stop stop-color="#F8DA5B"/>
<stop offset="0.09" stop-color="#DCB749"/>
<stop offset="0.19" stop-color="#C39938"/>
<stop offset="0.27" stop-color="#B3872F"/>
<stop offset="0.33" stop-color="#AE802B"/>
<stop offset="0.34" stop-color="#B58930"/>
<stop offset="0.42" stop-color="#E5C34F"/>
<stop offset="0.46" stop-color="#F8DA5B"/>
<stop offset="0.51" stop-color="#FAE783"/>
<stop offset="0.58" stop-color="#FDF9BD"/>
<stop offset="0.61" stop-color="#F7F0AF"/>
<stop offset="0.74" stop-color="#E5D384"/>
<stop offset="0.8" stop-color="#DEC874"/>
<stop offset="0.93" stop-color="#F3EAA6"/>
<stop offset="1" stop-color="#FDF9BD"/>
</linearGradient>
<linearGradient id="paint30_linear_553_290" x1="7.83619" y1="18.982" x2="34.2611" y2="18.982" gradientUnits="userSpaceOnUse">
<stop stop-color="#F8DA5B"/>
<stop offset="0.09" stop-color="#DCB749"/>
<stop offset="0.19" stop-color="#C39938"/>
<stop offset="0.27" stop-color="#B3872F"/>
<stop offset="0.33" stop-color="#AE802B"/>
<stop offset="0.34" stop-color="#B58930"/>
<stop offset="0.42" stop-color="#E5C34F"/>
<stop offset="0.46" stop-color="#F8DA5B"/>
<stop offset="0.51" stop-color="#FAE783"/>
<stop offset="0.58" stop-color="#FDF9BD"/>
<stop offset="0.61" stop-color="#F7F0AF"/>
<stop offset="0.74" stop-color="#E5D384"/>
<stop offset="0.8" stop-color="#DEC874"/>
<stop offset="0.93" stop-color="#F3EAA6"/>
<stop offset="1" stop-color="#FDF9BD"/>
</linearGradient>
<linearGradient id="paint31_linear_553_290" x1="7.83596" y1="18.9824" x2="34.2611" y2="18.9824" gradientUnits="userSpaceOnUse">
<stop stop-color="#F8DA5B"/>
<stop offset="0.09" stop-color="#DCB749"/>
<stop offset="0.19" stop-color="#C39938"/>
<stop offset="0.27" stop-color="#B3872F"/>
<stop offset="0.33" stop-color="#AE802B"/>
<stop offset="0.34" stop-color="#B58930"/>
<stop offset="0.42" stop-color="#E5C34F"/>
<stop offset="0.46" stop-color="#F8DA5B"/>
<stop offset="0.51" stop-color="#FAE783"/>
<stop offset="0.58" stop-color="#FDF9BD"/>
<stop offset="0.61" stop-color="#F7F0AF"/>
<stop offset="0.74" stop-color="#E5D384"/>
<stop offset="0.8" stop-color="#DEC874"/>
<stop offset="0.93" stop-color="#F3EAA6"/>
<stop offset="1" stop-color="#FDF9BD"/>
</linearGradient>
<linearGradient id="paint32_linear_553_290" x1="7.83693" y1="18.9826" x2="34.2608" y2="18.9826" gradientUnits="userSpaceOnUse">
<stop stop-color="#F8DA5B"/>
<stop offset="0.09" stop-color="#DCB749"/>
<stop offset="0.19" stop-color="#C39938"/>
<stop offset="0.27" stop-color="#B3872F"/>
<stop offset="0.33" stop-color="#AE802B"/>
<stop offset="0.34" stop-color="#B58930"/>
<stop offset="0.42" stop-color="#E5C34F"/>
<stop offset="0.46" stop-color="#F8DA5B"/>
<stop offset="0.51" stop-color="#FAE783"/>
<stop offset="0.58" stop-color="#FDF9BD"/>
<stop offset="0.61" stop-color="#F7F0AF"/>
<stop offset="0.74" stop-color="#E5D384"/>
<stop offset="0.8" stop-color="#DEC874"/>
<stop offset="0.93" stop-color="#F3EAA6"/>
<stop offset="1" stop-color="#FDF9BD"/>
</linearGradient>
<linearGradient id="paint33_linear_553_290" x1="7.836" y1="18.9831" x2="34.2611" y2="18.9831" gradientUnits="userSpaceOnUse">
<stop stop-color="#F8DA5B"/>
<stop offset="0.09" stop-color="#DCB749"/>
<stop offset="0.19" stop-color="#C39938"/>
<stop offset="0.27" stop-color="#B3872F"/>
<stop offset="0.33" stop-color="#AE802B"/>
<stop offset="0.34" stop-color="#B58930"/>
<stop offset="0.42" stop-color="#E5C34F"/>
<stop offset="0.46" stop-color="#F8DA5B"/>
<stop offset="0.51" stop-color="#FAE783"/>
<stop offset="0.58" stop-color="#FDF9BD"/>
<stop offset="0.61" stop-color="#F7F0AF"/>
<stop offset="0.74" stop-color="#E5D384"/>
<stop offset="0.8" stop-color="#DEC874"/>
<stop offset="0.93" stop-color="#F3EAA6"/>
<stop offset="1" stop-color="#FDF9BD"/>
</linearGradient>
<linearGradient id="paint34_linear_553_290" x1="7.83601" y1="18.9836" x2="34.261" y2="18.9836" gradientUnits="userSpaceOnUse">
<stop stop-color="#F8DA5B"/>
<stop offset="0.09" stop-color="#DCB749"/>
<stop offset="0.19" stop-color="#C39938"/>
<stop offset="0.27" stop-color="#B3872F"/>
<stop offset="0.33" stop-color="#AE802B"/>
<stop offset="0.34" stop-color="#B58930"/>
<stop offset="0.42" stop-color="#E5C34F"/>
<stop offset="0.46" stop-color="#F8DA5B"/>
<stop offset="0.51" stop-color="#FAE783"/>
<stop offset="0.58" stop-color="#FDF9BD"/>
<stop offset="0.61" stop-color="#F7F0AF"/>
<stop offset="0.74" stop-color="#E5D384"/>
<stop offset="0.8" stop-color="#DEC874"/>
<stop offset="0.93" stop-color="#F3EAA6"/>
<stop offset="1" stop-color="#FDF9BD"/>
</linearGradient>
<linearGradient id="paint35_linear_553_290" x1="7.83567" y1="18.9788" x2="34.2608" y2="18.9788" gradientUnits="userSpaceOnUse">
<stop stop-color="#F8DA5B"/>
<stop offset="0.09" stop-color="#DCB749"/>
<stop offset="0.19" stop-color="#C39938"/>
<stop offset="0.27" stop-color="#B3872F"/>
<stop offset="0.33" stop-color="#AE802B"/>
<stop offset="0.34" stop-color="#B58930"/>
<stop offset="0.42" stop-color="#E5C34F"/>
<stop offset="0.46" stop-color="#F8DA5B"/>
<stop offset="0.51" stop-color="#FAE783"/>
<stop offset="0.58" stop-color="#FDF9BD"/>
<stop offset="0.61" stop-color="#F7F0AF"/>
<stop offset="0.74" stop-color="#E5D384"/>
<stop offset="0.8" stop-color="#DEC874"/>
<stop offset="0.93" stop-color="#F3EAA6"/>
<stop offset="1" stop-color="#FDF9BD"/>
</linearGradient>
<linearGradient id="paint36_linear_553_290" x1="7.83696" y1="18.9808" x2="34.2609" y2="18.9808" gradientUnits="userSpaceOnUse">
<stop stop-color="#F8DA5B"/>
<stop offset="0.09" stop-color="#DCB749"/>
<stop offset="0.19" stop-color="#C39938"/>
<stop offset="0.27" stop-color="#B3872F"/>
<stop offset="0.33" stop-color="#AE802B"/>
<stop offset="0.34" stop-color="#B58930"/>
<stop offset="0.42" stop-color="#E5C34F"/>
<stop offset="0.46" stop-color="#F8DA5B"/>
<stop offset="0.51" stop-color="#FAE783"/>
<stop offset="0.58" stop-color="#FDF9BD"/>
<stop offset="0.61" stop-color="#F7F0AF"/>
<stop offset="0.74" stop-color="#E5D384"/>
<stop offset="0.8" stop-color="#DEC874"/>
<stop offset="0.93" stop-color="#F3EAA6"/>
<stop offset="1" stop-color="#FDF9BD"/>
</linearGradient>
<linearGradient id="paint37_linear_553_290" x1="7.83708" y1="18.976" x2="34.2612" y2="18.976" gradientUnits="userSpaceOnUse">
<stop stop-color="#F8DA5B"/>
<stop offset="0.09" stop-color="#DCB749"/>
<stop offset="0.19" stop-color="#C39938"/>
<stop offset="0.27" stop-color="#B3872F"/>
<stop offset="0.33" stop-color="#AE802B"/>
<stop offset="0.34" stop-color="#B58930"/>
<stop offset="0.42" stop-color="#E5C34F"/>
<stop offset="0.46" stop-color="#F8DA5B"/>
<stop offset="0.51" stop-color="#FAE783"/>
<stop offset="0.58" stop-color="#FDF9BD"/>
<stop offset="0.61" stop-color="#F7F0AF"/>
<stop offset="0.74" stop-color="#E5D384"/>
<stop offset="0.8" stop-color="#DEC874"/>
<stop offset="0.93" stop-color="#F3EAA6"/>
<stop offset="1" stop-color="#FDF9BD"/>
</linearGradient>
<linearGradient id="paint38_linear_553_290" x1="7.83678" y1="18.9805" x2="34.2609" y2="18.9805" gradientUnits="userSpaceOnUse">
<stop stop-color="#F8DA5B"/>
<stop offset="0.09" stop-color="#DCB749"/>
<stop offset="0.19" stop-color="#C39938"/>
<stop offset="0.27" stop-color="#B3872F"/>
<stop offset="0.33" stop-color="#AE802B"/>
<stop offset="0.34" stop-color="#B58930"/>
<stop offset="0.42" stop-color="#E5C34F"/>
<stop offset="0.46" stop-color="#F8DA5B"/>
<stop offset="0.51" stop-color="#FAE783"/>
<stop offset="0.58" stop-color="#FDF9BD"/>
<stop offset="0.61" stop-color="#F7F0AF"/>
<stop offset="0.74" stop-color="#E5D384"/>
<stop offset="0.8" stop-color="#DEC874"/>
<stop offset="0.93" stop-color="#F3EAA6"/>
<stop offset="1" stop-color="#FDF9BD"/>
</linearGradient>
<linearGradient id="paint39_linear_553_290" x1="7.83617" y1="18.9749" x2="34.2611" y2="18.9749" gradientUnits="userSpaceOnUse">
<stop stop-color="#F8DA5B"/>
<stop offset="0.09" stop-color="#DCB749"/>
<stop offset="0.19" stop-color="#C39938"/>
<stop offset="0.27" stop-color="#B3872F"/>
<stop offset="0.33" stop-color="#AE802B"/>
<stop offset="0.34" stop-color="#B58930"/>
<stop offset="0.42" stop-color="#E5C34F"/>
<stop offset="0.46" stop-color="#F8DA5B"/>
<stop offset="0.51" stop-color="#FAE783"/>
<stop offset="0.58" stop-color="#FDF9BD"/>
<stop offset="0.61" stop-color="#F7F0AF"/>
<stop offset="0.74" stop-color="#E5D384"/>
<stop offset="0.8" stop-color="#DEC874"/>
<stop offset="0.93" stop-color="#F3EAA6"/>
<stop offset="1" stop-color="#FDF9BD"/>
</linearGradient>
<linearGradient id="paint40_linear_553_290" x1="7.83629" y1="18.9812" x2="34.2602" y2="18.9812" gradientUnits="userSpaceOnUse">
<stop stop-color="#F8DA5B"/>
<stop offset="0.09" stop-color="#DCB749"/>
<stop offset="0.19" stop-color="#C39938"/>
<stop offset="0.27" stop-color="#B3872F"/>
<stop offset="0.33" stop-color="#AE802B"/>
<stop offset="0.34" stop-color="#B58930"/>
<stop offset="0.42" stop-color="#E5C34F"/>
<stop offset="0.46" stop-color="#F8DA5B"/>
<stop offset="0.51" stop-color="#FAE783"/>
<stop offset="0.58" stop-color="#FDF9BD"/>
<stop offset="0.61" stop-color="#F7F0AF"/>
<stop offset="0.74" stop-color="#E5D384"/>
<stop offset="0.8" stop-color="#DEC874"/>
<stop offset="0.93" stop-color="#F3EAA6"/>
<stop offset="1" stop-color="#FDF9BD"/>
</linearGradient>
<linearGradient id="paint41_linear_553_290" x1="7.83619" y1="18.9744" x2="34.2612" y2="18.9744" gradientUnits="userSpaceOnUse">
<stop stop-color="#F8DA5B"/>
<stop offset="0.09" stop-color="#DCB749"/>
<stop offset="0.19" stop-color="#C39938"/>
<stop offset="0.27" stop-color="#B3872F"/>
<stop offset="0.33" stop-color="#AE802B"/>
<stop offset="0.34" stop-color="#B58930"/>
<stop offset="0.42" stop-color="#E5C34F"/>
<stop offset="0.46" stop-color="#F8DA5B"/>
<stop offset="0.51" stop-color="#FAE783"/>
<stop offset="0.58" stop-color="#FDF9BD"/>
<stop offset="0.61" stop-color="#F7F0AF"/>
<stop offset="0.74" stop-color="#E5D384"/>
<stop offset="0.8" stop-color="#DEC874"/>
<stop offset="0.93" stop-color="#F3EAA6"/>
<stop offset="1" stop-color="#FDF9BD"/>
</linearGradient>
<linearGradient id="paint42_linear_553_290" x1="7.83591" y1="18.9816" x2="34.2609" y2="18.9816" gradientUnits="userSpaceOnUse">
<stop stop-color="#F8DA5B"/>
<stop offset="0.09" stop-color="#DCB749"/>
<stop offset="0.19" stop-color="#C39938"/>
<stop offset="0.27" stop-color="#B3872F"/>
<stop offset="0.33" stop-color="#AE802B"/>
<stop offset="0.34" stop-color="#B58930"/>
<stop offset="0.42" stop-color="#E5C34F"/>
<stop offset="0.46" stop-color="#F8DA5B"/>
<stop offset="0.51" stop-color="#FAE783"/>
<stop offset="0.58" stop-color="#FDF9BD"/>
<stop offset="0.61" stop-color="#F7F0AF"/>
<stop offset="0.74" stop-color="#E5D384"/>
<stop offset="0.8" stop-color="#DEC874"/>
<stop offset="0.93" stop-color="#F3EAA6"/>
<stop offset="1" stop-color="#FDF9BD"/>
</linearGradient>
<linearGradient id="paint43_linear_553_290" x1="7.83676" y1="18.9819" x2="34.2609" y2="18.9819" gradientUnits="userSpaceOnUse">
<stop stop-color="#F8DA5B"/>
<stop offset="0.09" stop-color="#DCB749"/>
<stop offset="0.19" stop-color="#C39938"/>
<stop offset="0.27" stop-color="#B3872F"/>
<stop offset="0.33" stop-color="#AE802B"/>
<stop offset="0.34" stop-color="#B58930"/>
<stop offset="0.42" stop-color="#E5C34F"/>
<stop offset="0.46" stop-color="#F8DA5B"/>
<stop offset="0.51" stop-color="#FAE783"/>
<stop offset="0.58" stop-color="#FDF9BD"/>
<stop offset="0.61" stop-color="#F7F0AF"/>
<stop offset="0.74" stop-color="#E5D384"/>
<stop offset="0.8" stop-color="#DEC874"/>
<stop offset="0.93" stop-color="#F3EAA6"/>
<stop offset="1" stop-color="#FDF9BD"/>
</linearGradient>
<linearGradient id="paint44_linear_553_290" x1="7.83577" y1="18.9825" x2="34.261" y2="18.9825" gradientUnits="userSpaceOnUse">
<stop stop-color="#F8DA5B"/>
<stop offset="0.09" stop-color="#DCB749"/>
<stop offset="0.19" stop-color="#C39938"/>
<stop offset="0.27" stop-color="#B3872F"/>
<stop offset="0.33" stop-color="#AE802B"/>
<stop offset="0.34" stop-color="#B58930"/>
<stop offset="0.42" stop-color="#E5C34F"/>
<stop offset="0.46" stop-color="#F8DA5B"/>
<stop offset="0.51" stop-color="#FAE783"/>
<stop offset="0.58" stop-color="#FDF9BD"/>
<stop offset="0.61" stop-color="#F7F0AF"/>
<stop offset="0.74" stop-color="#E5D384"/>
<stop offset="0.8" stop-color="#DEC874"/>
<stop offset="0.93" stop-color="#F3EAA6"/>
<stop offset="1" stop-color="#FDF9BD"/>
</linearGradient>
<linearGradient id="paint45_linear_553_290" x1="7.83615" y1="18.983" x2="34.2611" y2="18.983" gradientUnits="userSpaceOnUse">
<stop stop-color="#F8DA5B"/>
<stop offset="0.09" stop-color="#DCB749"/>
<stop offset="0.19" stop-color="#C39938"/>
<stop offset="0.27" stop-color="#B3872F"/>
<stop offset="0.33" stop-color="#AE802B"/>
<stop offset="0.34" stop-color="#B58930"/>
<stop offset="0.42" stop-color="#E5C34F"/>
<stop offset="0.46" stop-color="#F8DA5B"/>
<stop offset="0.51" stop-color="#FAE783"/>
<stop offset="0.58" stop-color="#FDF9BD"/>
<stop offset="0.61" stop-color="#F7F0AF"/>
<stop offset="0.74" stop-color="#E5D384"/>
<stop offset="0.8" stop-color="#DEC874"/>
<stop offset="0.93" stop-color="#F3EAA6"/>
<stop offset="1" stop-color="#FDF9BD"/>
</linearGradient>
<linearGradient id="paint46_linear_553_290" x1="7.83598" y1="18.9853" x2="34.2611" y2="18.9853" gradientUnits="userSpaceOnUse">
<stop stop-color="#F8DA5B"/>
<stop offset="0.09" stop-color="#DCB749"/>
<stop offset="0.19" stop-color="#C39938"/>
<stop offset="0.27" stop-color="#B3872F"/>
<stop offset="0.33" stop-color="#AE802B"/>
<stop offset="0.34" stop-color="#B58930"/>
<stop offset="0.42" stop-color="#E5C34F"/>
<stop offset="0.46" stop-color="#F8DA5B"/>
<stop offset="0.51" stop-color="#FAE783"/>
<stop offset="0.58" stop-color="#FDF9BD"/>
<stop offset="0.61" stop-color="#F7F0AF"/>
<stop offset="0.74" stop-color="#E5D384"/>
<stop offset="0.8" stop-color="#DEC874"/>
<stop offset="0.93" stop-color="#F3EAA6"/>
<stop offset="1" stop-color="#FDF9BD"/>
</linearGradient>
</defs>
</svg>
