<svg width="183" height="40" viewBox="0 0 183 40" fill="none" xmlns="http://www.w3.org/2000/svg">
<path d="M26.8103 39.4911C25.8819 39.4446 24.9635 39.2839 24.0774 39.0131C23.1993 38.7459 22.2897 38.5864 21.3701 38.5386C20.4506 38.5864 19.541 38.7459 18.6628 39.0131C17.7768 39.2839 16.8584 39.4446 15.93 39.4911C15.5354 39.4963 15.1424 39.4405 14.7661 39.3259C13.4854 38.9252 12.5769 37.8427 11.7158 36.7989C11.1935 36.109 10.5803 35.4875 9.89149 34.9501C9.13928 34.4814 8.32745 34.1081 7.47608 33.8395C6.18446 33.365 4.84905 32.8765 4.06824 31.8432C3.28743 30.8099 3.22541 29.4532 3.15608 28.1317C3.1464 27.2605 3.02383 26.3939 2.79122 25.5519C2.47493 24.7729 2.05683 24.0359 1.54703 23.3588C0.795406 22.2306 0 21.0602 0 19.7422C0 18.4242 0.795405 17.2538 1.56527 16.1397C2.07651 15.4634 2.49471 14.7262 2.80946 13.9465C3.04211 13.1058 3.16468 12.2403 3.17432 11.3703C3.24365 10.0452 3.31662 8.67452 4.08649 7.65527C4.85635 6.63602 6.2027 6.13342 7.49432 5.65894C8.34352 5.38755 9.15289 5.01191 9.90243 4.54128C10.5912 4.00388 11.2045 3.38243 11.7268 2.69257C12.5951 1.63817 13.4964 0.566195 14.777 0.165523C15.1533 0.0508933 15.5463 -0.00487756 15.9409 0.000334229C16.8693 0.0468546 17.7877 0.207487 18.6738 0.478328C19.5514 0.747376 20.4613 0.906838 21.3811 0.952808C22.3009 0.906838 23.2107 0.747376 24.0884 0.478328C24.9745 0.207487 25.8928 0.0468546 26.8212 0.000334229C27.2159 -0.00487756 27.6088 0.0508933 27.9851 0.165523C29.2658 0.566195 30.1743 1.64871 31.0354 2.69257C31.5577 3.38243 32.1709 4.00388 32.8597 4.54128C33.6119 5.01 34.4238 5.38329 35.2751 5.65191C36.5668 6.12639 37.9022 6.61493 38.683 7.64824C39.4638 8.68155 39.5258 10.0382 39.5951 11.3632C39.6048 12.2333 39.7273 13.0988 39.96 13.9395C40.2613 14.7191 40.6647 15.4585 41.1604 16.1397C41.9303 17.2679 42.7257 18.4312 42.7257 19.7563C42.7257 21.0813 41.9303 22.2446 41.1604 23.3728C40.6506 24.05 40.2325 24.787 39.9162 25.566C39.6836 26.4079 39.561 27.2746 39.5513 28.1458C39.482 29.4673 39.409 30.838 38.6392 31.8572C37.8693 32.8765 36.523 33.3791 35.2313 33.8536C34.38 34.1222 33.5681 34.4955 32.8159 34.9642C32.1272 35.5016 31.5139 36.1231 30.9916 36.8129C30.1232 37.8673 29.222 38.9217 27.9413 39.34C27.5747 39.4465 27.1931 39.4975 26.8103 39.4911Z" fill="url(#paint0_linear_552_289)"/>
<path d="M42.4921 19.7424C42.4921 21.8512 40.3357 23.5839 39.6972 25.4783C39.0368 27.443 39.6972 30.0685 38.4603 31.7028C37.2234 33.3371 34.4067 33.5585 32.6955 34.757C30.9843 35.9555 29.9371 38.4615 27.8975 39.0976C25.9345 39.7127 23.5483 38.2998 21.3701 38.2998C19.1918 38.2998 16.8056 39.7057 14.8426 39.0976C12.803 38.4615 11.7413 35.9345 10.0483 34.757C8.35534 33.5796 5.52764 33.3512 4.2798 31.7028C3.03197 30.0544 3.70332 27.443 3.04291 25.4783C2.4044 23.5839 0.248047 21.8407 0.248047 19.7424C0.248047 17.6441 2.4044 15.9009 3.04291 14.0065C3.70332 12.0453 3.04291 9.41632 4.2798 7.782C5.51669 6.14768 8.3225 5.94734 10.0483 4.72776C11.7741 3.50817 12.803 1.02682 14.8426 0.387147C16.8056 -0.227919 19.1918 1.18498 21.3701 1.18498C23.5483 1.18498 25.9345 -0.22089 27.8975 0.387147C29.9371 1.0233 30.9989 3.55034 32.6955 4.72776C34.3921 5.90517 37.2125 6.13362 38.4603 7.782C39.7082 9.43038 39.0368 12.0453 39.6972 14.0065C40.3357 15.9009 42.4921 17.6441 42.4921 19.7424Z" fill="url(#paint1_linear_552_289)"/>
<path d="M26.8102 38.3031C25.9905 38.2533 25.1804 38.1057 24.3984 37.8638C23.4166 37.5654 22.3986 37.3917 21.3701 37.3471C20.3416 37.3917 19.3235 37.5654 18.3417 37.8638C17.5597 38.1057 16.7496 38.2533 15.9299 38.3031C15.6641 38.3075 15.3992 38.2708 15.1455 38.1942C14.2187 37.9025 13.4707 37.0062 12.679 36.0537C12.0927 35.2811 11.4032 34.5863 10.6284 33.9871C9.78922 33.4552 8.88156 33.0311 7.92844 32.7254C6.75357 32.2966 5.64438 31.8889 5.07884 31.1438C4.5133 30.3987 4.46587 29.274 4.40019 28.0684C4.39193 27.0944 4.25211 26.1256 3.98425 25.1864C3.63668 24.3045 3.17054 23.4702 2.59776 22.7051C1.89722 21.6788 1.23682 20.7087 1.23682 19.7422C1.23682 18.7757 1.89722 17.8056 2.59776 16.7793C3.16912 16.0209 3.63522 15.1938 3.98425 14.3191C4.25189 13.3786 4.39171 12.4087 4.40019 11.4335C4.46587 10.2315 4.52425 9.09277 5.07884 8.35821C5.63344 7.62364 6.75357 7.2054 7.92844 6.77661C8.88218 6.47237 9.79004 6.04811 10.6284 5.51485C11.4032 4.91571 12.0927 4.22086 12.679 3.44822C13.4707 2.49926 14.2187 1.59951 15.1455 1.30779C15.3998 1.23418 15.6644 1.19861 15.9299 1.20235C16.7495 1.25085 17.5596 1.39725 18.3417 1.63817C19.3235 1.93657 20.3416 2.11025 21.3701 2.15483C22.3986 2.11025 23.4166 1.93657 24.3984 1.63817C25.1805 1.39725 25.9906 1.25085 26.8102 1.20235C27.0757 1.19861 27.3403 1.23418 27.5947 1.30779C28.5214 1.59951 29.2694 2.49926 30.0611 3.44822C30.6475 4.22086 31.3369 4.91571 32.1117 5.51485C32.9501 6.04811 33.8579 6.47237 34.8117 6.77661C35.9865 7.2054 37.0957 7.6131 37.6613 8.35821C38.2268 9.10332 38.2779 10.2315 38.3399 11.4335C38.3484 12.4087 38.4882 13.3786 38.7559 14.3191C39.1049 15.1938 39.571 16.0209 40.1424 16.7793C40.8429 17.8056 41.5033 18.7757 41.5033 19.7422C41.5033 20.7087 40.8429 21.6788 40.1424 22.7051C39.5696 23.4702 39.1034 24.3045 38.7559 25.1864C38.488 26.1256 38.3482 27.0944 38.3399 28.0684C38.2779 29.274 38.2159 30.4092 37.6613 31.1438C37.1067 31.8783 35.9865 32.2966 34.8117 32.7254C33.8586 33.0311 32.9509 33.4552 32.1117 33.9871C31.3369 34.5863 30.6475 35.2811 30.0611 36.0537C29.2694 37.0062 28.5214 37.9025 27.5947 38.1942C27.3409 38.2708 27.0761 38.3075 26.8102 38.3031Z" fill="url(#paint2_linear_552_289)"/>
<path d="M26.8102 38.3031C25.9905 38.2533 25.1804 38.1057 24.3984 37.8638C23.4166 37.5654 22.3986 37.3917 21.3701 37.3471C20.3416 37.3917 19.3235 37.5654 18.3417 37.8638C17.5597 38.1057 16.7496 38.2533 15.9299 38.3031C15.6641 38.3075 15.3992 38.2708 15.1455 38.1942C14.2187 37.9025 13.4707 37.0062 12.679 36.0537C12.0927 35.2811 11.4032 34.5863 10.6284 33.9871C9.78922 33.4552 8.88156 33.0311 7.92844 32.7254C6.75357 32.2966 5.64438 31.8889 5.07884 31.1438C4.5133 30.3987 4.46587 29.274 4.40019 28.0684C4.39193 27.0944 4.25211 26.1256 3.98425 25.1864C3.63668 24.3045 3.17054 23.4702 2.59776 22.7051C1.89722 21.6788 1.23682 20.7087 1.23682 19.7422C1.23682 18.7757 1.89722 17.8056 2.59776 16.7793C3.16912 16.0209 3.63522 15.1938 3.98425 14.3191C4.25189 13.3786 4.39171 12.4087 4.40019 11.4335C4.46587 10.2315 4.52425 9.09277 5.07884 8.35821C5.63344 7.62364 6.75357 7.2054 7.92844 6.77661C8.88218 6.47237 9.79004 6.04811 10.6284 5.51485C11.4032 4.91571 12.0927 4.22086 12.679 3.44822C13.4707 2.49926 14.2187 1.59951 15.1455 1.30779C15.3998 1.23418 15.6644 1.19861 15.9299 1.20235C16.7495 1.25085 17.5596 1.39725 18.3417 1.63817C19.3235 1.93657 20.3416 2.11025 21.3701 2.15483C22.3986 2.11025 23.4166 1.93657 24.3984 1.63817C25.1805 1.39725 25.9906 1.25085 26.8102 1.20235C27.0757 1.19861 27.3403 1.23418 27.5947 1.30779C28.5214 1.59951 29.2694 2.49926 30.0611 3.44822C30.6475 4.22086 31.3369 4.91571 32.1117 5.51485C32.9501 6.04811 33.8579 6.47237 34.8117 6.77661C35.9865 7.2054 37.0957 7.6131 37.6613 8.35821C38.2268 9.10332 38.2779 10.2315 38.3399 11.4335C38.3484 12.4087 38.4882 13.3786 38.7559 14.3191C39.1049 15.1938 39.571 16.0209 40.1424 16.7793C40.8429 17.8056 41.5033 18.7757 41.5033 19.7422C41.5033 20.7087 40.8429 21.6788 40.1424 22.7051C39.5696 23.4702 39.1034 24.3045 38.7559 25.1864C38.488 26.1256 38.3482 27.0944 38.3399 28.0684C38.2779 29.274 38.2159 30.4092 37.6613 31.1438C37.1067 31.8783 35.9865 32.2966 34.8117 32.7254C33.8586 33.0311 32.9509 33.4552 32.1117 33.9871C31.3369 34.5863 30.6475 35.2811 30.0611 36.0537C29.2694 37.0062 28.5214 37.9025 27.5947 38.1942C27.3409 38.2708 27.0761 38.3075 26.8102 38.3031Z" fill="url(#paint3_linear_552_289)"/>
<path d="M26.8105 37.3507C26.079 37.2977 25.3564 37.1621 24.6578 36.9465C23.5936 36.6225 22.4892 36.4369 21.374 36.3947C20.2587 36.4363 19.1543 36.6219 18.0902 36.9465C17.3903 37.1618 16.6666 37.2975 15.9339 37.3507C15.7721 37.3544 15.6107 37.333 15.4559 37.2874C14.8101 37.0871 14.1497 36.2963 13.4564 35.4598C12.8163 34.6188 12.0615 33.8645 11.2125 33.2174C10.3076 32.634 9.326 32.1695 8.2936 31.8362C7.26103 31.4566 6.28319 31.1016 5.89279 30.5814C5.50238 30.0613 5.44401 29.0772 5.40387 28.0192C5.39522 26.9613 5.23937 25.9092 4.94049 24.8912C4.57101 23.9264 4.06648 23.0147 3.4409 22.1814C2.82428 21.2781 2.24414 20.4241 2.24414 19.7422C2.24414 19.0604 2.82428 18.2063 3.4409 17.303C4.06648 16.4697 4.57101 15.558 4.94049 14.5932C5.23963 13.5752 5.39548 12.5231 5.40387 11.4652C5.46225 10.4108 5.51698 9.40558 5.89644 8.90299C6.2759 8.40039 7.26468 8.02783 8.29725 7.64825C9.32965 7.31489 10.3113 6.85038 11.2162 6.26699C12.0648 5.62198 12.8185 4.8688 13.4564 4.02815C14.1533 3.19166 14.8137 2.40086 15.4595 2.19701C15.6143 2.15139 15.7757 2.13003 15.9375 2.13374C16.6706 2.18662 17.3945 2.32349 18.0939 2.54145C19.1582 2.86454 20.2626 3.04894 21.3777 3.08973C22.4926 3.04752 23.5968 2.86315 24.6614 2.54145C25.3608 2.32349 26.0847 2.18662 26.8178 2.13374C26.9796 2.13003 27.141 2.15139 27.2958 2.19701C27.9416 2.40086 28.602 3.19166 29.2989 4.02815C29.9368 4.8688 30.6905 5.62198 31.5391 6.26699C32.444 6.85038 33.4257 7.31489 34.4581 7.64825C35.4906 8.02783 36.4685 8.38633 36.8589 8.90299C37.2493 9.41964 37.2931 10.4073 37.3514 11.4652C37.3601 12.5231 37.5159 13.5752 37.8148 14.5932C38.1911 15.5592 38.7031 16.4709 39.3363 17.303C39.9529 18.2063 40.5367 19.0604 40.5367 19.7422C40.5367 20.4241 39.9529 21.2781 39.3363 22.1814C38.7107 23.0147 38.2062 23.9264 37.8367 24.8912C37.5378 25.9092 37.382 26.9613 37.3733 28.0192C37.3149 29.0736 37.2602 30.0788 36.8808 30.5814C36.5013 31.084 35.5125 31.4566 34.48 31.8362C33.4476 32.1695 32.4659 32.634 31.561 33.2174C30.7012 33.865 29.9376 34.623 29.2916 35.4703C28.5947 36.3068 27.9343 37.0976 27.2885 37.2979C27.1331 37.34 26.9717 37.3578 26.8105 37.3507Z" fill="#2C1810"/>
<path d="M34.115 11.9482C34.115 11.9482 33.3525 10.9135 32.63 10.8396C32.1961 10.81 31.7603 10.8602 31.3457 10.9874C31.3457 10.9874 32.703 11.9236 33.3525 12.1066C33.4821 12.1525 33.6225 12.162 33.7575 12.134C33.8925 12.1059 34.0165 12.0415 34.115 11.9482Z" fill="url(#paint4_radial_552_289)"/>
<path d="M36.2417 23.7959C36.3684 23.8589 36.5138 23.8779 36.6533 23.8498C36.7929 23.8216 36.9181 23.7479 37.0079 23.6412C37.5625 23.1559 38.2776 21.2184 38.2776 21.2184C37.8749 21.4541 37.4961 21.7261 37.1466 22.0307C36.5737 22.5511 36.2417 23.7959 36.2417 23.7959Z" fill="url(#paint5_radial_552_289)"/>
<path d="M35.4539 25.8718C36.216 24.2706 36.6484 22.5423 36.7273 20.7825C36.7856 20.8001 37.1213 20.8739 37.457 20.4557C37.9094 19.8582 38.2524 17.8091 38.2524 17.8091C37.8989 18.1308 37.5776 18.4838 37.2928 18.8635C36.9838 19.4056 36.7973 20.0045 36.7455 20.6209C36.7455 20.4346 36.7455 20.2483 36.7455 20.062C36.745 19.251 36.6779 18.4413 36.5448 17.6404C36.6725 17.6193 36.9097 17.528 37.0885 17.1273C37.3804 16.4243 37.1979 14.3542 37.1979 14.3542C36.94 14.7616 36.7191 15.1896 36.5375 15.6336C36.4127 16.0186 36.3632 16.4226 36.3916 16.825C36.2261 16.0797 36.0016 15.3477 35.7202 14.6354C35.853 14.583 35.9679 14.4961 36.0524 14.3844C36.1368 14.2726 36.1873 14.1405 36.1982 14.0027C36.3587 13.2471 35.7932 11.2578 35.7932 11.2578C35.6153 11.7145 35.4774 12.1848 35.3809 12.6637C35.3273 13.1769 35.3793 13.6952 35.5341 14.189C35.1825 13.3738 34.7538 12.5914 34.2535 11.8518C34.3795 11.7753 34.4806 11.6662 34.5452 11.5368C34.6097 11.4075 34.6351 11.2633 34.6183 11.1207C34.6183 10.3475 33.666 8.51988 33.666 8.51988C33.5829 9.00076 33.5414 9.48746 33.542 9.97495C33.6118 10.5749 33.8106 11.1542 34.1258 11.676C33.8053 11.215 33.4568 10.7726 33.0823 10.351C32.87 9.7578 32.4527 9.2528 31.9001 8.92056C31.1045 8.46569 30.2709 8.07539 29.4081 7.75369C29.4081 7.75369 31.0718 9.28257 31.9329 9.91169C32.2593 10.1599 32.6304 10.3481 33.0275 10.467C34.0334 11.6017 34.8462 12.8829 35.4356 14.2628C35.2237 13.852 34.8811 13.5171 34.4578 13.3068C34.0484 13.1855 33.6183 13.1425 33.1917 13.1803C33.1917 13.1803 34.3155 14.3788 34.9102 14.6951C35.0176 14.7628 35.1416 14.802 35.2697 14.8088C35.3978 14.8156 35.5255 14.7897 35.64 14.7338C35.9882 15.6256 36.2484 16.547 36.4171 17.4858C36.2967 17.1132 36.0012 16.333 35.5341 16.0799C35.1608 15.8741 34.7493 15.7404 34.3228 15.6863C34.3228 15.6863 35.1985 17.0921 35.7202 17.535C35.8134 17.6259 35.9307 17.6907 36.0592 17.7223C36.1878 17.7539 36.3229 17.7511 36.45 17.7142C36.5768 18.4992 36.6415 19.2922 36.6433 20.0866C36.6433 20.3256 36.6433 20.5611 36.6433 20.7896C36.6433 20.6279 36.512 19.468 36.0048 19.0322C35.6762 18.7544 35.2979 18.5364 34.8883 18.389C34.8883 18.389 35.494 19.9636 35.9355 20.4978C36.0084 20.6123 36.1138 20.7042 36.2393 20.7628C36.3647 20.8213 36.5049 20.844 36.6433 20.8282C36.5913 21.8176 36.4311 22.7989 36.1654 23.7559C36.1873 23.4923 36.2383 22.4344 35.8406 21.9178C35.5683 21.5744 35.2347 21.2805 34.8555 21.0496C34.9992 21.8336 35.2216 22.6022 35.5196 23.3447C35.572 23.4701 35.6581 23.5797 35.769 23.6625C35.8799 23.7452 36.0117 23.7981 36.1508 23.8157C35.8886 24.6872 35.534 25.5305 35.0927 26.3322C35.1802 25.9315 35.3006 25.1442 35.0525 24.6522C34.8431 24.2592 34.5669 23.9028 34.2352 23.5978C34.2406 24.4015 34.3249 25.2029 34.487 25.9913C34.5171 26.1137 34.5748 26.2282 34.6562 26.3267C34.7376 26.4251 34.8405 26.505 34.9577 26.5606C34.4367 27.4797 33.8048 28.3362 33.075 29.1123C33.2282 28.7608 33.542 27.9595 33.3778 27.3866C33.244 26.9534 33.0382 26.5439 32.7685 26.174C32.6263 26.9666 32.5616 27.7703 32.5751 28.5745C32.5813 28.7053 32.6172 28.8332 32.6803 28.9492C32.7433 29.0651 32.8319 29.1664 32.94 29.2458C32.8451 29.3478 32.7466 29.4462 32.6481 29.5446C32.1382 30.0399 31.5919 30.4992 31.0135 30.9188C31.3541 30.528 31.5662 30.0484 31.6228 29.5411C31.6072 29.0826 31.5161 28.6294 31.3528 28.1985C31.0034 28.9217 30.7249 29.6747 30.5209 30.4479C30.4954 30.5685 30.4952 30.6928 30.5203 30.8135C30.5453 30.9342 30.5952 31.0489 30.6668 31.1508C30.0167 31.5986 29.3352 32.0026 28.6273 32.3598C28.9082 32.1595 29.6635 31.5761 29.7912 30.954C29.8684 30.5001 29.8684 30.0371 29.7912 29.5832C29.293 30.2166 28.857 30.8932 28.4886 31.6042C28.4255 31.732 28.3956 31.8726 28.4013 32.014C28.407 32.1554 28.4482 32.2934 28.5214 32.4161C27.7871 32.782 27.0276 33.0991 26.2483 33.365C26.6132 33.1823 27.4159 32.7464 27.6348 32.1982C27.7976 31.7655 27.8803 31.3087 27.8793 30.8485C27.2476 31.4007 26.6688 32.0065 26.1498 32.6586C26.0619 32.7719 26.0053 32.9049 25.9855 33.0451C25.9657 33.1853 25.9834 33.3281 26.0367 33.4599C25.1066 33.7702 24.1542 34.0146 23.1871 34.191C22.5601 34.2991 21.948 34.476 21.3628 34.7182C20.7776 34.476 20.1655 34.2991 19.5385 34.191C18.5799 34.0107 17.6361 33.764 16.7144 33.4529C16.7688 33.3212 16.787 33.1783 16.7672 33.0379C16.7474 32.8975 16.6902 32.7644 16.6013 32.6515C16.0813 32.0068 15.5025 31.4081 14.8718 30.8626C14.8708 31.3228 14.9535 31.7796 15.1163 32.2122C15.3352 32.7605 16.127 33.1963 16.5028 33.3791C15.7235 33.1131 14.964 32.7961 14.2297 32.4301C14.3046 32.3051 14.3459 32.1641 14.3497 32.0198C14.3535 31.8756 14.3198 31.7327 14.2516 31.6042C13.8756 30.896 13.4322 30.223 12.9271 29.5938C12.8499 30.0477 12.8499 30.5106 12.9271 30.9645C13.0548 31.5761 13.8101 32.1595 14.091 32.3704C13.383 32.0131 12.7016 31.6092 12.0514 31.1613C12.196 30.9554 12.2498 30.7025 12.201 30.4584C11.9946 29.6855 11.7149 28.9326 11.3655 28.209C11.2022 28.6399 11.1111 29.0931 11.0955 29.5516C11.1521 30.059 11.3642 30.5386 11.7048 30.9294C11.1264 30.5097 10.5801 30.0505 10.0702 29.5551L9.77833 29.2564C9.88636 29.1769 9.975 29.0757 10.038 28.9597C10.1011 28.8437 10.137 28.7159 10.1432 28.5851C10.1567 27.7808 10.092 26.9772 9.94982 26.1846C9.68627 26.5521 9.48548 26.9579 9.35509 27.3866C9.1909 27.9595 9.50468 28.7678 9.65793 29.1123C8.92811 28.3362 8.29615 27.4797 7.77523 26.5606C7.89497 26.5047 8.00011 26.4236 8.08285 26.3232C8.16559 26.2228 8.22381 26.1057 8.2532 25.9807C8.41532 25.1923 8.49962 24.3909 8.50496 23.5872C8.1733 23.8923 7.89704 24.2487 7.68766 24.6416C7.43955 25.1337 7.55996 25.921 7.64752 26.3216C7.21311 25.51 6.86708 24.6573 6.61495 23.777C6.75405 23.7594 6.88579 23.7065 6.9967 23.6238C7.10761 23.541 7.19371 23.4314 7.24617 23.3061C7.54409 22.5635 7.76649 21.7949 7.91023 21.011C7.53102 21.2418 7.19745 21.5358 6.92509 21.8791C6.52739 22.3958 6.56023 23.4537 6.60036 23.7173C6.33735 22.7637 6.18079 21.7857 6.13333 20.8001C6.27117 20.8152 6.41062 20.7922 6.53534 20.7336C6.66006 20.6751 6.76489 20.5836 6.83752 20.4697C7.27901 19.932 7.88468 18.3609 7.88468 18.3609C7.47511 18.5083 7.09679 18.7263 6.7682 19.0041C6.26104 19.4575 6.14428 20.6173 6.12968 20.7614C6.12968 20.5295 6.12968 20.294 6.12968 20.0585C6.13155 19.2641 6.19619 18.471 6.32306 17.6861C6.45012 17.723 6.58521 17.7258 6.71379 17.6942C6.84237 17.6626 6.95957 17.5978 7.05279 17.5069C7.57455 17.071 8.45023 15.6582 8.45023 15.6582C8.01918 15.7142 7.60383 15.8515 7.22793 16.0623C6.7609 16.333 6.46536 17.1167 6.34496 17.4682C6.5077 16.5361 6.76056 15.6206 7.10023 14.7338C7.21465 14.7897 7.34236 14.8156 7.47048 14.8088C7.59859 14.802 7.72259 14.7628 7.82996 14.6951C8.42468 14.3788 9.54847 13.1803 9.54847 13.1803C9.12191 13.1425 8.69181 13.1855 8.28239 13.3068C7.85985 13.5181 7.51756 13.8527 7.30455 14.2628C7.89534 12.8836 8.708 11.6026 9.71266 10.467C10.1098 10.3481 10.4808 10.1599 10.8073 9.91169C11.6683 9.28257 13.3321 7.75369 13.3321 7.75369C12.4693 8.07539 11.6357 8.46569 10.8401 8.92056C10.2875 9.2528 9.87018 9.7578 9.65793 10.351C9.28336 10.7726 8.93492 11.215 8.61441 11.676C8.9296 11.1542 9.12842 10.5749 9.1982 9.97495C9.19874 9.48746 9.15724 9.00076 9.07414 8.51988C9.07414 8.51988 8.1109 10.3475 8.12185 11.1207C8.10512 11.2633 8.13048 11.4075 8.19502 11.5368C8.25956 11.6662 8.36066 11.7753 8.48671 11.8518C7.9864 12.5914 7.5577 13.3738 7.20604 14.189C7.36083 13.6952 7.41291 13.1769 7.35928 12.6637C7.2628 12.1848 7.12488 11.7145 6.94698 11.2578C6.94698 11.2578 6.38509 13.2471 6.54198 14.0027C6.55292 14.1405 6.60342 14.2726 6.68782 14.3844C6.77223 14.4961 6.88722 14.583 7.01996 14.6354C6.73764 15.3534 6.51319 16.0913 6.3486 16.8426C6.37694 16.4402 6.32745 16.0362 6.20266 15.6511C6.02112 15.2072 5.80016 14.7792 5.54225 14.3718C5.54225 14.3718 5.35982 16.4419 5.65171 17.1449C5.8159 17.5455 6.06766 17.6369 6.19536 17.658C6.06231 18.4588 5.99521 19.2686 5.99469 20.0796C5.99469 20.2659 5.99469 20.4522 5.99469 20.6384C5.94289 20.022 5.75638 19.4232 5.44739 18.8811C5.16257 18.5014 4.84129 18.1484 4.48779 17.8267C4.48779 17.8267 4.83077 19.8757 5.28685 20.4732C5.60428 20.8915 5.93996 20.8247 6.01658 20.8001C6.0954 22.5599 6.52784 24.2882 7.28996 25.8893C7.0896 25.5573 6.82001 25.2689 6.4982 25.0423C6.10136 24.8211 5.682 24.6397 5.24671 24.501C5.24671 24.501 6.30482 26.2408 6.93604 26.5923C7.0429 26.6646 7.17031 26.7034 7.3009 26.7034C7.43149 26.7034 7.5589 26.6646 7.66577 26.5923C8.09616 27.3512 8.60204 28.068 9.17631 28.7327C8.889 28.4646 8.54571 28.2585 8.16928 28.1282C7.73116 28.02 7.28222 27.9575 6.83023 27.9419C6.83023 27.9419 8.28969 29.3478 8.97563 29.5059C9.10358 29.5515 9.24329 29.5567 9.3745 29.5207C9.5057 29.4847 9.62159 29.4093 9.70536 29.3056C9.80752 29.411 9.90604 29.5165 10.0082 29.6184C10.3954 29.9898 10.8021 30.3417 11.2268 30.6728C10.9167 30.4885 10.5699 30.3688 10.2089 30.3213C9.75538 30.2977 9.30058 30.3189 8.85158 30.3846C8.85158 30.3846 10.5117 31.4987 11.2414 31.5339C11.3775 31.5516 11.516 31.5296 11.6389 31.4707C11.7619 31.4118 11.8636 31.3187 11.931 31.2035C12.5519 31.6354 13.2015 32.0276 13.8758 32.3774C13.385 32.1276 12.84 31.9927 12.285 31.9838C11.8226 32.0329 11.3666 32.1271 10.924 32.2649C10.924 32.2649 12.7775 33.0979 13.5291 33.0136C13.6776 33.012 13.8218 32.9653 13.9411 32.8801C14.0603 32.7949 14.1486 32.6755 14.1932 32.5391C14.871 32.8735 15.5691 33.1681 16.2839 33.4213C15.7401 33.2587 15.1662 33.212 14.6018 33.2842C14.132 33.4007 13.675 33.5608 13.2373 33.7622C13.2373 33.7622 15.3097 34.3105 16.0832 34.1136C16.2321 34.0945 16.3712 34.0315 16.4815 33.9334C16.5919 33.8353 16.6681 33.7068 16.6998 33.5654C17.6282 33.8724 18.578 34.1156 19.5421 34.2929C20.1209 34.3939 20.6871 34.5529 21.2314 34.7674C20.6634 35.0121 20.1437 35.3498 19.6954 35.7655L19.8158 35.8007C20.2729 35.3937 20.7985 35.0645 21.3701 34.8271C21.9407 35.0716 22.4639 35.4079 22.9171 35.8218L23.0375 35.7866C22.5931 35.3641 22.0758 35.0192 21.5087 34.7674C22.0553 34.5512 22.624 34.391 23.2054 34.2894C24.1696 34.1125 25.1195 33.8694 26.0477 33.5618C26.0794 33.7032 26.1556 33.8318 26.266 33.9299C26.3763 34.028 26.5154 34.091 26.6643 34.1101C27.4378 34.307 29.5102 33.7587 29.5102 33.7587C29.0725 33.5572 28.6155 33.3972 28.1456 33.2807C27.5813 33.2084 27.0074 33.2552 26.4636 33.4177C27.1783 33.1646 27.8765 32.87 28.5543 32.5356C28.5989 32.672 28.6871 32.7913 28.8064 32.8766C28.9257 32.9618 29.0698 33.0085 29.2183 33.01C29.97 33.0944 31.8235 32.2614 31.8235 32.2614C31.3809 32.1236 30.9249 32.0293 30.4625 31.9802C29.9076 31.9896 29.3626 32.1244 28.8717 32.3739C29.546 32.0241 30.1956 31.6319 30.8164 31.2C30.8839 31.3152 30.9856 31.4083 31.1086 31.4672C31.2315 31.5261 31.37 31.5481 31.506 31.5304C32.2358 31.4952 33.8923 30.3776 33.8923 30.3776C33.4432 30.3119 32.9884 30.2907 32.535 30.3143C32.1739 30.3618 31.8271 30.4815 31.517 30.6658C31.9417 30.3347 32.3485 29.9828 32.7356 29.6114C32.8378 29.5094 32.9363 29.404 33.0385 29.2986C33.1222 29.4023 33.2381 29.4776 33.3693 29.5137C33.5005 29.5497 33.6402 29.5445 33.7682 29.4989C34.4687 29.3337 35.9136 27.9349 35.9136 27.9349C35.4628 27.9504 35.0151 28.0129 34.5782 28.1211C34.2003 28.2506 33.8556 28.4568 33.5675 28.7257C34.1418 28.061 34.6477 27.3441 35.0781 26.5852C35.1849 26.6575 35.3123 26.6963 35.4429 26.6963C35.5735 26.6963 35.7009 26.6575 35.8078 26.5852C36.439 26.2338 37.4971 24.494 37.4971 24.494C37.0618 24.6327 36.6425 24.8141 36.2456 25.0353C35.9249 25.2588 35.6554 25.5436 35.4539 25.8718Z" fill="url(#paint6_radial_552_289)"/>
<path d="M10.1105 10.8396C9.38076 10.9135 8.62549 11.9482 8.62549 11.9482C8.72404 12.0415 8.84801 12.1059 8.98299 12.134C9.11798 12.162 9.25844 12.1525 9.38806 12.1066C10.0375 11.9236 11.3948 10.9874 11.3948 10.9874C10.9803 10.8602 10.5444 10.81 10.1105 10.8396Z" fill="url(#paint7_radial_552_289)"/>
<path d="M6.49835 23.7953C6.49835 23.7953 6.16632 22.5507 5.59348 22.0375C5.2439 21.733 4.86519 21.4611 4.4624 21.2254C4.4624 21.2254 5.19213 23.1625 5.73213 23.6476C5.82291 23.7531 5.94858 23.8254 6.08808 23.8523C6.22758 23.8792 6.37243 23.859 6.49835 23.7953Z" fill="url(#paint8_radial_552_289)"/>
<path d="M20.1515 6.43717L21.1403 5.83937L22.1291 6.43717L21.8445 5.34356L22.7421 4.62269L21.5745 4.54533L21.1403 3.50095L20.7061 4.54533L19.5386 4.62269L20.4361 5.34356L20.1515 6.43717Z" fill="url(#paint9_radial_552_289)"/>
<path d="M14.4302 6.99817L14.5506 7.57816L14.879 7.07902L15.4846 7.14932L15.0942 6.69236L15.3533 6.15806L14.7804 6.37248L14.3317 5.97528L14.3719 6.5623L13.8354 6.85054L14.4302 6.99817Z" fill="url(#paint10_radial_552_289)"/>
<path d="M16.999 6.66119L17.5682 6.04948L18.3891 6.27799L17.9622 5.56434L18.4402 4.88584L17.6046 5.05458L17.0829 4.40421L16.9917 5.22684L16.189 5.50457L16.9698 5.83855L16.999 6.66119Z" fill="url(#paint11_radial_552_289)"/>
<path d="M27.3613 7.07902L27.6897 7.57816L27.8101 6.99817L28.4011 6.85054L27.8684 6.5623L27.9049 5.97528L27.4561 6.37248L26.887 6.15806L27.1424 6.69236L26.752 7.14932L27.3613 7.07902Z" fill="url(#paint12_radial_552_289)"/>
<path d="M23.8511 6.27799L24.6721 6.04948L25.2413 6.66119L25.2704 5.83855L26.0512 5.50457L25.2449 5.22684L25.1573 4.40421L24.6319 5.05458L23.7964 4.88584L24.278 5.56434L23.8511 6.27799Z" fill="url(#paint13_radial_552_289)"/>
<g style="mix-blend-mode:multiply">
<path d="M34.115 12.1275C34.115 12.1275 33.3525 11.0927 32.63 11.0188C32.1961 10.9893 31.7603 11.0394 31.3457 11.1667C31.3457 11.1667 32.703 12.1029 33.3525 12.2859C33.4821 12.3318 33.6225 12.3412 33.7575 12.3132C33.8925 12.2852 34.0165 12.2208 34.115 12.1275Z" fill="url(#paint14_linear_552_289)"/>
<path d="M36.2417 23.9717C36.368 24.0351 36.5131 24.0546 36.6527 24.0271C36.7922 23.9996 36.9176 23.9266 37.0079 23.8205C37.5625 23.3352 38.2776 21.3976 38.2776 21.3976C37.8739 21.632 37.495 21.9041 37.1466 22.2099C36.5737 22.7304 36.2417 23.9717 36.2417 23.9717Z" fill="url(#paint15_linear_552_289)"/>
<path d="M35.4537 26.051C36.2154 24.4485 36.6479 22.7191 36.7271 20.9583C36.7855 20.9794 37.1212 21.0532 37.4569 20.6314C37.9093 20.0374 38.2523 17.9849 38.2523 17.9849C37.8984 18.3062 37.5771 18.6593 37.2927 19.0393C36.9837 19.5813 36.7972 20.1802 36.7454 20.7966C36.7454 20.6138 36.7454 20.4451 36.7454 20.2413C36.7448 19.4302 36.6777 18.6205 36.5447 17.8197C36.6724 17.7986 36.9096 17.7072 37.0883 17.3065C37.3802 16.6036 37.1978 14.53 37.1978 14.53C36.9394 14.9383 36.7185 15.3675 36.5374 15.8128C36.4124 16.1978 36.3629 16.6018 36.3914 17.0043C36.226 16.2578 36.0015 15.5246 35.7201 14.8111C35.8528 14.7587 35.9678 14.6718 36.0522 14.5601C36.1366 14.4484 36.1871 14.3163 36.1981 14.1785C36.3586 13.4263 35.7931 11.4371 35.7931 11.4371C35.6146 11.8936 35.4766 12.3639 35.3808 12.8429C35.3273 13.3561 35.3794 13.8745 35.534 14.3683C35.1823 13.5531 34.7537 12.7707 34.2533 12.031C34.3788 11.954 34.4794 11.8447 34.5439 11.7156C34.6083 11.5864 34.6341 11.4425 34.6182 11.3C34.6182 10.5268 33.6659 8.69913 33.6659 8.69913C33.5826 9.17998 33.5411 9.66669 33.5419 10.1542C33.6122 10.754 33.8109 11.3333 34.1256 11.8553C33.8068 11.3895 33.4596 10.9424 33.0858 10.5162C32.8682 9.93223 32.4515 9.4366 31.9036 9.11034C31.1074 8.65753 30.2739 8.26844 29.4116 7.94699C29.4116 7.94699 31.0754 9.47587 31.9364 10.1015C32.263 10.3503 32.634 10.5397 33.031 10.6603C34.0361 11.7943 34.8488 13.0742 35.4391 14.4526C35.227 14.0428 34.8843 13.7091 34.4613 13.5002C34.052 13.3785 33.622 13.3343 33.1952 13.3701C33.1952 13.3701 34.319 14.5721 34.9137 14.8884C35.0211 14.9561 35.1451 14.9953 35.2732 15.0021C35.4013 15.0089 35.529 14.983 35.6435 14.9271C35.9896 15.8145 36.2485 16.7311 36.417 17.665C36.2966 17.2925 36.001 16.5122 35.534 16.2381C35.1598 16.0341 34.7487 15.9005 34.3227 15.8444C34.3227 15.8444 35.1983 17.2503 35.7201 17.6967C35.8133 17.7876 35.9305 17.8524 36.0591 17.884C36.1877 17.9156 36.3228 17.9128 36.4498 17.8759C36.5768 18.6608 36.6415 19.4539 36.6432 20.2483C36.6432 20.4838 36.6432 20.7193 36.6432 20.9512C36.6432 20.7861 36.5119 19.6297 36.0047 19.1763C35.6772 18.897 35.2986 18.6789 34.8882 18.5332C34.8882 18.5332 35.4939 20.1042 35.9354 20.642C36.0088 20.7557 36.1144 20.847 36.2398 20.9049C36.3652 20.9628 36.5051 20.985 36.6432 20.9688C36.5917 21.9582 36.4315 22.9396 36.1652 23.8965C36.1871 23.6329 36.2382 22.5785 35.8405 22.0584C35.5681 21.715 35.2346 21.4211 34.8554 21.1902C34.9987 21.9743 35.2211 22.7429 35.5194 23.4853C35.5714 23.6113 35.6572 23.7217 35.7682 23.8051C35.8791 23.8885 36.0111 23.9419 36.1506 23.9598C35.8985 24.84 35.5525 25.6928 35.1181 26.5044C35.2056 26.1037 35.326 25.3165 35.0779 24.8244C34.8686 24.4314 34.5923 24.075 34.2606 23.77C34.2661 24.5737 34.3504 25.3751 34.5124 26.1635C34.5387 26.2849 34.5921 26.3994 34.669 26.499C34.7459 26.5985 34.8443 26.6807 34.9575 26.7399C34.4365 27.6579 33.8046 28.5132 33.0748 29.288C33.2281 28.9366 33.5419 28.1352 33.3777 27.5658C33.2437 27.1316 33.0379 26.721 32.7683 26.3498C32.6262 27.1424 32.5615 27.946 32.575 28.7503C32.5807 28.8817 32.6163 29.0102 32.6794 29.1268C32.7424 29.2435 32.8313 29.3453 32.9398 29.4251L32.6479 29.7238C32.139 30.219 31.5926 30.6772 31.0133 31.0946C31.3545 30.7054 31.5667 30.2268 31.6227 29.7203C31.6068 29.2607 31.5157 28.8064 31.3527 28.3742C31.0039 29.0977 30.7254 29.8507 30.5208 30.6236C30.4932 30.747 30.4919 30.8744 30.5169 30.9983C30.542 31.1221 30.593 31.2398 30.6667 31.3441C30.0174 31.792 29.3358 32.1949 28.6271 32.5496C28.9081 32.3528 29.6633 31.7694 29.791 31.1438C29.8682 30.6887 29.8682 30.2246 29.791 29.7695C29.2861 30.4001 28.8428 31.0743 28.4666 31.7834C28.4035 31.9112 28.3735 32.0519 28.3793 32.1933C28.385 32.3347 28.4262 32.4726 28.4994 32.5953C27.7637 32.9584 27.0044 33.2753 26.2263 33.5443C26.5912 33.3615 27.3939 32.9222 27.6128 32.3774C27.7756 31.9448 27.8583 31.488 27.8573 31.0278C27.2273 31.5727 26.6486 32.1702 26.1278 32.8132C26.0398 32.9266 25.9833 33.0596 25.9635 33.1998C25.9437 33.34 25.9613 33.4827 26.0147 33.6146C25.0852 33.9277 24.1327 34.1732 23.1651 34.3491C21.3408 34.7006 20.2717 35.3684 19.6733 35.9307L19.7937 35.9694C20.3885 35.4246 21.4283 34.7779 23.1833 34.4546C24.1484 34.281 25.0985 34.0378 26.0256 33.727C26.0567 33.8691 26.1326 33.9984 26.243 34.0972C26.3535 34.196 26.4929 34.2595 26.6423 34.2788C27.4158 34.4757 29.4882 33.9274 29.4882 33.9274C29.0512 33.7242 28.594 33.5641 28.1236 33.4494C27.5592 33.3772 26.9853 33.4239 26.4416 33.5865C27.1557 33.3318 27.8538 33.0373 28.5323 32.7043C28.577 32.8403 28.6654 32.9592 28.7847 33.0438C28.904 33.1285 29.0481 33.1745 29.1963 33.1752C29.9479 33.2631 31.8014 32.4301 31.8014 32.4301C31.3594 32.2904 30.9032 32.1961 30.4405 32.149C29.8861 32.1589 29.3416 32.2924 28.8497 32.5391C29.5239 32.1905 30.1735 31.7995 30.7944 31.3687C30.8623 31.4833 30.9643 31.5756 31.0872 31.6339C31.2101 31.6922 31.3483 31.7136 31.484 31.6956C32.2137 31.6639 33.8702 30.5463 33.8702 30.5463C33.4214 30.4786 32.9664 30.4574 32.5129 30.483C32.1515 30.5288 31.8044 30.6487 31.495 30.8345C31.9197 30.5033 32.3264 30.1514 32.7136 29.7801L33.0164 29.4708C33.1006 29.5741 33.2165 29.6491 33.3475 29.6851C33.4786 29.7211 33.6182 29.7162 33.7462 29.6711C34.4467 29.5059 35.8916 28.1071 35.8916 28.1071C35.441 28.1225 34.9934 28.1837 34.5562 28.2899C34.1774 28.4193 33.8325 28.6268 33.5455 28.8979C34.1206 28.2326 34.6265 27.5145 35.056 26.7539C35.1629 26.8262 35.2903 26.865 35.4209 26.865C35.5515 26.865 35.6789 26.8262 35.7858 26.7539C36.417 26.4025 37.4751 24.6452 37.4751 24.6452C37.0401 24.7859 36.6208 24.9684 36.2236 25.1899C35.9073 25.4219 35.645 25.7153 35.4537 26.051Z" fill="url(#paint16_linear_552_289)"/>
</g>
<g style="mix-blend-mode:multiply">
<path d="M34.115 12.1275C34.115 12.1275 33.3525 11.0927 32.63 11.0188C32.1961 10.9893 31.7603 11.0394 31.3457 11.1667C31.3457 11.1667 32.703 12.1029 33.3525 12.2859C33.4821 12.3318 33.6225 12.3412 33.7575 12.3132C33.8925 12.2852 34.0165 12.2208 34.115 12.1275Z" fill="url(#paint17_linear_552_289)"/>
<path d="M36.2417 23.9717C36.368 24.0351 36.5131 24.0546 36.6527 24.0271C36.7922 23.9996 36.9176 23.9266 37.0079 23.8205C37.5625 23.3352 38.2776 21.3976 38.2776 21.3976C37.8739 21.632 37.495 21.9041 37.1466 22.2099C36.5737 22.7304 36.2417 23.9717 36.2417 23.9717Z" fill="url(#paint18_linear_552_289)"/>
<path d="M35.4537 26.051C36.2154 24.4485 36.6479 22.7191 36.7271 20.9583C36.7855 20.9794 37.1212 21.0532 37.4569 20.6314C37.9093 20.0374 38.2523 17.9849 38.2523 17.9849C37.8984 18.3062 37.5771 18.6593 37.2927 19.0393C36.9837 19.5813 36.7972 20.1802 36.7454 20.7966C36.7454 20.6138 36.7454 20.4451 36.7454 20.2413C36.7448 19.4302 36.6777 18.6205 36.5447 17.8197C36.6724 17.7986 36.9096 17.7072 37.0883 17.3065C37.3802 16.6036 37.1978 14.53 37.1978 14.53C36.9394 14.9383 36.7185 15.3675 36.5374 15.8128C36.4124 16.1978 36.3629 16.6018 36.3914 17.0043C36.226 16.2578 36.0015 15.5246 35.7201 14.8111C35.8528 14.7587 35.9678 14.6718 36.0522 14.5601C36.1366 14.4484 36.1871 14.3163 36.1981 14.1785C36.3586 13.4263 35.7931 11.4371 35.7931 11.4371C35.6146 11.8936 35.4766 12.3639 35.3808 12.8429C35.3273 13.3561 35.3794 13.8745 35.534 14.3683C35.1823 13.5531 34.7537 12.7707 34.2533 12.031C34.3788 11.954 34.4794 11.8447 34.5439 11.7156C34.6083 11.5864 34.6341 11.4425 34.6182 11.3C34.6182 10.5268 33.6659 8.69913 33.6659 8.69913C33.5826 9.17998 33.5411 9.66669 33.5419 10.1542C33.6122 10.754 33.8109 11.3333 34.1256 11.8553C33.8068 11.3895 33.4596 10.9424 33.0858 10.5162C32.8682 9.93223 32.4515 9.4366 31.9036 9.11034C31.1074 8.65753 30.2739 8.26844 29.4116 7.94699C29.4116 7.94699 31.0754 9.47587 31.9364 10.1015C32.263 10.3503 32.634 10.5397 33.031 10.6603C34.0361 11.7943 34.8488 13.0742 35.4391 14.4526C35.227 14.0428 34.8843 13.7091 34.4613 13.5002C34.052 13.3785 33.622 13.3343 33.1952 13.3701C33.1952 13.3701 34.319 14.5721 34.9137 14.8884C35.0211 14.9561 35.1451 14.9953 35.2732 15.0021C35.4013 15.0089 35.529 14.983 35.6435 14.9271C35.9896 15.8145 36.2485 16.7311 36.417 17.665C36.2966 17.2925 36.001 16.5122 35.534 16.2381C35.1598 16.0341 34.7487 15.9005 34.3227 15.8444C34.3227 15.8444 35.1983 17.2503 35.7201 17.6967C35.8133 17.7876 35.9305 17.8524 36.0591 17.884C36.1877 17.9156 36.3228 17.9128 36.4498 17.8759C36.5768 18.6608 36.6415 19.4539 36.6432 20.2483C36.6432 20.4838 36.6432 20.7193 36.6432 20.9512C36.6432 20.7861 36.5119 19.6297 36.0047 19.1763C35.6772 18.897 35.2986 18.6789 34.8882 18.5332C34.8882 18.5332 35.4939 20.1042 35.9354 20.642C36.0088 20.7557 36.1144 20.847 36.2398 20.9049C36.3652 20.9628 36.5051 20.985 36.6432 20.9688C36.5917 21.9582 36.4315 22.9396 36.1652 23.8965C36.1871 23.6329 36.2382 22.5785 35.8405 22.0584C35.5681 21.715 35.2346 21.4211 34.8554 21.1902C34.9987 21.9743 35.2211 22.7429 35.5194 23.4853C35.5714 23.6113 35.6572 23.7217 35.7682 23.8051C35.8791 23.8885 36.0111 23.9419 36.1506 23.9598C35.8985 24.84 35.5525 25.6928 35.1181 26.5044C35.2056 26.1037 35.326 25.3165 35.0779 24.8244C34.8686 24.4314 34.5923 24.075 34.2606 23.77C34.2661 24.5737 34.3504 25.3751 34.5124 26.1635C34.5387 26.2849 34.5921 26.3994 34.669 26.499C34.7459 26.5985 34.8443 26.6807 34.9575 26.7399C34.4365 27.6579 33.8046 28.5132 33.0748 29.288C33.2281 28.9366 33.5419 28.1352 33.3777 27.5658C33.2437 27.1316 33.0379 26.721 32.7683 26.3498C32.6262 27.1424 32.5615 27.946 32.575 28.7503C32.5807 28.8817 32.6163 29.0102 32.6794 29.1268C32.7424 29.2435 32.8313 29.3453 32.9398 29.4251L32.6479 29.7238C32.139 30.219 31.5926 30.6772 31.0133 31.0946C31.3545 30.7054 31.5667 30.2268 31.6227 29.7203C31.6068 29.2607 31.5157 28.8064 31.3527 28.3742C31.0039 29.0977 30.7254 29.8507 30.5208 30.6236C30.4932 30.747 30.4919 30.8744 30.5169 30.9983C30.542 31.1221 30.593 31.2398 30.6667 31.3441C30.0174 31.792 29.3358 32.1949 28.6271 32.5496C28.9081 32.3528 29.6633 31.7694 29.791 31.1438C29.8682 30.6887 29.8682 30.2246 29.791 29.7695C29.2861 30.4001 28.8428 31.0743 28.4666 31.7834C28.4035 31.9112 28.3735 32.0519 28.3793 32.1933C28.385 32.3347 28.4262 32.4726 28.4994 32.5953C27.7637 32.9584 27.0044 33.2753 26.2263 33.5443C26.5912 33.3615 27.3939 32.9222 27.6128 32.3774C27.7756 31.9448 27.8583 31.488 27.8573 31.0278C27.2273 31.5727 26.6486 32.1702 26.1278 32.8132C26.0398 32.9266 25.9833 33.0596 25.9635 33.1998C25.9437 33.34 25.9613 33.4827 26.0147 33.6146C25.0852 33.9277 24.1327 34.1732 23.1651 34.3491C21.3408 34.7006 20.2717 35.3684 19.6733 35.9307L19.7937 35.9694C20.3885 35.4246 21.4283 34.7779 23.1833 34.4546C24.1484 34.281 25.0985 34.0378 26.0256 33.727C26.0567 33.8691 26.1326 33.9984 26.243 34.0972C26.3535 34.196 26.4929 34.2595 26.6423 34.2788C27.4158 34.4757 29.4882 33.9274 29.4882 33.9274C29.0512 33.7242 28.594 33.5641 28.1236 33.4494C27.5592 33.3772 26.9853 33.4239 26.4416 33.5865C27.1557 33.3318 27.8538 33.0373 28.5323 32.7043C28.577 32.8403 28.6654 32.9592 28.7847 33.0438C28.904 33.1285 29.0481 33.1745 29.1963 33.1752C29.9479 33.2631 31.8014 32.4301 31.8014 32.4301C31.3594 32.2904 30.9032 32.1961 30.4405 32.149C29.8861 32.1589 29.3416 32.2924 28.8497 32.5391C29.5239 32.1905 30.1735 31.7995 30.7944 31.3687C30.8623 31.4833 30.9643 31.5756 31.0872 31.6339C31.2101 31.6922 31.3483 31.7136 31.484 31.6956C32.2137 31.6639 33.8702 30.5463 33.8702 30.5463C33.4214 30.4786 32.9664 30.4574 32.5129 30.483C32.1515 30.5288 31.8044 30.6487 31.495 30.8345C31.9197 30.5033 32.3264 30.1514 32.7136 29.7801L33.0164 29.4708C33.1006 29.5741 33.2165 29.6491 33.3475 29.6851C33.4786 29.7211 33.6182 29.7162 33.7462 29.6711C34.4467 29.5059 35.8916 28.1071 35.8916 28.1071C35.441 28.1225 34.9934 28.1837 34.5562 28.2899C34.1774 28.4193 33.8325 28.6268 33.5455 28.8979C34.1206 28.2326 34.6265 27.5145 35.056 26.7539C35.1629 26.8262 35.2903 26.865 35.4209 26.865C35.5515 26.865 35.6789 26.8262 35.7858 26.7539C36.417 26.4025 37.4751 24.6452 37.4751 24.6452C37.0401 24.7859 36.6208 24.9684 36.2236 25.1899C35.9073 25.4219 35.645 25.7153 35.4537 26.051Z" fill="url(#paint19_linear_552_289)"/>
</g>
<g style="mix-blend-mode:multiply">
<path d="M8.53125 12.1275C8.53125 12.1275 9.29382 11.0927 10.0162 11.0188C10.4502 10.9892 10.886 11.0394 11.3006 11.1666C11.3006 11.1666 9.94328 12.1028 9.29382 12.2858C9.1642 12.3317 9.02374 12.3412 8.88875 12.3132C8.75377 12.2851 8.6298 12.2207 8.53125 12.1275Z" fill="url(#paint20_linear_552_289)"/>
<path d="M6.40362 23.971C6.27731 24.0344 6.1322 24.054 5.99267 24.0264C5.85314 23.9989 5.7277 23.9259 5.63741 23.8198C5.08281 23.3347 4.36768 21.4117 4.36768 21.4117C4.77144 21.646 5.15029 21.918 5.49876 22.2238C6.07159 22.73 6.40362 23.971 6.40362 23.971Z" fill="url(#paint21_linear_552_289)"/>
<path d="M7.19158 26.051C6.42989 24.4485 5.99747 22.7191 5.9182 20.9583C5.85982 20.9793 5.52415 21.0532 5.18847 20.6314C4.73604 20.0374 4.39307 17.9849 4.39307 17.9849C4.74694 18.3062 5.06826 18.6592 5.35266 19.0393C5.66166 19.5813 5.84817 20.1802 5.89996 20.7966C5.89996 20.6138 5.89996 20.4451 5.89996 20.2413C5.90048 19.4302 5.96758 18.6205 6.10063 17.8197C5.97293 17.7986 5.73577 17.7072 5.55699 17.3065C5.26509 16.6036 5.44753 14.5299 5.44753 14.5299C5.7059 14.9383 5.92687 15.3675 6.10793 15.8128C6.23289 16.1978 6.28238 16.6018 6.25388 17.0043C6.41937 16.2578 6.64381 15.5246 6.92523 14.8111C6.7925 14.7587 6.67751 14.6718 6.5931 14.5601C6.50869 14.4484 6.4582 14.3162 6.44726 14.1785C6.28672 13.4263 6.85226 11.437 6.85226 11.437C7.03077 11.8936 7.16869 12.3639 7.26455 12.8429C7.31994 13.3608 7.26785 13.884 7.11131 14.3823C7.46298 13.5671 7.89167 12.7847 8.39199 12.0451C8.26655 11.968 8.16593 11.8588 8.10147 11.7296C8.03701 11.6004 8.01126 11.4565 8.02712 11.314C8.02712 10.5408 8.97942 8.71318 8.97942 8.71318C9.06133 9.19297 9.1016 9.6785 9.09982 10.1647C9.02953 10.7646 8.83074 11.3438 8.51604 11.8658C8.83571 11.3964 9.18417 10.9457 9.55955 10.5162C9.7771 9.93222 10.1939 9.4366 10.7417 9.11034C11.5379 8.65753 12.3714 8.26844 13.2337 7.94699C13.2337 7.94699 11.57 9.46181 10.7089 10.0839C10.3823 10.3327 10.0114 10.5221 9.61428 10.6427C8.60921 11.7767 7.79649 13.0566 7.20618 14.435C7.41835 14.0252 7.76098 13.6915 8.18401 13.4826C8.59336 13.3609 9.02331 13.3167 9.45009 13.3525C9.45009 13.3525 8.32266 14.5545 7.72428 14.8709C7.61692 14.9385 7.49292 14.9777 7.3648 14.9845C7.23669 14.9913 7.10898 14.9654 6.99455 14.9095C6.6486 15.8027 6.39084 16.7253 6.22469 17.665C6.34509 17.2925 6.64063 16.5122 7.10766 16.2381C7.48302 16.0337 7.89538 15.9001 8.32266 15.8444C8.32266 15.8444 7.44699 17.2503 6.92523 17.6967C6.83201 17.7876 6.7148 17.8524 6.58622 17.884C6.45764 17.9155 6.32256 17.9128 6.1955 17.8759C6.06849 18.6608 6.00384 19.4539 6.00212 20.2483C6.00212 20.4838 6.00212 20.7193 6.02036 20.9512C6.02036 20.786 6.15172 19.6297 6.65888 19.1763C6.98634 18.897 7.36496 18.6789 7.77536 18.5331C7.77536 18.5331 7.16969 20.1042 6.7282 20.6419C6.65509 20.7551 6.55006 20.846 6.42537 20.9039C6.30069 20.9617 6.16149 20.9843 6.02401 20.9688C6.07199 21.9606 6.23102 22.9446 6.49834 23.9035C6.47645 23.6399 6.42536 22.5855 6.82307 22.0654C7.09543 21.722 7.429 21.4281 7.8082 21.1973C7.66491 21.9813 7.44251 22.7499 7.14415 23.4923C7.0922 23.6183 7.00634 23.7287 6.89539 23.8121C6.78444 23.8955 6.65243 23.9489 6.51293 23.9668C6.76505 24.8471 7.11109 25.6998 7.5455 26.5114C7.45793 26.1108 7.33753 25.3235 7.58563 24.8314C7.79501 24.4384 8.07127 24.082 8.40293 23.777C8.39742 24.5807 8.31313 25.3821 8.15118 26.1705C8.12129 26.2949 8.06285 26.4112 7.98013 26.511C7.89741 26.6107 7.79253 26.6914 7.6732 26.7469C8.1942 27.6649 8.82616 28.5202 9.55591 29.295C9.40266 28.9436 9.08888 28.1422 9.25307 27.5729C9.38706 27.1386 9.5928 26.728 9.86239 26.3568C10.0045 27.1494 10.0693 27.9531 10.0558 28.7573C10.0501 28.8887 10.0144 29.0172 9.95137 29.1339C9.88831 29.2505 9.79939 29.3523 9.69091 29.4321L9.9828 29.7309C10.4885 30.2232 11.0312 30.679 11.6064 31.0946C11.2653 30.7054 11.0531 30.2268 10.9971 29.7203C11.013 29.2607 11.1041 28.8064 11.2671 28.3742C11.6159 29.098 11.8956 29.8509 12.1027 30.6236C12.1318 30.746 12.1351 30.8729 12.1126 30.9966C12.09 31.1204 12.042 31.2385 11.9713 31.3441C12.6206 31.792 13.3022 32.1949 14.0109 32.5496C13.73 32.3528 12.9747 31.7694 12.847 31.1438C12.7698 30.6887 12.7698 30.2246 12.847 29.7695C13.3489 30.405 13.7886 31.0839 14.1605 31.7975C14.2245 31.925 14.255 32.0658 14.2493 32.2074C14.2435 32.3489 14.2018 32.487 14.1277 32.6094C14.8634 32.9724 15.6227 33.2894 16.4008 33.5583C16.0359 33.3756 15.2332 32.9362 15.0143 32.3915C14.8515 31.9588 14.7688 31.502 14.7698 31.0418C15.3997 31.5868 15.9785 32.1843 16.4993 32.8273C16.5882 32.9402 16.6453 33.0732 16.6652 33.2136C16.685 33.354 16.6668 33.497 16.6124 33.6286C17.542 33.9413 18.4945 34.1868 19.462 34.3632C21.2863 34.7147 22.3554 35.3824 22.9537 35.9448L22.8333 35.9834C22.2386 35.4387 21.1987 34.792 19.4437 34.4686C18.4788 34.2947 17.5287 34.0515 16.6014 33.7411C16.5704 33.8831 16.4945 34.0125 16.384 34.1113C16.2736 34.2101 16.1342 34.2735 15.9848 34.2929C15.2113 34.4897 13.1389 33.9414 13.1389 33.9414C13.5759 33.7382 14.0331 33.5781 14.5035 33.4634C15.0678 33.3912 15.6418 33.438 16.1855 33.6005C15.4714 33.3459 14.7733 33.0513 14.0948 32.7183C14.0501 32.8544 13.9617 32.9733 13.8424 33.0579C13.723 33.1425 13.5789 33.1885 13.4308 33.1893C12.6791 33.2772 10.8256 32.4442 10.8256 32.4442C11.2677 32.3044 11.7239 32.2102 12.1866 32.163C12.7411 32.1725 13.2857 32.306 13.7774 32.5531C13.1032 32.2045 12.4536 31.8135 11.8327 31.3828C11.7647 31.4973 11.6628 31.5897 11.5399 31.648C11.4169 31.7062 11.2788 31.7277 11.1431 31.7096C10.4133 31.678 8.75685 30.5603 8.75685 30.5603C9.20564 30.4927 9.66067 30.4714 10.1141 30.4971C10.4756 30.5429 10.8227 30.6627 11.1321 30.8485C10.7074 30.5174 10.3007 30.1655 9.91347 29.7941L9.60699 29.4954C9.52286 29.5987 9.40696 29.6737 9.27589 29.7097C9.14481 29.7457 9.00528 29.7408 8.87726 29.6957C8.17672 29.5305 6.73185 28.1317 6.73185 28.1317C7.18243 28.1471 7.63006 28.2083 8.06726 28.3144C8.44606 28.4439 8.79098 28.6514 9.07793 28.9225C8.51149 28.255 8.01413 27.5357 7.59293 26.775C7.48606 26.8473 7.35865 26.8861 7.22807 26.8861C7.09748 26.8861 6.97007 26.8473 6.8632 26.775C6.23199 26.4236 5.17388 24.6662 5.17388 24.6662C5.60892 24.807 6.02818 24.9895 6.42536 25.211C6.73804 25.4372 6.99888 25.7232 7.19158 26.051Z" fill="url(#paint22_linear_552_289)"/>
</g>
<g style="mix-blend-mode:multiply">
<path d="M8.53125 12.1275C8.53125 12.1275 9.29382 11.0927 10.0162 11.0188C10.4502 10.9892 10.886 11.0394 11.3006 11.1666C11.3006 11.1666 9.94328 12.1028 9.29382 12.2858C9.1642 12.3317 9.02374 12.3412 8.88875 12.3132C8.75377 12.2851 8.6298 12.2207 8.53125 12.1275Z" fill="url(#paint23_linear_552_289)"/>
<path d="M6.40362 23.971C6.27731 24.0344 6.1322 24.054 5.99267 24.0264C5.85314 23.9989 5.7277 23.9259 5.63741 23.8198C5.08281 23.3347 4.36768 21.4117 4.36768 21.4117C4.77144 21.646 5.15029 21.918 5.49876 22.2238C6.07159 22.73 6.40362 23.971 6.40362 23.971Z" fill="url(#paint24_linear_552_289)"/>
<path d="M7.19158 26.051C6.42989 24.4485 5.99747 22.7191 5.9182 20.9583C5.85982 20.9793 5.52415 21.0532 5.18847 20.6314C4.73604 20.0374 4.39307 17.9849 4.39307 17.9849C4.74694 18.3062 5.06826 18.6592 5.35266 19.0393C5.66166 19.5813 5.84817 20.1802 5.89996 20.7966C5.89996 20.6138 5.89996 20.4451 5.89996 20.2413C5.90048 19.4302 5.96758 18.6205 6.10063 17.8197C5.97293 17.7986 5.73577 17.7072 5.55699 17.3065C5.26509 16.6036 5.44753 14.5299 5.44753 14.5299C5.7059 14.9383 5.92687 15.3675 6.10793 15.8128C6.23289 16.1978 6.28238 16.6018 6.25388 17.0043C6.41937 16.2578 6.64381 15.5246 6.92523 14.8111C6.7925 14.7587 6.67751 14.6718 6.5931 14.5601C6.50869 14.4484 6.4582 14.3162 6.44726 14.1785C6.28672 13.4263 6.85226 11.437 6.85226 11.437C7.03077 11.8936 7.16869 12.3639 7.26455 12.8429C7.31994 13.3608 7.26785 13.884 7.11131 14.3823C7.46298 13.5671 7.89167 12.7847 8.39199 12.0451C8.26655 11.968 8.16593 11.8588 8.10147 11.7296C8.03701 11.6004 8.01126 11.4565 8.02712 11.314C8.02712 10.5408 8.97942 8.71318 8.97942 8.71318C9.06133 9.19297 9.1016 9.6785 9.09982 10.1647C9.02953 10.7646 8.83074 11.3438 8.51604 11.8658C8.83571 11.3964 9.18417 10.9457 9.55955 10.5162C9.7771 9.93222 10.1939 9.4366 10.7417 9.11034C11.5379 8.65753 12.3714 8.26844 13.2337 7.94699C13.2337 7.94699 11.57 9.46181 10.7089 10.0839C10.3823 10.3327 10.0114 10.5221 9.61428 10.6427C8.60921 11.7767 7.79649 13.0566 7.20618 14.435C7.41835 14.0252 7.76098 13.6915 8.18401 13.4826C8.59336 13.3609 9.02331 13.3167 9.45009 13.3525C9.45009 13.3525 8.32266 14.5545 7.72428 14.8709C7.61692 14.9385 7.49292 14.9777 7.3648 14.9845C7.23669 14.9913 7.10898 14.9654 6.99455 14.9095C6.6486 15.8027 6.39084 16.7253 6.22469 17.665C6.34509 17.2925 6.64063 16.5122 7.10766 16.2381C7.48302 16.0337 7.89538 15.9001 8.32266 15.8444C8.32266 15.8444 7.44699 17.2503 6.92523 17.6967C6.83201 17.7876 6.7148 17.8524 6.58622 17.884C6.45764 17.9155 6.32256 17.9128 6.1955 17.8759C6.06849 18.6608 6.00384 19.4539 6.00212 20.2483C6.00212 20.4838 6.00212 20.7193 6.02036 20.9512C6.02036 20.786 6.15172 19.6297 6.65888 19.1763C6.98634 18.897 7.36496 18.6789 7.77536 18.5331C7.77536 18.5331 7.16969 20.1042 6.7282 20.6419C6.65509 20.7551 6.55006 20.846 6.42537 20.9039C6.30069 20.9617 6.16149 20.9843 6.02401 20.9688C6.07199 21.9606 6.23102 22.9446 6.49834 23.9035C6.47645 23.6399 6.42536 22.5855 6.82307 22.0654C7.09543 21.722 7.429 21.4281 7.8082 21.1973C7.66491 21.9813 7.44251 22.7499 7.14415 23.4923C7.0922 23.6183 7.00634 23.7287 6.89539 23.8121C6.78444 23.8955 6.65243 23.9489 6.51293 23.9668C6.76505 24.8471 7.11109 25.6998 7.5455 26.5114C7.45793 26.1108 7.33753 25.3235 7.58563 24.8314C7.79501 24.4384 8.07127 24.082 8.40293 23.777C8.39742 24.5807 8.31313 25.3821 8.15118 26.1705C8.12129 26.2949 8.06285 26.4112 7.98013 26.511C7.89741 26.6107 7.79253 26.6914 7.6732 26.7469C8.1942 27.6649 8.82616 28.5202 9.55591 29.295C9.40266 28.9436 9.08888 28.1422 9.25307 27.5729C9.38706 27.1386 9.5928 26.728 9.86239 26.3568C10.0045 27.1494 10.0693 27.9531 10.0558 28.7573C10.0501 28.8887 10.0144 29.0172 9.95137 29.1339C9.88831 29.2505 9.79939 29.3523 9.69091 29.4321L9.9828 29.7309C10.4885 30.2232 11.0312 30.679 11.6064 31.0946C11.2653 30.7054 11.0531 30.2268 10.9971 29.7203C11.013 29.2607 11.1041 28.8064 11.2671 28.3742C11.6159 29.098 11.8956 29.8509 12.1027 30.6236C12.1318 30.746 12.1351 30.8729 12.1126 30.9966C12.09 31.1204 12.042 31.2385 11.9713 31.3441C12.6206 31.792 13.3022 32.1949 14.0109 32.5496C13.73 32.3528 12.9747 31.7694 12.847 31.1438C12.7698 30.6887 12.7698 30.2246 12.847 29.7695C13.3489 30.405 13.7886 31.0839 14.1605 31.7975C14.2245 31.925 14.255 32.0658 14.2493 32.2074C14.2435 32.3489 14.2018 32.487 14.1277 32.6094C14.8634 32.9724 15.6227 33.2894 16.4008 33.5583C16.0359 33.3756 15.2332 32.9362 15.0143 32.3915C14.8515 31.9588 14.7688 31.502 14.7698 31.0418C15.3997 31.5868 15.9785 32.1843 16.4993 32.8273C16.5882 32.9402 16.6453 33.0732 16.6652 33.2136C16.685 33.354 16.6668 33.497 16.6124 33.6286C17.542 33.9413 18.4945 34.1868 19.462 34.3632C21.2863 34.7147 22.3554 35.3824 22.9537 35.9448L22.8333 35.9834C22.2386 35.4387 21.1987 34.792 19.4437 34.4686C18.4788 34.2947 17.5287 34.0515 16.6014 33.7411C16.5704 33.8831 16.4945 34.0125 16.384 34.1113C16.2736 34.2101 16.1342 34.2735 15.9848 34.2929C15.2113 34.4897 13.1389 33.9414 13.1389 33.9414C13.5759 33.7382 14.0331 33.5781 14.5035 33.4634C15.0678 33.3912 15.6418 33.438 16.1855 33.6005C15.4714 33.3459 14.7733 33.0513 14.0948 32.7183C14.0501 32.8544 13.9617 32.9733 13.8424 33.0579C13.723 33.1425 13.5789 33.1885 13.4308 33.1893C12.6791 33.2772 10.8256 32.4442 10.8256 32.4442C11.2677 32.3044 11.7239 32.2102 12.1866 32.163C12.7411 32.1725 13.2857 32.306 13.7774 32.5531C13.1032 32.2045 12.4536 31.8135 11.8327 31.3828C11.7647 31.4973 11.6628 31.5897 11.5399 31.648C11.4169 31.7062 11.2788 31.7277 11.1431 31.7096C10.4133 31.678 8.75685 30.5603 8.75685 30.5603C9.20564 30.4927 9.66067 30.4714 10.1141 30.4971C10.4756 30.5429 10.8227 30.6627 11.1321 30.8485C10.7074 30.5174 10.3007 30.1655 9.91347 29.7941L9.60699 29.4954C9.52286 29.5987 9.40696 29.6737 9.27589 29.7097C9.14481 29.7457 9.00528 29.7408 8.87726 29.6957C8.17672 29.5305 6.73185 28.1317 6.73185 28.1317C7.18243 28.1471 7.63006 28.2083 8.06726 28.3144C8.44606 28.4439 8.79098 28.6514 9.07793 28.9225C8.51149 28.255 8.01413 27.5357 7.59293 26.775C7.48606 26.8473 7.35865 26.8861 7.22807 26.8861C7.09748 26.8861 6.97007 26.8473 6.8632 26.775C6.23199 26.4236 5.17388 24.6662 5.17388 24.6662C5.60892 24.807 6.02818 24.9895 6.42536 25.211C6.73804 25.4372 6.99888 25.7232 7.19158 26.051Z" fill="url(#paint25_linear_552_289)"/>
</g>
<g opacity="0.54">
<path style="mix-blend-mode:multiply" d="M21.5783 4.60508L21.1368 3.54312L20.6953 4.60508L19.5132 4.67893L20.4217 5.41386L20.1335 6.52154L21.1368 5.9132L22.1402 6.52154L21.852 5.41386L22.7605 4.67893L21.5783 4.60508Z" fill="url(#paint26_linear_552_289)"/>
<path style="mix-blend-mode:multiply" d="M15.2661 6.23537L14.6896 6.45682L14.2335 6.05258L14.2736 6.64663L13.73 6.9419L14.332 7.08954L14.4524 7.67656L14.7881 7.17039L15.4047 7.24069L15.007 6.78021L15.2661 6.23537Z" fill="url(#paint27_linear_552_289)"/>
<path style="mix-blend-mode:multiply" d="M17.5538 5.12183L17.0211 4.46091L16.9299 5.29058L16.1162 5.57534L16.908 5.91283L16.9372 6.74953L17.5136 6.12728L18.3492 6.3593L17.9113 5.63862L18.4003 4.94605L17.5538 5.12183Z" fill="url(#paint28_linear_552_289)"/>
<path style="mix-blend-mode:multiply" d="M27.9587 6.64663L27.9952 6.05258L27.5391 6.45682L26.9626 6.23537L27.2217 6.78021L26.8276 7.24069L27.4443 7.17039L27.7763 7.67656L27.8967 7.08954L28.4987 6.9419L27.9587 6.64663Z" fill="url(#paint29_linear_552_289)"/>
<path style="mix-blend-mode:multiply" d="M25.2119 4.46088L24.6792 5.12181L23.8291 4.94603L24.318 5.63859L23.8838 6.35928L24.7157 6.12725L25.2959 6.74951L25.3214 5.9128L26.1168 5.57531L25.2995 5.29055L25.2119 4.46088Z" fill="url(#paint30_linear_552_289)"/>
</g>
<path d="M17.9061 24.8947L19.5766 14.7129H20.9686L19.2982 24.8947H17.9061ZM13.3174 22.2697L13.551 20.8777H21.3863L21.1526 22.2697H13.3174ZM14.3266 24.8947L15.997 14.7129H17.3891L15.7186 24.8947H14.3266ZM13.909 18.73L14.1377 17.3379H21.9729L21.7442 18.73H13.909ZM27.1993 14.7129V24.8947H25.3548V16.5077H25.2952L22.9138 18.029V16.3386L25.4443 14.7129H27.1993Z" fill="#E9C91A"/>
<path d="M64.36 28L63.496 24.04H59.512L58.672 28H55.144L59.752 11.368H63.472L68.056 28H64.36ZM60.016 21.64H62.992L61.48 14.752L60.016 21.64ZM81.7073 28V19.912C81.7073 19.224 81.6113 18.72 81.4193 18.4C81.2433 18.08 80.9393 17.92 80.5073 17.92C80.0433 17.92 79.5153 18.112 78.9233 18.496C78.9393 18.576 78.9473 18.664 78.9473 18.76C78.9473 18.856 78.9473 18.952 78.9473 19.048V28H75.6593V19.912C75.6593 19.224 75.5633 18.72 75.3713 18.4C75.1953 18.08 74.8913 17.92 74.4593 17.92C74.0113 17.92 73.4913 18.112 72.8993 18.496V28H69.6113V15.736H72.2993L72.5633 16.84C73.8433 15.896 75.0433 15.424 76.1633 15.424C77.2993 15.424 78.0993 15.912 78.5633 16.888C79.8753 15.912 81.0913 15.424 82.2113 15.424C83.1073 15.424 83.7953 15.736 84.2753 16.36C84.7553 16.968 84.9953 17.848 84.9953 19V28H81.7073ZM93.5594 28L93.2714 26.896C92.9994 27.312 92.6074 27.656 92.0954 27.928C91.5834 28.184 91.0634 28.312 90.5354 28.312C89.5434 28.312 88.7594 27.992 88.1834 27.352C87.6074 26.696 87.3194 25.8 87.3194 24.664C87.3194 23.464 87.6714 22.52 88.3754 21.832C89.0794 21.128 90.0314 20.776 91.2314 20.776C91.7274 20.776 92.3434 20.872 93.0794 21.064V19.96C93.0794 19.128 92.9674 18.568 92.7434 18.28C92.5354 17.976 92.1354 17.824 91.5434 17.824C90.5834 17.824 89.4074 18.08 88.0154 18.592V16.408C88.4794 16.104 89.0874 15.864 89.8394 15.688C90.5914 15.512 91.3594 15.424 92.1434 15.424C93.5354 15.424 94.5434 15.744 95.1674 16.384C95.7914 17.008 96.1034 18.016 96.1034 19.408V28H93.5594ZM91.4954 26.008C92.0234 26.008 92.5514 25.752 93.0794 25.24V22.888C92.7274 22.776 92.3114 22.72 91.8314 22.72C91.3674 22.72 91.0074 22.872 90.7514 23.176C90.5114 23.464 90.3914 23.888 90.3914 24.448C90.3914 24.928 90.4874 25.312 90.6794 25.6C90.8874 25.872 91.1594 26.008 91.4954 26.008ZM98.0688 28V25.672L103.037 18.256H98.2607V15.736H106.493V18.064L101.525 25.48H106.589V28H98.0688ZM111.035 22.696C111.083 23.848 111.323 24.664 111.755 25.144C112.187 25.624 112.891 25.864 113.867 25.864C114.235 25.864 114.683 25.808 115.211 25.696C115.755 25.568 116.291 25.408 116.819 25.216V27.4C116.371 27.688 115.819 27.912 115.163 28.072C114.507 28.232 113.851 28.312 113.195 28.312C109.771 28.312 108.059 26.168 108.059 21.88C108.059 19.784 108.475 18.184 109.307 17.08C110.155 15.976 111.371 15.424 112.955 15.424C115.675 15.424 117.035 17.088 117.035 20.416C117.035 21.248 116.955 22.008 116.795 22.696H111.035ZM112.859 17.656C111.707 17.656 111.099 18.648 111.035 20.632H114.251V20.08C114.251 19.216 114.139 18.6 113.915 18.232C113.691 17.848 113.339 17.656 112.859 17.656ZM124.915 28L122.923 24.112L121.219 28H117.979L121.411 21.832L118.027 15.736H121.555L123.355 19.504L125.011 15.736H128.251L124.867 21.832L128.443 28H124.915ZM138.529 21.832V28H135.241V11.368H140.497C141.969 11.368 143.137 11.84 144.001 12.784C144.881 13.712 145.321 14.984 145.321 16.6C145.321 18.216 144.881 19.496 144.001 20.44C143.137 21.368 141.969 21.832 140.497 21.832H138.529ZM138.529 19.336H140.089C140.713 19.336 141.185 19.104 141.505 18.64C141.841 18.176 142.009 17.496 142.009 16.6C142.009 15.704 141.841 15.024 141.505 14.56C141.185 14.096 140.713 13.864 140.089 13.864H138.529V19.336ZM147.824 28V15.736H151.112V28H147.824ZM149.48 13.744C148.888 13.744 148.416 13.584 148.064 13.264C147.712 12.928 147.536 12.48 147.536 11.92C147.536 11.36 147.712 10.92 148.064 10.6C148.416 10.264 148.888 10.096 149.48 10.096C150.056 10.096 150.52 10.264 150.872 10.6C151.224 10.92 151.4 11.36 151.4 11.92C151.4 12.48 151.224 12.928 150.872 13.264C150.52 13.584 150.056 13.744 149.48 13.744ZM161.258 27.448C160.922 27.688 160.498 27.872 159.986 28C159.474 28.144 158.938 28.216 158.378 28.216C156.762 28.216 155.538 27.68 154.706 26.608C153.874 25.536 153.458 23.968 153.458 21.904C153.458 19.872 153.898 18.304 154.778 17.2C155.674 16.08 156.922 15.52 158.522 15.52C159.466 15.52 160.362 15.76 161.21 16.24V18.424C160.474 18.152 159.794 18.016 159.17 18.016C158.306 18.016 157.682 18.312 157.298 18.904C156.93 19.48 156.746 20.416 156.746 21.712V22.048C156.746 23.344 156.93 24.28 157.298 24.856C157.666 25.432 158.266 25.72 159.098 25.72C159.754 25.72 160.474 25.568 161.258 25.264V27.448ZM163.338 28V10.24H166.578V21.04L169.842 15.736H173.49L169.554 21.592L173.874 28H170.082L166.578 22.336V28H163.338ZM179.275 24.568C179.275 24.008 178.931 23.552 178.243 23.2L176.803 22.456C175.299 21.688 174.547 20.528 174.547 18.976C174.547 17.904 174.915 17.048 175.651 16.408C176.387 15.752 177.363 15.424 178.579 15.424C179.635 15.424 180.651 15.68 181.627 16.192V18.376C181.179 18.2 180.715 18.064 180.235 17.968C179.755 17.856 179.355 17.8 179.035 17.8C178.011 17.8 177.499 18.192 177.499 18.976C177.499 19.488 177.923 19.968 178.771 20.416L180.211 21.16C180.915 21.528 181.427 21.984 181.747 22.528C182.067 23.056 182.227 23.728 182.227 24.544C182.227 25.712 181.859 26.632 181.123 27.304C180.387 27.976 179.403 28.312 178.171 28.312C176.843 28.312 175.635 27.992 174.547 27.352V25.168C175.907 25.68 176.979 25.936 177.763 25.936C178.259 25.936 178.635 25.816 178.891 25.576C179.147 25.336 179.275 25 179.275 24.568Z" fill="black"/>
<defs>
<linearGradient id="paint0_linear_552_289" x1="27.4232" y1="0.710295" x2="13.1493" y2="49.0691" gradientUnits="userSpaceOnUse">
<stop stop-color="#FFF5A8"/>
<stop offset="0.31" stop-color="#BD8100"/>
<stop offset="0.76" stop-color="#E0BE58"/>
<stop offset="1" stop-color="#F1DC83"/>
</linearGradient>
<linearGradient id="paint1_linear_552_289" x1="4.77237" y1="2.72088" x2="36.5748" y2="37.8673" gradientUnits="userSpaceOnUse">
<stop stop-color="#FFF5A8"/>
<stop offset="0.31" stop-color="#BD8100"/>
<stop offset="0.76" stop-color="#E0BE58"/>
<stop offset="1" stop-color="#F1DC83"/>
</linearGradient>
<linearGradient id="paint2_linear_552_289" x1="5.56047" y1="3.52907" x2="35.8527" y2="37.0059" gradientUnits="userSpaceOnUse">
<stop stop-color="#05224C"/>
<stop offset="1" stop-color="#0B2D62"/>
</linearGradient>
<linearGradient id="paint3_linear_552_289" x1="29.2621" y1="-2.49858" x2="4.93934" y2="71.3744" gradientUnits="userSpaceOnUse">
<stop stop-color="#FFF5A8"/>
<stop offset="0.31" stop-color="#BD8100"/>
<stop offset="0.76" stop-color="#E0BE58"/>
<stop offset="1" stop-color="#F1DC83"/>
</linearGradient>
<radialGradient id="paint4_radial_552_289" cx="0" cy="0" r="1" gradientUnits="userSpaceOnUse" gradientTransform="translate(18.1777 37.4719) scale(35.6911 34.4281)">
<stop stop-color="#FFF5A8"/>
<stop offset="0.72" stop-color="#FFF5A8"/>
</radialGradient>
<radialGradient id="paint5_radial_552_289" cx="0" cy="0" r="1" gradientUnits="userSpaceOnUse" gradientTransform="translate(18.1772 37.4432) scale(35.6911 34.3978)">
<stop stop-color="#FFF5A8"/>
<stop offset="0.72" stop-color="#FFF5A8"/>
</radialGradient>
<radialGradient id="paint6_radial_552_289" cx="0" cy="0" r="1" gradientUnits="userSpaceOnUse" gradientTransform="translate(18.1775 37.435) scale(35.6911 34.3804)">
<stop stop-color="#FFF5A8"/>
<stop offset="0.72" stop-color="#FFF5A8"/>
</radialGradient>
<radialGradient id="paint7_radial_552_289" cx="0" cy="0" r="1" gradientUnits="userSpaceOnUse" gradientTransform="translate(18.1776 37.4719) scale(35.6911 34.4281)">
<stop stop-color="#FFF5A8"/>
<stop offset="0.72" stop-color="#FFF5A8"/>
</radialGradient>
<radialGradient id="paint8_radial_552_289" cx="0" cy="0" r="1" gradientUnits="userSpaceOnUse" gradientTransform="translate(18.1777 37.4391) scale(35.6911 34.3891)">
<stop stop-color="#FFF5A8"/>
<stop offset="0.72" stop-color="#FFF5A8"/>
</radialGradient>
<radialGradient id="paint9_radial_552_289" cx="0" cy="0" r="1" gradientUnits="userSpaceOnUse" gradientTransform="translate(18.1776 37.4521) scale(35.6911 34.3978)">
<stop stop-color="#FFF5A8"/>
<stop offset="0.72" stop-color="#FFF5A8"/>
</radialGradient>
<radialGradient id="paint10_radial_552_289" cx="0" cy="0" r="1" gradientUnits="userSpaceOnUse" gradientTransform="translate(18.1774 37.439) scale(35.6911 34.3848)">
<stop stop-color="#FFF5A8"/>
<stop offset="0.72" stop-color="#FFF5A8"/>
</radialGradient>
<radialGradient id="paint11_radial_552_289" cx="0" cy="0" r="1" gradientUnits="userSpaceOnUse" gradientTransform="translate(18.1775 37.4434) scale(35.6911 34.3891)">
<stop stop-color="#FFF5A8"/>
<stop offset="0.72" stop-color="#FFF5A8"/>
</radialGradient>
<radialGradient id="paint12_radial_552_289" cx="0" cy="0" r="1" gradientUnits="userSpaceOnUse" gradientTransform="translate(18.1776 37.439) scale(35.6911 34.3848)">
<stop stop-color="#FFF5A8"/>
<stop offset="0.72" stop-color="#FFF5A8"/>
</radialGradient>
<radialGradient id="paint13_radial_552_289" cx="0" cy="0" r="1" gradientUnits="userSpaceOnUse" gradientTransform="translate(18.1775 37.4434) scale(35.691 34.3891)">
<stop stop-color="#FFF5A8"/>
<stop offset="0.72" stop-color="#FFF5A8"/>
</radialGradient>
<linearGradient id="paint14_linear_552_289" x1="16.576" y1="42.6489" x2="42.3041" y2="-10.4131" gradientUnits="userSpaceOnUse">
<stop stop-color="#C9BF85"/>
<stop offset="0.17" stop-color="#875900"/>
<stop offset="0.41" stop-color="#AA8F47"/>
<stop offset="0.59" stop-color="#C0B274"/>
<stop offset="0.67" stop-color="#C9BF85"/>
</linearGradient>
<linearGradient id="paint15_linear_552_289" x1="24.7813" y1="46.5929" x2="50.4727" y2="-6.4401" gradientUnits="userSpaceOnUse">
<stop stop-color="#C9BF85"/>
<stop offset="0.17" stop-color="#875900"/>
<stop offset="0.41" stop-color="#AA8F47"/>
<stop offset="0.59" stop-color="#C0B274"/>
<stop offset="0.67" stop-color="#C9BF85"/>
</linearGradient>
<linearGradient id="paint16_linear_552_289" x1="19.1771" y1="43.8668" x2="44.8476" y2="-9.14957" gradientUnits="userSpaceOnUse">
<stop stop-color="#C9BF85"/>
<stop offset="0.17" stop-color="#875900"/>
<stop offset="0.41" stop-color="#AA8F47"/>
<stop offset="0.59" stop-color="#C0B274"/>
<stop offset="0.67" stop-color="#C9BF85"/>
</linearGradient>
<linearGradient id="paint17_linear_552_289" x1="16.576" y1="42.6489" x2="42.3041" y2="-10.4131" gradientUnits="userSpaceOnUse">
<stop stop-color="#C9BF85"/>
<stop offset="0.17" stop-color="#875900"/>
<stop offset="0.41" stop-color="#AA8F47"/>
<stop offset="0.59" stop-color="#C0B274"/>
<stop offset="0.67" stop-color="#C9BF85"/>
</linearGradient>
<linearGradient id="paint18_linear_552_289" x1="24.7813" y1="46.5929" x2="50.4727" y2="-6.4401" gradientUnits="userSpaceOnUse">
<stop stop-color="#C9BF85"/>
<stop offset="0.17" stop-color="#875900"/>
<stop offset="0.41" stop-color="#AA8F47"/>
<stop offset="0.59" stop-color="#C0B274"/>
<stop offset="0.67" stop-color="#C9BF85"/>
</linearGradient>
<linearGradient id="paint19_linear_552_289" x1="19.1771" y1="43.8668" x2="44.8476" y2="-9.14957" gradientUnits="userSpaceOnUse">
<stop stop-color="#C9BF85"/>
<stop offset="0.17" stop-color="#875900"/>
<stop offset="0.41" stop-color="#AA8F47"/>
<stop offset="0.59" stop-color="#C0B274"/>
<stop offset="0.67" stop-color="#C9BF85"/>
</linearGradient>
<linearGradient id="paint20_linear_552_289" x1="26.0703" y1="42.6489" x2="0.342136" y2="-10.4131" gradientUnits="userSpaceOnUse">
<stop stop-color="#C9BF85"/>
<stop offset="0.17" stop-color="#875900"/>
<stop offset="0.41" stop-color="#AA8F47"/>
<stop offset="0.59" stop-color="#C0B274"/>
<stop offset="0.67" stop-color="#C9BF85"/>
</linearGradient>
<linearGradient id="paint21_linear_552_289" x1="17.864" y1="46.5865" x2="-7.82049" y2="-6.43834" gradientUnits="userSpaceOnUse">
<stop stop-color="#C9BF85"/>
<stop offset="0.17" stop-color="#875900"/>
<stop offset="0.41" stop-color="#AA8F47"/>
<stop offset="0.59" stop-color="#C0B274"/>
<stop offset="0.67" stop-color="#C9BF85"/>
</linearGradient>
<linearGradient id="paint22_linear_552_289" x1="23.4682" y1="43.8668" x2="-2.20228" y2="-9.14958" gradientUnits="userSpaceOnUse">
<stop stop-color="#C9BF85"/>
<stop offset="0.17" stop-color="#875900"/>
<stop offset="0.41" stop-color="#AA8F47"/>
<stop offset="0.59" stop-color="#C0B274"/>
<stop offset="0.67" stop-color="#C9BF85"/>
</linearGradient>
<linearGradient id="paint23_linear_552_289" x1="26.0703" y1="42.6489" x2="0.342136" y2="-10.4131" gradientUnits="userSpaceOnUse">
<stop stop-color="#C9BF85"/>
<stop offset="0.17" stop-color="#875900"/>
<stop offset="0.41" stop-color="#AA8F47"/>
<stop offset="0.59" stop-color="#C0B274"/>
<stop offset="0.67" stop-color="#C9BF85"/>
</linearGradient>
<linearGradient id="paint24_linear_552_289" x1="17.864" y1="46.5865" x2="-7.82049" y2="-6.43834" gradientUnits="userSpaceOnUse">
<stop stop-color="#C9BF85"/>
<stop offset="0.17" stop-color="#875900"/>
<stop offset="0.41" stop-color="#AA8F47"/>
<stop offset="0.59" stop-color="#C0B274"/>
<stop offset="0.67" stop-color="#C9BF85"/>
</linearGradient>
<linearGradient id="paint25_linear_552_289" x1="23.4682" y1="43.8668" x2="-2.20228" y2="-9.14958" gradientUnits="userSpaceOnUse">
<stop stop-color="#C9BF85"/>
<stop offset="0.17" stop-color="#875900"/>
<stop offset="0.41" stop-color="#AA8F47"/>
<stop offset="0.59" stop-color="#C0B274"/>
<stop offset="0.67" stop-color="#C9BF85"/>
</linearGradient>
<linearGradient id="paint26_linear_552_289" x1="19.7905" y1="10.8046" x2="22.0851" y2="-0.429647" gradientUnits="userSpaceOnUse">
<stop stop-color="#C9BF85"/>
<stop offset="0.17" stop-color="#875900"/>
<stop offset="0.41" stop-color="#AA8F47"/>
<stop offset="0.59" stop-color="#C0B274"/>
<stop offset="0.67" stop-color="#C9BF85"/>
</linearGradient>
<linearGradient id="paint27_linear_552_289" x1="14.0109" y1="9.62042" x2="16.3039" y2="-1.60638" gradientUnits="userSpaceOnUse">
<stop stop-color="#C9BF85"/>
<stop offset="0.17" stop-color="#875900"/>
<stop offset="0.41" stop-color="#AA8F47"/>
<stop offset="0.59" stop-color="#C0B274"/>
<stop offset="0.67" stop-color="#C9BF85"/>
</linearGradient>
<linearGradient id="paint28_linear_552_289" x1="16.3242" y1="10.0963" x2="18.6177" y2="-1.13527" gradientUnits="userSpaceOnUse">
<stop stop-color="#C9BF85"/>
<stop offset="0.17" stop-color="#875900"/>
<stop offset="0.41" stop-color="#AA8F47"/>
<stop offset="0.59" stop-color="#C0B274"/>
<stop offset="0.67" stop-color="#C9BF85"/>
</linearGradient>
<linearGradient id="paint29_linear_552_289" x1="26.5029" y1="12.1724" x2="28.7958" y2="0.945585" gradientUnits="userSpaceOnUse">
<stop stop-color="#C9BF85"/>
<stop offset="0.17" stop-color="#875900"/>
<stop offset="0.41" stop-color="#AA8F47"/>
<stop offset="0.59" stop-color="#C0B274"/>
<stop offset="0.67" stop-color="#C9BF85"/>
</linearGradient>
<linearGradient id="paint30_linear_552_289" x1="23.581" y1="11.5799" x2="25.8779" y2="0.348161" gradientUnits="userSpaceOnUse">
<stop stop-color="#C9BF85"/>
<stop offset="0.17" stop-color="#875900"/>
<stop offset="0.41" stop-color="#AA8F47"/>
<stop offset="0.59" stop-color="#C0B274"/>
<stop offset="0.67" stop-color="#C9BF85"/>
</linearGradient>
</defs>
</svg>
