<svg width="186" height="40" viewBox="0 0 186 40" fill="none" xmlns="http://www.w3.org/2000/svg">
<path d="M26.81 39.4911C25.882 39.4446 24.964 39.2839 24.077 39.0131C23.199 38.7459 22.29 38.5864 21.37 38.5386C20.451 38.5864 19.541 38.7459 18.663 39.0131C17.777 39.2839 16.858 39.4446 15.93 39.4911C15.535 39.4963 15.142 39.4405 14.766 39.3259C13.485 38.9252 12.577 37.8427 11.716 36.7989C11.194 36.109 10.58 35.4875 9.89099 34.9501C9.13899 34.4814 8.32701 34.1081 7.47601 33.8395C6.18401 33.365 4.84899 32.8765 4.06799 31.8432C3.28699 30.8099 3.22501 29.4532 3.15601 28.1317C3.14601 27.2605 3.02402 26.3939 2.79102 25.5519C2.47502 24.7729 2.057 24.0359 1.547 23.3588C0.794997 22.2306 0 21.0602 0 19.7422C0 18.4242 0.795002 17.2538 1.565 16.1397C2.077 15.4634 2.49502 14.7262 2.80902 13.9465C3.04202 13.1058 3.16501 12.2403 3.17401 11.3703C3.24401 10.0452 3.317 8.67452 4.086 7.65527C4.856 6.63602 6.20302 6.13342 7.49402 5.65894C8.34402 5.38755 9.15298 5.01191 9.90198 4.54128C10.591 4.00388 11.204 3.38243 11.727 2.69257C12.595 1.63817 13.496 0.566195 14.777 0.165523C15.153 0.0508933 15.546 -0.00487756 15.941 0.000334229C16.869 0.0468546 17.788 0.207487 18.674 0.478328C19.551 0.747376 20.461 0.906838 21.381 0.952808C22.301 0.906838 23.211 0.747376 24.088 0.478328C24.974 0.207487 25.893 0.0468546 26.821 0.000334229C27.216 -0.00487756 27.609 0.0508933 27.985 0.165523C29.266 0.566195 30.174 1.64871 31.035 2.69257C31.558 3.38243 32.171 4.00388 32.86 4.54128C33.612 5.01 34.424 5.38329 35.275 5.65191C36.567 6.12639 37.902 6.61493 38.683 7.64824C39.464 8.68155 39.526 10.0382 39.595 11.3632C39.605 12.2333 39.727 13.0988 39.96 13.9395C40.261 14.7191 40.665 15.4585 41.16 16.1397C41.93 17.2679 42.726 18.4312 42.726 19.7563C42.726 21.0813 41.93 22.2446 41.16 23.3728C40.651 24.05 40.232 24.787 39.916 25.566C39.684 26.4079 39.561 27.2746 39.551 28.1458C39.482 29.4673 39.409 30.838 38.639 31.8572C37.869 32.8765 36.523 33.3791 35.231 33.8536C34.38 34.1222 33.568 34.4955 32.816 34.9642C32.127 35.5016 31.514 36.1231 30.992 36.8129C30.123 37.8673 29.222 38.9217 27.941 39.34C27.575 39.4465 27.193 39.4975 26.81 39.4911Z" fill="url(#paint0_linear_553_291)"/>
<path d="M42.4921 19.7424C42.4921 21.8512 40.3361 23.5839 39.6971 25.4783C39.0371 27.443 39.6971 30.0685 38.4601 31.7028C37.2231 33.3371 34.4071 33.5585 32.6951 34.757C30.9841 35.9555 29.9371 38.4615 27.8981 39.0976C25.9351 39.7127 23.5481 38.2998 21.3701 38.2998C19.1921 38.2998 16.8061 39.7057 14.8431 39.0976C12.8031 38.4615 11.741 35.9345 10.048 34.757C8.35503 33.5796 5.52809 33.3512 4.28009 31.7028C3.03209 30.0544 3.70309 27.443 3.04309 25.4783C2.40409 23.5839 0.248047 21.8407 0.248047 19.7424C0.248047 17.6441 2.40409 15.9009 3.04309 14.0065C3.70309 12.0453 3.04309 9.41632 4.28009 7.782C5.51709 6.14768 8.32303 5.94734 10.048 4.72776C11.774 3.50817 12.8031 1.02682 14.8431 0.387147C16.8061 -0.227919 19.1921 1.18498 21.3701 1.18498C23.5481 1.18498 25.9351 -0.22089 27.8981 0.387147C29.9371 1.0233 30.9991 3.55034 32.6951 4.72776C34.3921 5.90517 37.2121 6.13362 38.4601 7.782C39.7081 9.43038 39.0371 12.0453 39.6971 14.0065C40.3361 15.9009 42.4921 17.6441 42.4921 19.7424Z" fill="url(#paint1_linear_553_291)"/>
<path d="M26.8098 38.3031C25.9908 38.2533 25.1798 38.1057 24.3978 37.8638C23.4168 37.5654 22.3988 37.3917 21.3698 37.3471C20.3418 37.3917 19.3238 37.5654 18.3418 37.8638C17.5598 38.1057 16.7498 38.2533 15.9298 38.3031C15.6638 38.3075 15.3988 38.2708 15.1448 38.1942C14.2188 37.9025 13.4708 37.0062 12.6788 36.0537C12.0928 35.2811 11.4028 34.5863 10.6278 33.9871C9.78881 33.4552 8.8818 33.0311 7.9278 32.7254C6.7538 32.2966 5.6438 31.8889 5.0788 31.1438C4.5128 30.3987 4.46584 29.274 4.39984 28.0684C4.39184 27.0944 4.25183 26.1256 3.98383 25.1864C3.63683 24.3045 3.17084 23.4702 2.59784 22.7051C1.89684 21.6788 1.23682 20.7087 1.23682 19.7422C1.23682 18.7757 1.89684 17.8056 2.59784 16.7793C3.16884 16.0209 3.63483 15.1938 3.98383 14.3191C4.25183 13.3786 4.39184 12.4087 4.39984 11.4335C4.46584 10.2315 4.5238 9.09277 5.0788 8.35821C5.6328 7.62364 6.7538 7.2054 7.9278 6.77661C8.8818 6.47237 9.78981 6.04811 10.6278 5.51485C11.4028 4.91571 12.0928 4.22086 12.6788 3.44822C13.4708 2.49926 14.2188 1.59951 15.1448 1.30779C15.3998 1.23418 15.6638 1.19861 15.9298 1.20235C16.7488 1.25085 17.5598 1.39725 18.3418 1.63817C19.3238 1.93657 20.3418 2.11025 21.3698 2.15483C22.3988 2.11025 23.4168 1.93657 24.3978 1.63817C25.1808 1.39725 25.9908 1.25085 26.8098 1.20235C27.0758 1.19861 27.3398 1.23418 27.5948 1.30779C28.5208 1.59951 29.2688 2.49926 30.0608 3.44822C30.6468 4.22086 31.3368 4.91571 32.1118 5.51485C32.9498 6.04811 33.8578 6.47237 34.8118 6.77661C35.9868 7.2054 37.0958 7.6131 37.6608 8.35821C38.2268 9.10332 38.2778 10.2315 38.3398 11.4335C38.3478 12.4087 38.4878 13.3786 38.7558 14.3191C39.1048 15.1938 39.5708 16.0209 40.1418 16.7793C40.8428 17.8056 41.5028 18.7757 41.5028 19.7422C41.5028 20.7087 40.8428 21.6788 40.1418 22.7051C39.5698 23.4702 39.1028 24.3045 38.7558 25.1864C38.4878 26.1256 38.3478 27.0944 38.3398 28.0684C38.2778 29.274 38.2158 30.4092 37.6608 31.1438C37.1068 31.8783 35.9868 32.2966 34.8118 32.7254C33.8588 33.0311 32.9508 33.4552 32.1118 33.9871C31.3368 34.5863 30.6468 35.2811 30.0608 36.0537C29.2688 37.0062 28.5208 37.9025 27.5948 38.1942C27.3408 38.2708 27.0758 38.3075 26.8098 38.3031Z" fill="url(#paint2_linear_553_291)"/>
<path d="M26.8098 38.3031C25.9908 38.2533 25.1798 38.1057 24.3978 37.8638C23.4168 37.5654 22.3988 37.3917 21.3698 37.3471C20.3418 37.3917 19.3238 37.5654 18.3418 37.8638C17.5598 38.1057 16.7498 38.2533 15.9298 38.3031C15.6638 38.3075 15.3988 38.2708 15.1448 38.1942C14.2188 37.9025 13.4708 37.0062 12.6788 36.0537C12.0928 35.2811 11.4028 34.5863 10.6278 33.9871C9.78881 33.4552 8.8818 33.0311 7.9278 32.7254C6.7538 32.2966 5.6438 31.8889 5.0788 31.1438C4.5128 30.3987 4.46584 29.274 4.39984 28.0684C4.39184 27.0944 4.25183 26.1256 3.98383 25.1864C3.63683 24.3045 3.17084 23.4702 2.59784 22.7051C1.89684 21.6788 1.23682 20.7087 1.23682 19.7422C1.23682 18.7757 1.89684 17.8056 2.59784 16.7793C3.16884 16.0209 3.63483 15.1938 3.98383 14.3191C4.25183 13.3786 4.39184 12.4087 4.39984 11.4335C4.46584 10.2315 4.5238 9.09277 5.0788 8.35821C5.6328 7.62364 6.7538 7.2054 7.9278 6.77661C8.8818 6.47237 9.78981 6.04811 10.6278 5.51485C11.4028 4.91571 12.0928 4.22086 12.6788 3.44822C13.4708 2.49926 14.2188 1.59951 15.1448 1.30779C15.3998 1.23418 15.6638 1.19861 15.9298 1.20235C16.7488 1.25085 17.5598 1.39725 18.3418 1.63817C19.3238 1.93657 20.3418 2.11025 21.3698 2.15483C22.3988 2.11025 23.4168 1.93657 24.3978 1.63817C25.1808 1.39725 25.9908 1.25085 26.8098 1.20235C27.0758 1.19861 27.3398 1.23418 27.5948 1.30779C28.5208 1.59951 29.2688 2.49926 30.0608 3.44822C30.6468 4.22086 31.3368 4.91571 32.1118 5.51485C32.9498 6.04811 33.8578 6.47237 34.8118 6.77661C35.9868 7.2054 37.0958 7.6131 37.6608 8.35821C38.2268 9.10332 38.2778 10.2315 38.3398 11.4335C38.3478 12.4087 38.4878 13.3786 38.7558 14.3191C39.1048 15.1938 39.5708 16.0209 40.1418 16.7793C40.8428 17.8056 41.5028 18.7757 41.5028 19.7422C41.5028 20.7087 40.8428 21.6788 40.1418 22.7051C39.5698 23.4702 39.1028 24.3045 38.7558 25.1864C38.4878 26.1256 38.3478 27.0944 38.3398 28.0684C38.2778 29.274 38.2158 30.4092 37.6608 31.1438C37.1068 31.8783 35.9868 32.2966 34.8118 32.7254C33.8588 33.0311 32.9508 33.4552 32.1118 33.9871C31.3368 34.5863 30.6468 35.2811 30.0608 36.0537C29.2688 37.0062 28.5208 37.9025 27.5948 38.1942C27.3408 38.2708 27.0758 38.3075 26.8098 38.3031Z" fill="url(#paint3_linear_553_291)"/>
<path d="M26.8101 37.3507C26.0791 37.2977 25.3561 37.1621 24.6581 36.9465C23.5941 36.6225 22.4891 36.4369 21.3741 36.3947C20.2591 36.4363 19.1541 36.6219 18.0901 36.9465C17.3901 37.1618 16.6671 37.2975 15.9341 37.3507C15.7721 37.3544 15.6111 37.333 15.4561 37.2874C14.8101 37.0871 14.1501 36.2963 13.4561 35.4598C12.8161 34.6188 12.0621 33.8645 11.2131 33.2174C10.3081 32.634 9.32613 32.1695 8.29413 31.8362C7.26113 31.4566 6.28313 31.1016 5.89313 30.5814C5.50213 30.0613 5.44411 29.0772 5.40411 28.0192C5.39511 26.9613 5.23912 25.9092 4.94012 24.8912C4.57112 23.9264 4.0661 23.0147 3.4411 22.1814C2.8241 21.2781 2.24414 20.4241 2.24414 19.7422C2.24414 19.0604 2.8241 18.2063 3.4411 17.303C4.0661 16.4697 4.57112 15.558 4.94012 14.5932C5.24012 13.5752 5.39511 12.5231 5.40411 11.4652C5.46211 10.4108 5.51712 9.40558 5.89612 8.90299C6.27612 8.40039 7.26512 8.02783 8.29712 7.64825C9.33012 7.31489 10.3111 6.85038 11.2161 6.26699C12.0651 5.62198 12.8181 4.8688 13.4561 4.02815C14.1531 3.19166 14.8141 2.40086 15.4601 2.19701C15.6141 2.15139 15.7761 2.13003 15.9381 2.13374C16.6711 2.18662 17.3941 2.32349 18.0941 2.54145C19.1581 2.86454 20.2631 3.04894 21.3781 3.08973C22.4931 3.04752 23.5971 2.86315 24.6611 2.54145C25.3611 2.32349 26.0851 2.18662 26.8181 2.13374C26.9801 2.13003 27.1411 2.15139 27.2961 2.19701C27.9421 2.40086 28.6021 3.19166 29.2991 4.02815C29.9371 4.8688 30.6901 5.62198 31.5391 6.26699C32.4441 6.85038 33.4261 7.31489 34.4581 7.64825C35.4911 8.02783 36.4681 8.38633 36.8591 8.90299C37.2491 9.41964 37.2931 10.4073 37.3511 11.4652C37.3601 12.5231 37.5161 13.5752 37.8151 14.5932C38.1911 15.5592 38.7031 16.4709 39.3361 17.303C39.9531 18.2063 40.5371 19.0604 40.5371 19.7422C40.5371 20.4241 39.9531 21.2781 39.3361 22.1814C38.7111 23.0147 38.2061 23.9264 37.8371 24.8912C37.5381 25.9092 37.3821 26.9613 37.3731 28.0192C37.3151 29.0736 37.2601 30.0788 36.8811 30.5814C36.5011 31.084 35.5131 31.4566 34.4801 31.8362C33.4481 32.1695 32.4661 32.634 31.5611 33.2174C30.7011 33.865 29.9381 34.623 29.2921 35.4703C28.5951 36.3068 27.9341 37.0976 27.2881 37.2979C27.1331 37.34 26.9721 37.3578 26.8101 37.3507Z" fill="#2C1810"/>
<path d="M34.1152 11.9482C34.1152 11.9482 33.3522 10.9135 32.6302 10.8396C32.1962 10.81 31.7602 10.8602 31.3462 10.9874C31.3462 10.9874 32.7032 11.9236 33.3522 12.1066C33.4822 12.1525 33.6232 12.162 33.7582 12.134C33.8932 12.1059 34.0162 12.0415 34.1152 11.9482Z" fill="url(#paint4_radial_553_291)"/>
<path d="M36.2422 23.7959C36.3682 23.8589 36.5142 23.8779 36.6532 23.8498C36.7932 23.8216 36.9182 23.7479 37.0082 23.6412C37.5632 23.1559 38.2782 21.2184 38.2782 21.2184C37.8752 21.4541 37.4962 21.7261 37.1472 22.0307C36.5742 22.5511 36.2422 23.7959 36.2422 23.7959Z" fill="url(#paint5_radial_553_291)"/>
<path d="M35.4538 25.8718C36.2158 24.2706 36.6478 22.5423 36.7268 20.7825C36.7858 20.8001 37.1208 20.8739 37.4568 20.4557C37.9088 19.8582 38.2518 17.8091 38.2518 17.8091C37.8988 18.1308 37.5778 18.4838 37.2928 18.8635C36.9838 19.4056 36.7968 20.0045 36.7448 20.6209C36.7448 20.4346 36.7448 20.2483 36.7448 20.062C36.7448 19.251 36.6778 18.4413 36.5448 17.6404C36.6728 17.6193 36.9098 17.528 37.0878 17.1273C37.3798 16.4243 37.1978 14.3542 37.1978 14.3542C36.9398 14.7616 36.7188 15.1896 36.5378 15.6336C36.4128 16.0186 36.3628 16.4226 36.3918 16.825C36.2258 16.0797 36.0018 15.3477 35.7198 14.6354C35.8528 14.583 35.9678 14.4961 36.0518 14.3844C36.1368 14.2726 36.1868 14.1405 36.1978 14.0027C36.3588 13.2471 35.7928 11.2578 35.7928 11.2578C35.6148 11.7145 35.4768 12.1848 35.3808 12.6637C35.3268 13.1769 35.3788 13.6952 35.5338 14.189C35.1818 13.3738 34.7538 12.5914 34.2528 11.8518C34.3798 11.7753 34.4808 11.6662 34.5448 11.5368C34.6098 11.4075 34.6348 11.2633 34.6178 11.1207C34.6178 10.3475 33.6658 8.51988 33.6658 8.51988C33.5828 9.00076 33.5408 9.48746 33.5418 9.97495C33.6118 10.5749 33.8108 11.1542 34.1258 11.676C33.8048 11.215 33.4568 10.7726 33.0818 10.351C32.8698 9.7578 32.4528 9.2528 31.8998 8.92056C31.1038 8.46569 30.2708 8.07539 29.4078 7.75369C29.4078 7.75369 31.0718 9.28257 31.9328 9.91169C32.2588 10.1599 32.6298 10.3481 33.0278 10.467C34.0328 11.6017 34.8458 12.8829 35.4358 14.2628C35.2238 13.852 34.8808 13.5171 34.4578 13.3068C34.0478 13.1855 33.6178 13.1425 33.1918 13.1803C33.1918 13.1803 34.3148 14.3788 34.9098 14.6951C35.0178 14.7628 35.1418 14.802 35.2698 14.8088C35.3978 14.8156 35.5258 14.7897 35.6398 14.7338C35.9878 15.6256 36.2478 16.547 36.4168 17.4858C36.2968 17.1132 36.0008 16.333 35.5338 16.0799C35.1608 15.8741 34.7488 15.7404 34.3228 15.6863C34.3228 15.6863 35.1978 17.0921 35.7198 17.535C35.8128 17.6259 35.9308 17.6907 36.0588 17.7223C36.1878 17.7539 36.3228 17.7511 36.4498 17.7142C36.5768 18.4992 36.6408 19.2922 36.6428 20.0866C36.6428 20.3256 36.6428 20.5611 36.6428 20.7896C36.6428 20.6279 36.5118 19.468 36.0048 19.0322C35.6758 18.7544 35.2978 18.5364 34.8878 18.389C34.8878 18.389 35.4938 19.9636 35.9348 20.4978C36.0078 20.6123 36.1138 20.7042 36.2388 20.7628C36.3648 20.8213 36.5048 20.844 36.6428 20.8282C36.5908 21.8176 36.4308 22.7989 36.1648 23.7559C36.1868 23.4923 36.2378 22.4344 35.8408 21.9178C35.5678 21.5744 35.2348 21.2805 34.8548 21.0496C34.9988 21.8336 35.2218 22.6022 35.5198 23.3447C35.5718 23.4701 35.6578 23.5797 35.7688 23.6625C35.8798 23.7452 36.0118 23.7981 36.1508 23.8157C35.8888 24.6872 35.5338 25.5305 35.0928 26.3322C35.1798 25.9315 35.3008 25.1442 35.0528 24.6522C34.8428 24.2592 34.5668 23.9028 34.2348 23.5978C34.2408 24.4015 34.3248 25.2029 34.4868 25.9913C34.5168 26.1137 34.5748 26.2282 34.6558 26.3267C34.7378 26.4251 34.8408 26.505 34.9578 26.5606C34.4368 27.4797 33.8048 28.3362 33.0748 29.1123C33.2278 28.7608 33.5418 27.9595 33.3778 27.3866C33.2438 26.9534 33.0378 26.5439 32.7678 26.174C32.6258 26.9666 32.5618 27.7703 32.5748 28.5745C32.5808 28.7053 32.6168 28.8332 32.6798 28.9492C32.7428 29.0651 32.8318 29.1664 32.9398 29.2458C32.8448 29.3478 32.7468 29.4462 32.6478 29.5446C32.1378 30.0399 31.5918 30.4992 31.0128 30.9188C31.3538 30.528 31.5658 30.0484 31.6228 29.5411C31.6068 29.0826 31.5158 28.6294 31.3528 28.1985C31.0028 28.9217 30.7248 29.6747 30.5208 30.4479C30.4948 30.5685 30.4948 30.6928 30.5198 30.8135C30.5448 30.9342 30.5948 31.0489 30.6668 31.1508C30.0168 31.5986 29.3348 32.0026 28.6268 32.3598C28.9078 32.1595 29.6628 31.5761 29.7908 30.954C29.8678 30.5001 29.8678 30.0371 29.7908 29.5832C29.2928 30.2166 28.8568 30.8932 28.4888 31.6042C28.4258 31.732 28.3958 31.8726 28.4008 32.014C28.4068 32.1554 28.4478 32.2934 28.5208 32.4161C27.7868 32.782 27.0278 33.0991 26.2478 33.365C26.6128 33.1823 27.4158 32.7464 27.6348 32.1982C27.7978 31.7655 27.8798 31.3087 27.8788 30.8485C27.2478 31.4007 26.6688 32.0065 26.1498 32.6586C26.0618 32.7719 26.0048 32.9049 25.9858 33.0451C25.9658 33.1853 25.9828 33.3281 26.0368 33.4599C25.1068 33.7702 24.1538 34.0146 23.1868 34.191C22.5598 34.2991 21.9478 34.476 21.3628 34.7182C20.7778 34.476 20.1648 34.2991 19.5378 34.191C18.5798 34.0107 17.6358 33.764 16.7138 33.4529C16.7688 33.3212 16.7868 33.1783 16.7668 33.0379C16.7468 32.8975 16.6898 32.7644 16.6008 32.6515C16.0808 32.0068 15.5018 31.4081 14.8718 30.8626C14.8708 31.3228 14.9538 31.7796 15.1158 32.2122C15.3348 32.7605 16.1268 33.1963 16.5028 33.3791C15.7228 33.1131 14.9638 32.7961 14.2298 32.4301C14.3048 32.3051 14.3458 32.1641 14.3498 32.0198C14.3538 31.8756 14.3198 31.7327 14.2518 31.6042C13.8758 30.896 13.4318 30.223 12.9268 29.5938C12.8498 30.0477 12.8498 30.5106 12.9268 30.9645C13.0548 31.5761 13.8098 32.1595 14.0908 32.3704C13.3828 32.0131 12.7018 31.6092 12.0508 31.1613C12.1958 30.9554 12.2498 30.7025 12.2008 30.4584C11.9948 29.6855 11.7148 28.9326 11.3648 28.209C11.2018 28.6399 11.1108 29.0931 11.0948 29.5516C11.1518 30.059 11.3638 30.5386 11.7048 30.9294C11.1258 30.5097 10.5798 30.0505 10.0698 29.5551L9.77783 29.2564C9.88583 29.1769 9.97484 29.0757 10.0378 28.9597C10.1008 28.8437 10.1368 28.7159 10.1428 28.5851C10.1568 27.7808 10.0918 26.9772 9.94983 26.1846C9.68583 26.5521 9.4848 26.9579 9.3548 27.3866C9.1908 27.9595 9.50484 28.7678 9.65784 29.1123C8.92784 28.3362 8.29584 27.4797 7.77484 26.5606C7.89484 26.5047 7.99982 26.4236 8.08282 26.3232C8.16582 26.2228 8.22381 26.1057 8.25281 25.9807C8.41481 25.1923 8.49982 24.3909 8.50482 23.5872C8.17282 23.8923 7.89681 24.2487 7.68781 24.6416C7.43981 25.1337 7.55983 25.921 7.64783 26.3216C7.21283 25.51 6.86681 24.6573 6.61481 23.777C6.75381 23.7594 6.88583 23.7065 6.99683 23.6238C7.10783 23.541 7.19379 23.4314 7.24579 23.3061C7.54379 22.5635 7.76579 21.7949 7.90979 21.011C7.53079 21.2418 7.1968 21.5358 6.9248 21.8791C6.5268 22.3958 6.55979 23.4537 6.59979 23.7173C6.33679 22.7637 6.18081 21.7857 6.13281 20.8001C6.27081 20.8152 6.41079 20.7922 6.53479 20.7336C6.65979 20.6751 6.76483 20.5836 6.83783 20.4697C7.27883 19.932 7.88483 18.3609 7.88483 18.3609C7.47483 18.5083 7.09682 18.7263 6.76782 19.0041C6.26082 19.4575 6.14382 20.6173 6.12982 20.7614C6.12982 20.5295 6.12982 20.294 6.12982 20.0585C6.13182 19.2641 6.19581 18.471 6.32281 17.6861C6.44981 17.723 6.58481 17.7258 6.71381 17.6942C6.84181 17.6626 6.9598 17.5978 7.0528 17.5069C7.5748 17.071 8.44983 15.6582 8.44983 15.6582C8.01883 15.7142 7.60384 15.8515 7.22784 16.0623C6.76084 16.333 6.46479 17.1167 6.34479 17.4682C6.50779 16.5361 6.76079 15.6206 7.09979 14.7338C7.21479 14.7897 7.34179 14.8156 7.46979 14.8088C7.59879 14.802 7.72283 14.7628 7.82983 14.6951C8.42483 14.3788 9.54779 13.1803 9.54779 13.1803C9.12179 13.1425 8.6918 13.1855 8.2818 13.3068C7.8598 13.5181 7.51781 13.8527 7.30481 14.2628C7.89481 12.8836 8.70783 11.6026 9.71283 10.467C10.1098 10.3481 10.4808 10.1599 10.8068 9.91169C11.6678 9.28257 13.3318 7.75369 13.3318 7.75369C12.4688 8.07539 11.6358 8.46569 10.8398 8.92056C10.2878 9.2528 9.86984 9.7578 9.65784 10.351C9.28284 10.7726 8.93483 11.215 8.61383 11.676C8.92983 11.1542 9.12781 10.5749 9.19781 9.97495C9.19881 9.48746 9.15679 9.00076 9.07379 8.51988C9.07379 8.51988 8.11083 10.3475 8.12183 11.1207C8.10483 11.2633 8.12982 11.4075 8.19482 11.5368C8.25982 11.6662 8.36082 11.7753 8.48682 11.8518C7.98582 12.5914 7.55781 13.3738 7.20581 14.189C7.36081 13.6952 7.41283 13.1769 7.35883 12.6637C7.26283 12.1848 7.12484 11.7145 6.94684 11.2578C6.94684 11.2578 6.38481 13.2471 6.54181 14.0027C6.55281 14.1405 6.60281 14.2726 6.68781 14.3844C6.77181 14.4961 6.88684 14.583 7.01984 14.6354C6.73784 15.3534 6.51282 16.0913 6.34882 16.8426C6.37682 16.4402 6.32682 16.0362 6.20282 15.6511C6.02082 15.2072 5.79981 14.7792 5.54181 14.3718C5.54181 14.3718 5.35979 16.4419 5.65179 17.1449C5.81579 17.5455 6.06782 17.6369 6.19482 17.658C6.06182 18.4588 5.99481 19.2686 5.99481 20.0796C5.99481 20.2659 5.99481 20.4522 5.99481 20.6384C5.94281 20.022 5.75584 19.4232 5.44684 18.8811C5.16284 18.5014 4.84079 18.1484 4.48779 17.8267C4.48779 17.8267 4.8308 19.8757 5.2868 20.4732C5.6038 20.8915 5.93985 20.8247 6.01685 20.8001C6.09485 22.5599 6.52779 24.2882 7.28979 25.8893C7.08979 25.5573 6.8198 25.2689 6.4978 25.0423C6.1008 24.8211 5.68183 24.6397 5.24683 24.501C5.24683 24.501 6.30479 26.2408 6.93579 26.5923C7.04279 26.6646 7.16984 26.7034 7.30084 26.7034C7.43084 26.7034 7.55883 26.6646 7.66583 26.5923C8.09583 27.3512 8.60184 28.068 9.17584 28.7327C8.88884 28.4646 8.54582 28.2585 8.16882 28.1282C7.73082 28.02 7.28183 27.9575 6.82983 27.9419C6.82983 27.9419 8.28983 29.3478 8.97583 29.5059C9.10383 29.5515 9.24284 29.5567 9.37384 29.5207C9.50584 29.4847 9.62183 29.4093 9.70483 29.3056C9.80783 29.411 9.90581 29.5165 10.0078 29.6184C10.3948 29.9898 10.8018 30.3417 11.2268 30.6728C10.9168 30.4885 10.5698 30.3688 10.2088 30.3213C9.7548 30.2977 9.30081 30.3189 8.85181 30.3846C8.85181 30.3846 10.5118 31.4987 11.2408 31.5339C11.3778 31.5516 11.5158 31.5296 11.6388 31.4707C11.7618 31.4118 11.8638 31.3187 11.9308 31.2035C12.5518 31.6354 13.2018 32.0276 13.8758 32.3774C13.3848 32.1276 12.8398 31.9927 12.2848 31.9838C11.8228 32.0329 11.3668 32.1271 10.9238 32.2649C10.9238 32.2649 12.7778 33.0979 13.5288 33.0136C13.6778 33.012 13.8218 32.9653 13.9408 32.8801C14.0598 32.7949 14.1488 32.6755 14.1928 32.5391C14.8708 32.8735 15.5688 33.1681 16.2838 33.4213C15.7398 33.2587 15.1658 33.212 14.6018 33.2842C14.1318 33.4007 13.6748 33.5608 13.2368 33.7622C13.2368 33.7622 15.3098 34.3105 16.0828 34.1136C16.2318 34.0945 16.3708 34.0315 16.4818 33.9334C16.5918 33.8353 16.6678 33.7068 16.6998 33.5654C17.6278 33.8724 18.5778 34.1156 19.5418 34.2929C20.1208 34.3939 20.6868 34.5529 21.2308 34.7674C20.6628 35.0121 20.1438 35.3498 19.6948 35.7655L19.8158 35.8007C20.2728 35.3937 20.7978 35.0645 21.3698 34.8271C21.9408 35.0716 22.4638 35.4079 22.9168 35.8218L23.0378 35.7866C22.5928 35.3641 22.0758 35.0192 21.5088 34.7674C22.0548 34.5512 22.6238 34.391 23.2048 34.2894C24.1698 34.1125 25.1188 33.8694 26.0478 33.5618C26.0788 33.7032 26.1558 33.8318 26.2658 33.9299C26.3758 34.028 26.5148 34.091 26.6638 34.1101C27.4378 34.307 29.5098 33.7587 29.5098 33.7587C29.0718 33.5572 28.6148 33.3972 28.1458 33.2807C27.5808 33.2084 27.0068 33.2552 26.4638 33.4177C27.1778 33.1646 27.8768 32.87 28.5538 32.5356C28.5988 32.672 28.6868 32.7913 28.8058 32.8766C28.9258 32.9618 29.0698 33.0085 29.2178 33.01C29.9698 33.0944 31.8228 32.2614 31.8228 32.2614C31.3808 32.1236 30.9248 32.0293 30.4628 31.9802C29.9078 31.9896 29.3628 32.1244 28.8718 32.3739C29.5458 32.0241 30.1958 31.6319 30.8158 31.2C30.8838 31.3152 30.9858 31.4083 31.1088 31.4672C31.2318 31.5261 31.3698 31.5481 31.5058 31.5304C32.2358 31.4952 33.8918 30.3776 33.8918 30.3776C33.4428 30.3119 32.9878 30.2907 32.5348 30.3143C32.1738 30.3618 31.8268 30.4815 31.5168 30.6658C31.9418 30.3347 32.3478 29.9828 32.7358 29.6114C32.8378 29.5094 32.9358 29.404 33.0378 29.2986C33.1218 29.4023 33.2378 29.4776 33.3688 29.5137C33.5008 29.5497 33.6398 29.5445 33.7678 29.4989C34.4688 29.3337 35.9138 27.9349 35.9138 27.9349C35.4628 27.9504 35.0148 28.0129 34.5778 28.1211C34.1998 28.2506 33.8558 28.4568 33.5678 28.7257C34.1418 28.061 34.6478 27.3441 35.0778 26.5852C35.1848 26.6575 35.3118 26.6963 35.4428 26.6963C35.5738 26.6963 35.7008 26.6575 35.8078 26.5852C36.4388 26.2338 37.4968 24.494 37.4968 24.494C37.0618 24.6327 36.6418 24.8141 36.2458 25.0353C35.9248 25.2588 35.6548 25.5436 35.4538 25.8718Z" fill="url(#paint6_radial_553_291)"/>
<path d="M10.11 10.8396C9.38099 10.9135 8.625 11.9482 8.625 11.9482C8.724 12.0415 8.84797 12.1059 8.98297 12.134C9.11797 12.162 9.258 12.1525 9.388 12.1066C10.038 11.9236 11.395 10.9874 11.395 10.9874C10.98 10.8602 10.544 10.81 10.11 10.8396Z" fill="url(#paint7_radial_553_291)"/>
<path d="M6.49792 23.7953C6.49792 23.7953 6.16596 22.5507 5.59296 22.0375C5.24396 21.733 4.86491 21.4611 4.46191 21.2254C4.46191 21.2254 5.19193 23.1625 5.73193 23.6476C5.82293 23.7531 5.94895 23.8254 6.08795 23.8523C6.22795 23.8792 6.37192 23.859 6.49792 23.7953Z" fill="url(#paint8_radial_553_291)"/>
<path d="M20.152 6.43717L21.1401 5.83937L22.1291 6.43717L21.845 5.34356L22.7421 4.62269L21.5751 4.54533L21.1401 3.50095L20.7061 4.54533L19.5391 4.62269L20.436 5.34356L20.152 6.43717Z" fill="url(#paint9_radial_553_291)"/>
<path d="M14.4299 6.99817L14.551 7.57816L14.879 7.07902L15.4849 7.14932L15.0939 6.69236L15.353 6.15806L14.78 6.37248L14.3319 5.97528L14.3719 6.5623L13.835 6.85054L14.4299 6.99817Z" fill="url(#paint10_radial_553_291)"/>
<path d="M16.999 6.66119L17.5679 6.04948L18.3889 6.27799L17.9619 5.56434L18.4399 4.88584L17.6049 5.05458L17.0829 4.40421L16.9919 5.22684L16.189 5.50457L16.9699 5.83855L16.999 6.66119Z" fill="url(#paint11_radial_553_291)"/>
<path d="M27.361 7.07902L27.6899 7.57816L27.8099 6.99817L28.4009 6.85054L27.8679 6.5623L27.905 5.97528L27.4559 6.37248L26.887 6.15806L27.142 6.69236L26.752 7.14932L27.361 7.07902Z" fill="url(#paint12_radial_553_291)"/>
<path d="M23.8509 6.27799L24.6719 6.04948L25.2409 6.66119L25.2699 5.83855L26.0509 5.50457L25.2449 5.22684L25.1569 4.40421L24.6319 5.05458L23.7959 4.88584L24.2779 5.56434L23.8509 6.27799Z" fill="url(#paint13_radial_553_291)"/>
<g style="mix-blend-mode:multiply">
<path d="M34.1147 12.1275C34.1147 12.1275 33.3517 11.0927 32.6297 11.0188C32.1957 10.9893 31.7597 11.0394 31.3457 11.1667C31.3457 11.1667 32.7027 12.1029 33.3517 12.2859C33.4817 12.3318 33.6227 12.3412 33.7577 12.3132C33.8927 12.2852 34.0157 12.2208 34.1147 12.1275Z" fill="url(#paint14_linear_553_291)"/>
<path d="M36.2417 23.9717C36.3677 24.0351 36.5127 24.0546 36.6527 24.0271C36.7917 23.9996 36.9177 23.9266 37.0077 23.8205C37.5627 23.3352 38.2777 21.3976 38.2777 21.3976C37.8737 21.632 37.4947 21.9041 37.1467 22.2099C36.5737 22.7304 36.2417 23.9717 36.2417 23.9717Z" fill="url(#paint15_linear_553_291)"/>
<path d="M35.4539 26.051C36.2149 24.4485 36.6479 22.7191 36.7269 20.9583C36.7859 20.9794 37.1208 21.0532 37.4568 20.6314C37.9088 20.0374 38.2519 17.9849 38.2519 17.9849C37.8979 18.3062 37.5769 18.6593 37.2929 19.0393C36.9839 19.5813 36.7969 20.1802 36.7449 20.7966C36.7449 20.6138 36.7449 20.4451 36.7449 20.2413C36.7449 19.4302 36.6779 18.6205 36.5449 17.8197C36.6719 17.7986 36.9099 17.7072 37.0879 17.3065C37.3799 16.6036 37.1979 14.53 37.1979 14.53C36.9389 14.9383 36.7179 15.3675 36.5369 15.8128C36.4119 16.1978 36.3629 16.6018 36.3909 17.0043C36.2259 16.2578 36.0018 15.5246 35.7198 14.8111C35.8528 14.7587 35.9679 14.6718 36.0519 14.5601C36.1369 14.4484 36.1869 14.3163 36.1979 14.1785C36.3589 13.4263 35.7929 11.4371 35.7929 11.4371C35.6149 11.8936 35.4769 12.3639 35.3809 12.8429C35.3269 13.3561 35.3789 13.8745 35.5339 14.3683C35.1819 13.5531 34.7539 12.7707 34.2529 12.031C34.3789 11.954 34.4789 11.8447 34.5439 11.7156C34.6079 11.5864 34.6339 11.4425 34.6179 11.3C34.6179 10.5268 33.6659 8.69913 33.6659 8.69913C33.5829 9.17998 33.5409 9.66669 33.5419 10.1542C33.6119 10.754 33.8109 11.3333 34.1259 11.8553C33.8069 11.3895 33.4599 10.9424 33.0859 10.5162C32.8679 9.93223 32.4509 9.4366 31.9039 9.11034C31.1069 8.65753 30.2739 8.26844 29.4119 7.94699C29.4119 7.94699 31.0749 9.47587 31.9359 10.1015C32.2629 10.3503 32.6339 10.5397 33.0309 10.6603C34.0359 11.7943 34.8489 13.0742 35.4389 14.4526C35.2269 14.0428 34.8839 13.7091 34.4609 13.5002C34.0519 13.3785 33.6219 13.3343 33.1949 13.3701C33.1949 13.3701 34.3189 14.5721 34.9139 14.8884C35.0209 14.9561 35.1449 14.9953 35.2729 15.0021C35.4009 15.0089 35.5289 14.983 35.6429 14.9271C35.9899 15.8145 36.2489 16.7311 36.4169 17.665C36.2969 17.2925 36.0009 16.5122 35.5339 16.2381C35.1599 16.0341 34.7489 15.9005 34.3229 15.8444C34.3229 15.8444 35.1978 17.2503 35.7198 17.6967C35.8128 17.7876 35.9309 17.8524 36.0589 17.884C36.1879 17.9156 36.3229 17.9128 36.4499 17.8759C36.5769 18.6608 36.6409 19.4539 36.6429 20.2483C36.6429 20.4838 36.6429 20.7193 36.6429 20.9512C36.6429 20.7861 36.5119 19.6297 36.0049 19.1763C35.6769 18.897 35.2989 18.6789 34.8879 18.5332C34.8879 18.5332 35.4939 20.1042 35.9349 20.642C36.0089 20.7557 36.1139 20.847 36.2399 20.9049C36.3649 20.9628 36.5049 20.985 36.6429 20.9688C36.5919 21.9582 36.4309 22.9396 36.1649 23.8965C36.1869 23.6329 36.2379 22.5785 35.8399 22.0584C35.5679 21.715 35.2349 21.4211 34.8549 21.1902C34.9989 21.9743 35.2209 22.7429 35.5189 23.4853C35.5709 23.6113 35.6569 23.7217 35.7679 23.8051C35.8789 23.8885 36.0109 23.9419 36.1509 23.9598C35.8989 24.84 35.5519 25.6928 35.1179 26.5044C35.2059 26.1037 35.3259 25.3165 35.0779 24.8244C34.8689 24.4314 34.5919 24.075 34.2609 23.77C34.2659 24.5737 34.3499 25.3751 34.5119 26.1635C34.5389 26.2849 34.5919 26.3994 34.6689 26.499C34.7459 26.5985 34.8439 26.6807 34.9579 26.7399C34.4369 27.6579 33.8049 28.5132 33.0749 29.288C33.2279 28.9366 33.5419 28.1352 33.3779 27.5658C33.2439 27.1316 33.0379 26.721 32.7679 26.3498C32.6259 27.1424 32.5609 27.946 32.5749 28.7503C32.5809 28.8817 32.6159 29.0102 32.6789 29.1268C32.7419 29.2435 32.8309 29.3453 32.9399 29.4251L32.6479 29.7238C32.1389 30.219 31.5929 30.6772 31.0129 31.0946C31.3539 30.7054 31.5669 30.2268 31.6229 29.7203C31.6069 29.2607 31.5159 28.8064 31.3529 28.3742C31.0039 29.0977 30.7249 29.8507 30.5209 30.6236C30.4929 30.747 30.4919 30.8744 30.5169 30.9983C30.5419 31.1221 30.5929 31.2398 30.6669 31.3441C30.0169 31.792 29.3359 32.1949 28.6269 32.5496C28.9079 32.3528 29.6629 31.7694 29.7909 31.1438C29.8679 30.6887 29.8679 30.2246 29.7909 29.7695C29.2859 30.4001 28.8429 31.0743 28.4669 31.7834C28.4039 31.9112 28.3739 32.0519 28.3789 32.1933C28.3849 32.3347 28.4259 32.4726 28.4989 32.5953C27.7639 32.9584 27.0039 33.2753 26.2259 33.5443C26.5909 33.3615 27.3939 32.9222 27.6129 32.3774C27.7759 31.9448 27.8579 31.488 27.8569 31.0278C27.2269 31.5727 26.6489 32.1702 26.1279 32.8132C26.0399 32.9266 25.9829 33.0596 25.9639 33.1998C25.9439 33.34 25.9609 33.4827 26.0149 33.6146C25.0849 33.9277 24.1329 34.1732 23.1649 34.3491C21.3409 34.7006 20.2719 35.3684 19.6729 35.9307L19.7939 35.9694C20.3879 35.4246 21.4279 34.7779 23.1829 34.4546C24.1479 34.281 25.0979 34.0378 26.0259 33.727C26.0569 33.8691 26.1329 33.9984 26.2429 34.0972C26.3529 34.196 26.4929 34.2595 26.6419 34.2788C27.4159 34.4757 29.4879 33.9274 29.4879 33.9274C29.0509 33.7242 28.5939 33.5641 28.1239 33.4494C27.5589 33.3772 26.9849 33.4239 26.4419 33.5865C27.1559 33.3318 27.8539 33.0373 28.5319 32.7043C28.5769 32.8403 28.6649 32.9592 28.7849 33.0438C28.9039 33.1285 29.0479 33.1745 29.1959 33.1752C29.9479 33.2631 31.8009 32.4301 31.8009 32.4301C31.3589 32.2904 30.9029 32.1961 30.4409 32.149C29.8859 32.1589 29.3419 32.2924 28.8499 32.5391C29.5239 32.1905 30.1739 31.7995 30.7939 31.3687C30.8619 31.4833 30.9639 31.5756 31.0869 31.6339C31.2099 31.6922 31.3479 31.7136 31.4839 31.6956C32.2139 31.6639 33.8699 30.5463 33.8699 30.5463C33.4209 30.4786 32.9659 30.4574 32.5129 30.483C32.1509 30.5288 31.8039 30.6487 31.4949 30.8345C31.9199 30.5033 32.3259 30.1514 32.7139 29.7801L33.0159 29.4708C33.1009 29.5741 33.2159 29.6491 33.3479 29.6851C33.4789 29.7211 33.6178 29.7162 33.7458 29.6711C34.4468 29.5059 35.8919 28.1071 35.8919 28.1071C35.4409 28.1225 34.9929 28.1837 34.5559 28.2899C34.1769 28.4193 33.8319 28.6268 33.5459 28.8979C34.1209 28.2326 34.6269 27.5145 35.0559 26.7539C35.1629 26.8262 35.2899 26.865 35.4209 26.865C35.5509 26.865 35.6789 26.8262 35.7859 26.7539C36.4169 26.4025 37.4749 24.6452 37.4749 24.6452C37.0399 24.7859 36.6209 24.9684 36.2239 25.1899C35.9069 25.4219 35.6449 25.7153 35.4539 26.051Z" fill="url(#paint16_linear_553_291)"/>
</g>
<g style="mix-blend-mode:multiply">
<path d="M34.1147 12.1275C34.1147 12.1275 33.3517 11.0927 32.6297 11.0188C32.1957 10.9893 31.7597 11.0394 31.3457 11.1667C31.3457 11.1667 32.7027 12.1029 33.3517 12.2859C33.4817 12.3318 33.6227 12.3412 33.7577 12.3132C33.8927 12.2852 34.0157 12.2208 34.1147 12.1275Z" fill="url(#paint17_linear_553_291)"/>
<path d="M36.2417 23.9717C36.3677 24.0351 36.5127 24.0546 36.6527 24.0271C36.7917 23.9996 36.9177 23.9266 37.0077 23.8205C37.5627 23.3352 38.2777 21.3976 38.2777 21.3976C37.8737 21.632 37.4947 21.9041 37.1467 22.2099C36.5737 22.7304 36.2417 23.9717 36.2417 23.9717Z" fill="url(#paint18_linear_553_291)"/>
<path d="M35.4539 26.051C36.2149 24.4485 36.6479 22.7191 36.7269 20.9583C36.7859 20.9794 37.1208 21.0532 37.4568 20.6314C37.9088 20.0374 38.2519 17.9849 38.2519 17.9849C37.8979 18.3062 37.5769 18.6593 37.2929 19.0393C36.9839 19.5813 36.7969 20.1802 36.7449 20.7966C36.7449 20.6138 36.7449 20.4451 36.7449 20.2413C36.7449 19.4302 36.6779 18.6205 36.5449 17.8197C36.6719 17.7986 36.9099 17.7072 37.0879 17.3065C37.3799 16.6036 37.1979 14.53 37.1979 14.53C36.9389 14.9383 36.7179 15.3675 36.5369 15.8128C36.4119 16.1978 36.3629 16.6018 36.3909 17.0043C36.2259 16.2578 36.0018 15.5246 35.7198 14.8111C35.8528 14.7587 35.9679 14.6718 36.0519 14.5601C36.1369 14.4484 36.1869 14.3163 36.1979 14.1785C36.3589 13.4263 35.7929 11.4371 35.7929 11.4371C35.6149 11.8936 35.4769 12.3639 35.3809 12.8429C35.3269 13.3561 35.3789 13.8745 35.5339 14.3683C35.1819 13.5531 34.7539 12.7707 34.2529 12.031C34.3789 11.954 34.4789 11.8447 34.5439 11.7156C34.6079 11.5864 34.6339 11.4425 34.6179 11.3C34.6179 10.5268 33.6659 8.69913 33.6659 8.69913C33.5829 9.17998 33.5409 9.66669 33.5419 10.1542C33.6119 10.754 33.8109 11.3333 34.1259 11.8553C33.8069 11.3895 33.4599 10.9424 33.0859 10.5162C32.8679 9.93223 32.4509 9.4366 31.9039 9.11034C31.1069 8.65753 30.2739 8.26844 29.4119 7.94699C29.4119 7.94699 31.0749 9.47587 31.9359 10.1015C32.2629 10.3503 32.6339 10.5397 33.0309 10.6603C34.0359 11.7943 34.8489 13.0742 35.4389 14.4526C35.2269 14.0428 34.8839 13.7091 34.4609 13.5002C34.0519 13.3785 33.6219 13.3343 33.1949 13.3701C33.1949 13.3701 34.3189 14.5721 34.9139 14.8884C35.0209 14.9561 35.1449 14.9953 35.2729 15.0021C35.4009 15.0089 35.5289 14.983 35.6429 14.9271C35.9899 15.8145 36.2489 16.7311 36.4169 17.665C36.2969 17.2925 36.0009 16.5122 35.5339 16.2381C35.1599 16.0341 34.7489 15.9005 34.3229 15.8444C34.3229 15.8444 35.1978 17.2503 35.7198 17.6967C35.8128 17.7876 35.9309 17.8524 36.0589 17.884C36.1879 17.9156 36.3229 17.9128 36.4499 17.8759C36.5769 18.6608 36.6409 19.4539 36.6429 20.2483C36.6429 20.4838 36.6429 20.7193 36.6429 20.9512C36.6429 20.7861 36.5119 19.6297 36.0049 19.1763C35.6769 18.897 35.2989 18.6789 34.8879 18.5332C34.8879 18.5332 35.4939 20.1042 35.9349 20.642C36.0089 20.7557 36.1139 20.847 36.2399 20.9049C36.3649 20.9628 36.5049 20.985 36.6429 20.9688C36.5919 21.9582 36.4309 22.9396 36.1649 23.8965C36.1869 23.6329 36.2379 22.5785 35.8399 22.0584C35.5679 21.715 35.2349 21.4211 34.8549 21.1902C34.9989 21.9743 35.2209 22.7429 35.5189 23.4853C35.5709 23.6113 35.6569 23.7217 35.7679 23.8051C35.8789 23.8885 36.0109 23.9419 36.1509 23.9598C35.8989 24.84 35.5519 25.6928 35.1179 26.5044C35.2059 26.1037 35.3259 25.3165 35.0779 24.8244C34.8689 24.4314 34.5919 24.075 34.2609 23.77C34.2659 24.5737 34.3499 25.3751 34.5119 26.1635C34.5389 26.2849 34.5919 26.3994 34.6689 26.499C34.7459 26.5985 34.8439 26.6807 34.9579 26.7399C34.4369 27.6579 33.8049 28.5132 33.0749 29.288C33.2279 28.9366 33.5419 28.1352 33.3779 27.5658C33.2439 27.1316 33.0379 26.721 32.7679 26.3498C32.6259 27.1424 32.5609 27.946 32.5749 28.7503C32.5809 28.8817 32.6159 29.0102 32.6789 29.1268C32.7419 29.2435 32.8309 29.3453 32.9399 29.4251L32.6479 29.7238C32.1389 30.219 31.5929 30.6772 31.0129 31.0946C31.3539 30.7054 31.5669 30.2268 31.6229 29.7203C31.6069 29.2607 31.5159 28.8064 31.3529 28.3742C31.0039 29.0977 30.7249 29.8507 30.5209 30.6236C30.4929 30.747 30.4919 30.8744 30.5169 30.9983C30.5419 31.1221 30.5929 31.2398 30.6669 31.3441C30.0169 31.792 29.3359 32.1949 28.6269 32.5496C28.9079 32.3528 29.6629 31.7694 29.7909 31.1438C29.8679 30.6887 29.8679 30.2246 29.7909 29.7695C29.2859 30.4001 28.8429 31.0743 28.4669 31.7834C28.4039 31.9112 28.3739 32.0519 28.3789 32.1933C28.3849 32.3347 28.4259 32.4726 28.4989 32.5953C27.7639 32.9584 27.0039 33.2753 26.2259 33.5443C26.5909 33.3615 27.3939 32.9222 27.6129 32.3774C27.7759 31.9448 27.8579 31.488 27.8569 31.0278C27.2269 31.5727 26.6489 32.1702 26.1279 32.8132C26.0399 32.9266 25.9829 33.0596 25.9639 33.1998C25.9439 33.34 25.9609 33.4827 26.0149 33.6146C25.0849 33.9277 24.1329 34.1732 23.1649 34.3491C21.3409 34.7006 20.2719 35.3684 19.6729 35.9307L19.7939 35.9694C20.3879 35.4246 21.4279 34.7779 23.1829 34.4546C24.1479 34.281 25.0979 34.0378 26.0259 33.727C26.0569 33.8691 26.1329 33.9984 26.2429 34.0972C26.3529 34.196 26.4929 34.2595 26.6419 34.2788C27.4159 34.4757 29.4879 33.9274 29.4879 33.9274C29.0509 33.7242 28.5939 33.5641 28.1239 33.4494C27.5589 33.3772 26.9849 33.4239 26.4419 33.5865C27.1559 33.3318 27.8539 33.0373 28.5319 32.7043C28.5769 32.8403 28.6649 32.9592 28.7849 33.0438C28.9039 33.1285 29.0479 33.1745 29.1959 33.1752C29.9479 33.2631 31.8009 32.4301 31.8009 32.4301C31.3589 32.2904 30.9029 32.1961 30.4409 32.149C29.8859 32.1589 29.3419 32.2924 28.8499 32.5391C29.5239 32.1905 30.1739 31.7995 30.7939 31.3687C30.8619 31.4833 30.9639 31.5756 31.0869 31.6339C31.2099 31.6922 31.3479 31.7136 31.4839 31.6956C32.2139 31.6639 33.8699 30.5463 33.8699 30.5463C33.4209 30.4786 32.9659 30.4574 32.5129 30.483C32.1509 30.5288 31.8039 30.6487 31.4949 30.8345C31.9199 30.5033 32.3259 30.1514 32.7139 29.7801L33.0159 29.4708C33.1009 29.5741 33.2159 29.6491 33.3479 29.6851C33.4789 29.7211 33.6178 29.7162 33.7458 29.6711C34.4468 29.5059 35.8919 28.1071 35.8919 28.1071C35.4409 28.1225 34.9929 28.1837 34.5559 28.2899C34.1769 28.4193 33.8319 28.6268 33.5459 28.8979C34.1209 28.2326 34.6269 27.5145 35.0559 26.7539C35.1629 26.8262 35.2899 26.865 35.4209 26.865C35.5509 26.865 35.6789 26.8262 35.7859 26.7539C36.4169 26.4025 37.4749 24.6452 37.4749 24.6452C37.0399 24.7859 36.6209 24.9684 36.2239 25.1899C35.9069 25.4219 35.6449 25.7153 35.4539 26.051Z" fill="url(#paint19_linear_553_291)"/>
</g>
<g style="mix-blend-mode:multiply">
<path d="M8.53125 12.1275C8.53125 12.1275 9.29424 11.0927 10.0162 11.0188C10.4502 10.9892 10.8863 11.0394 11.3013 11.1666C11.3013 11.1666 9.94325 12.1028 9.29425 12.2858C9.16425 12.3317 9.02422 12.3412 8.88922 12.3132C8.75422 12.2851 8.63025 12.2207 8.53125 12.1275Z" fill="url(#paint20_linear_553_291)"/>
<path d="M6.40417 23.971C6.27717 24.0344 6.13216 24.054 5.99316 24.0264C5.85316 23.9989 5.72821 23.9259 5.63721 23.8198C5.08321 23.3347 4.36816 21.4117 4.36816 21.4117C4.77116 21.646 5.15021 21.918 5.49921 22.2238C6.07221 22.73 6.40417 23.971 6.40417 23.971Z" fill="url(#paint21_linear_553_291)"/>
<path d="M7.19208 26.051C6.43008 24.4485 5.99709 22.7191 5.91809 20.9583C5.86009 20.9793 5.52405 21.0532 5.18805 20.6314C4.73605 20.0374 4.39307 17.9849 4.39307 17.9849C4.74707 18.3062 5.06809 18.6592 5.35309 19.0393C5.66209 19.5813 5.84809 20.1802 5.90009 20.7966C5.90009 20.6138 5.90009 20.4451 5.90009 20.2413C5.90009 19.4302 5.96807 18.6205 6.10107 17.8197C5.97307 17.7986 5.73607 17.7072 5.55707 17.3065C5.26507 16.6036 5.44806 14.5299 5.44806 14.5299C5.70606 14.9383 5.92703 15.3675 6.10803 15.8128C6.23303 16.1978 6.28209 16.6018 6.25409 17.0043C6.41909 16.2578 6.64405 15.5246 6.92505 14.8111C6.79205 14.7587 6.67808 14.6718 6.59308 14.5601C6.50908 14.4484 6.45808 14.3162 6.44708 14.1785C6.28708 13.4263 6.85205 11.437 6.85205 11.437C7.03105 11.8936 7.16908 12.3639 7.26508 12.8429C7.32008 13.3608 7.26808 13.884 7.11108 14.3823C7.46308 13.5671 7.89209 12.7847 8.39209 12.0451C8.26709 11.968 8.16607 11.8588 8.10107 11.7296C8.03707 11.6004 8.01104 11.4565 8.02704 11.314C8.02704 10.5408 8.97906 8.71318 8.97906 8.71318C9.06106 9.19297 9.10204 9.6785 9.10004 10.1647C9.03004 10.7646 8.83105 11.3438 8.51605 11.8658C8.83605 11.3964 9.18406 10.9457 9.56006 10.5162C9.77706 9.93222 10.1941 9.4366 10.7421 9.11034C11.5381 8.65753 12.3711 8.26844 13.2341 7.94699C13.2341 7.94699 11.57 9.46181 10.709 10.0839C10.382 10.3327 10.0111 10.5221 9.61407 10.6427C8.60907 11.7767 7.79605 13.0566 7.20605 14.435C7.41805 14.0252 7.76108 13.6915 8.18408 13.4826C8.59308 13.3609 9.02307 13.3167 9.45007 13.3525C9.45007 13.3525 8.32306 14.5545 7.72406 14.8709C7.61706 14.9385 7.49305 14.9777 7.36505 14.9845C7.23705 14.9913 7.10906 14.9654 6.99506 14.9095C6.64906 15.8027 6.39104 16.7253 6.22504 17.665C6.34504 17.2925 6.64103 16.5122 7.10803 16.2381C7.48303 16.0337 7.89506 15.9001 8.32306 15.8444C8.32306 15.8444 7.44705 17.2503 6.92505 17.6967C6.83205 17.7876 6.71506 17.8524 6.58606 17.884C6.45806 17.9155 6.32307 17.9128 6.19507 17.8759C6.06807 18.6608 6.00408 19.4539 6.00208 20.2483C6.00208 20.4838 6.00208 20.7193 6.02008 20.9512C6.02008 20.786 6.15206 19.6297 6.65906 19.1763C6.98606 18.897 7.36509 18.6789 7.77509 18.5331C7.77509 18.5331 7.17009 20.1042 6.72809 20.6419C6.65509 20.7551 6.55005 20.846 6.42505 20.9039C6.30105 20.9617 6.16105 20.9843 6.02405 20.9688C6.07205 21.9606 6.23105 22.9446 6.49805 23.9035C6.47605 23.6399 6.42506 22.5855 6.82306 22.0654C7.09506 21.722 7.42904 21.4281 7.80804 21.1973C7.66504 21.9813 7.44304 22.7499 7.14404 23.4923C7.09204 23.6183 7.00608 23.7287 6.89508 23.8121C6.78408 23.8955 6.65206 23.9489 6.51306 23.9668C6.76506 24.8471 7.11104 25.6998 7.54504 26.5114C7.45804 26.1108 7.33806 25.3235 7.58606 24.8314C7.79506 24.4384 8.07108 24.082 8.40308 23.777C8.39708 24.5807 8.31306 25.3821 8.15106 26.1705C8.12106 26.2949 8.06304 26.4112 7.98004 26.511C7.89704 26.6107 7.79303 26.6914 7.67303 26.7469C8.19403 27.6649 8.82609 28.5202 9.55609 29.295C9.40309 28.9436 9.08905 28.1422 9.25305 27.5729C9.38705 27.1386 9.59306 26.728 9.86206 26.3568C10.0051 27.1494 10.0691 27.9531 10.0561 28.7573C10.0501 28.8887 10.014 29.0172 9.95105 29.1339C9.88805 29.2505 9.79904 29.3523 9.69104 29.4321L9.98303 29.7309C10.489 30.2232 11.0311 30.679 11.6061 31.0946C11.2651 30.7054 11.0531 30.2268 10.9971 29.7203C11.0131 29.2607 11.1041 28.8064 11.2671 28.3742C11.6161 29.098 11.8961 29.8509 12.1031 30.6236C12.1321 30.746 12.135 30.8729 12.113 30.9966C12.09 31.1204 12.0421 31.2385 11.9711 31.3441C12.6211 31.792 13.302 32.1949 14.011 32.5496C13.73 32.3528 12.975 31.7694 12.847 31.1438C12.77 30.6887 12.77 30.2246 12.847 29.7695C13.349 30.405 13.7891 31.0839 14.1611 31.7975C14.2251 31.925 14.2551 32.0658 14.2491 32.2074C14.2441 32.3489 14.2021 32.487 14.1281 32.6094C14.8631 32.9724 15.6231 33.2894 16.4011 33.5583C16.0361 33.3756 15.233 32.9362 15.014 32.3915C14.852 31.9588 14.7691 31.502 14.7701 31.0418C15.4001 31.5868 15.9781 32.1843 16.4991 32.8273C16.5881 32.9402 16.645 33.0732 16.665 33.2136C16.685 33.354 16.6671 33.497 16.6121 33.6286C17.5421 33.9413 18.495 34.1868 19.462 34.3632C21.286 34.7147 22.355 35.3824 22.954 35.9448L22.8331 35.9834C22.2391 35.4387 21.199 34.792 19.444 34.4686C18.479 34.2947 17.5291 34.0515 16.6011 33.7411C16.5701 33.8831 16.494 34.0125 16.384 34.1113C16.274 34.2101 16.134 34.2735 15.985 34.2929C15.211 34.4897 13.139 33.9414 13.139 33.9414C13.576 33.7382 14.0331 33.5781 14.5031 33.4634C15.0681 33.3912 15.642 33.438 16.186 33.6005C15.471 33.3459 14.773 33.0513 14.095 32.7183C14.05 32.8544 13.962 32.9733 13.842 33.0579C13.723 33.1425 13.5791 33.1885 13.4311 33.1893C12.6791 33.2772 10.826 32.4442 10.826 32.4442C11.268 32.3044 11.7241 32.2102 12.1871 32.163C12.7411 32.1725 13.286 32.306 13.777 32.5531C13.103 32.2045 12.4541 31.8135 11.8331 31.3828C11.7651 31.4973 11.663 31.5897 11.54 31.648C11.417 31.7062 11.2791 31.7277 11.1431 31.7096C10.4131 31.678 8.75708 30.5603 8.75708 30.5603C9.20608 30.4927 9.66107 30.4714 10.1141 30.4971C10.4761 30.5429 10.8231 30.6627 11.1321 30.8485C10.7071 30.5174 10.3011 30.1655 9.91309 29.7941L9.60706 29.4954C9.52306 29.5987 9.40706 29.6737 9.27606 29.7097C9.14506 29.7457 9.00508 29.7408 8.87708 29.6957C8.17708 29.5305 6.73206 28.1317 6.73206 28.1317C7.18206 28.1471 7.63008 28.2083 8.06708 28.3144C8.44608 28.4439 8.79106 28.6514 9.07806 28.9225C8.51106 28.255 8.01408 27.5357 7.59308 26.775C7.48608 26.8473 7.35909 26.8861 7.22809 26.8861C7.09709 26.8861 6.97004 26.8473 6.86304 26.775C6.23204 26.4236 5.17407 24.6662 5.17407 24.6662C5.60907 24.807 6.02805 24.9895 6.42505 25.211C6.73805 25.4372 6.99908 25.7232 7.19208 26.051Z" fill="url(#paint22_linear_553_291)"/>
</g>
<g style="mix-blend-mode:multiply">
<path d="M8.53125 12.1275C8.53125 12.1275 9.29424 11.0927 10.0162 11.0188C10.4502 10.9892 10.8863 11.0394 11.3013 11.1666C11.3013 11.1666 9.94325 12.1028 9.29425 12.2858C9.16425 12.3317 9.02422 12.3412 8.88922 12.3132C8.75422 12.2851 8.63025 12.2207 8.53125 12.1275Z" fill="url(#paint23_linear_553_291)"/>
<path d="M6.40417 23.971C6.27717 24.0344 6.13216 24.054 5.99316 24.0264C5.85316 23.9989 5.72821 23.9259 5.63721 23.8198C5.08321 23.3347 4.36816 21.4117 4.36816 21.4117C4.77116 21.646 5.15021 21.918 5.49921 22.2238C6.07221 22.73 6.40417 23.971 6.40417 23.971Z" fill="url(#paint24_linear_553_291)"/>
<path d="M7.19208 26.051C6.43008 24.4485 5.99709 22.7191 5.91809 20.9583C5.86009 20.9793 5.52405 21.0532 5.18805 20.6314C4.73605 20.0374 4.39307 17.9849 4.39307 17.9849C4.74707 18.3062 5.06809 18.6592 5.35309 19.0393C5.66209 19.5813 5.84809 20.1802 5.90009 20.7966C5.90009 20.6138 5.90009 20.4451 5.90009 20.2413C5.90009 19.4302 5.96807 18.6205 6.10107 17.8197C5.97307 17.7986 5.73607 17.7072 5.55707 17.3065C5.26507 16.6036 5.44806 14.5299 5.44806 14.5299C5.70606 14.9383 5.92703 15.3675 6.10803 15.8128C6.23303 16.1978 6.28209 16.6018 6.25409 17.0043C6.41909 16.2578 6.64405 15.5246 6.92505 14.8111C6.79205 14.7587 6.67808 14.6718 6.59308 14.5601C6.50908 14.4484 6.45808 14.3162 6.44708 14.1785C6.28708 13.4263 6.85205 11.437 6.85205 11.437C7.03105 11.8936 7.16908 12.3639 7.26508 12.8429C7.32008 13.3608 7.26808 13.884 7.11108 14.3823C7.46308 13.5671 7.89209 12.7847 8.39209 12.0451C8.26709 11.968 8.16607 11.8588 8.10107 11.7296C8.03707 11.6004 8.01104 11.4565 8.02704 11.314C8.02704 10.5408 8.97906 8.71318 8.97906 8.71318C9.06106 9.19297 9.10204 9.6785 9.10004 10.1647C9.03004 10.7646 8.83105 11.3438 8.51605 11.8658C8.83605 11.3964 9.18406 10.9457 9.56006 10.5162C9.77706 9.93222 10.1941 9.4366 10.7421 9.11034C11.5381 8.65753 12.3711 8.26844 13.2341 7.94699C13.2341 7.94699 11.57 9.46181 10.709 10.0839C10.382 10.3327 10.0111 10.5221 9.61407 10.6427C8.60907 11.7767 7.79605 13.0566 7.20605 14.435C7.41805 14.0252 7.76108 13.6915 8.18408 13.4826C8.59308 13.3609 9.02307 13.3167 9.45007 13.3525C9.45007 13.3525 8.32306 14.5545 7.72406 14.8709C7.61706 14.9385 7.49305 14.9777 7.36505 14.9845C7.23705 14.9913 7.10906 14.9654 6.99506 14.9095C6.64906 15.8027 6.39104 16.7253 6.22504 17.665C6.34504 17.2925 6.64103 16.5122 7.10803 16.2381C7.48303 16.0337 7.89506 15.9001 8.32306 15.8444C8.32306 15.8444 7.44705 17.2503 6.92505 17.6967C6.83205 17.7876 6.71506 17.8524 6.58606 17.884C6.45806 17.9155 6.32307 17.9128 6.19507 17.8759C6.06807 18.6608 6.00408 19.4539 6.00208 20.2483C6.00208 20.4838 6.00208 20.7193 6.02008 20.9512C6.02008 20.786 6.15206 19.6297 6.65906 19.1763C6.98606 18.897 7.36509 18.6789 7.77509 18.5331C7.77509 18.5331 7.17009 20.1042 6.72809 20.6419C6.65509 20.7551 6.55005 20.846 6.42505 20.9039C6.30105 20.9617 6.16105 20.9843 6.02405 20.9688C6.07205 21.9606 6.23105 22.9446 6.49805 23.9035C6.47605 23.6399 6.42506 22.5855 6.82306 22.0654C7.09506 21.722 7.42904 21.4281 7.80804 21.1973C7.66504 21.9813 7.44304 22.7499 7.14404 23.4923C7.09204 23.6183 7.00608 23.7287 6.89508 23.8121C6.78408 23.8955 6.65206 23.9489 6.51306 23.9668C6.76506 24.8471 7.11104 25.6998 7.54504 26.5114C7.45804 26.1108 7.33806 25.3235 7.58606 24.8314C7.79506 24.4384 8.07108 24.082 8.40308 23.777C8.39708 24.5807 8.31306 25.3821 8.15106 26.1705C8.12106 26.2949 8.06304 26.4112 7.98004 26.511C7.89704 26.6107 7.79303 26.6914 7.67303 26.7469C8.19403 27.6649 8.82609 28.5202 9.55609 29.295C9.40309 28.9436 9.08905 28.1422 9.25305 27.5729C9.38705 27.1386 9.59306 26.728 9.86206 26.3568C10.0051 27.1494 10.0691 27.9531 10.0561 28.7573C10.0501 28.8887 10.014 29.0172 9.95105 29.1339C9.88805 29.2505 9.79904 29.3523 9.69104 29.4321L9.98303 29.7309C10.489 30.2232 11.0311 30.679 11.6061 31.0946C11.2651 30.7054 11.0531 30.2268 10.9971 29.7203C11.0131 29.2607 11.1041 28.8064 11.2671 28.3742C11.6161 29.098 11.8961 29.8509 12.1031 30.6236C12.1321 30.746 12.135 30.8729 12.113 30.9966C12.09 31.1204 12.0421 31.2385 11.9711 31.3441C12.6211 31.792 13.302 32.1949 14.011 32.5496C13.73 32.3528 12.975 31.7694 12.847 31.1438C12.77 30.6887 12.77 30.2246 12.847 29.7695C13.349 30.405 13.7891 31.0839 14.1611 31.7975C14.2251 31.925 14.2551 32.0658 14.2491 32.2074C14.2441 32.3489 14.2021 32.487 14.1281 32.6094C14.8631 32.9724 15.6231 33.2894 16.4011 33.5583C16.0361 33.3756 15.233 32.9362 15.014 32.3915C14.852 31.9588 14.7691 31.502 14.7701 31.0418C15.4001 31.5868 15.9781 32.1843 16.4991 32.8273C16.5881 32.9402 16.645 33.0732 16.665 33.2136C16.685 33.354 16.6671 33.497 16.6121 33.6286C17.5421 33.9413 18.495 34.1868 19.462 34.3632C21.286 34.7147 22.355 35.3824 22.954 35.9448L22.8331 35.9834C22.2391 35.4387 21.199 34.792 19.444 34.4686C18.479 34.2947 17.5291 34.0515 16.6011 33.7411C16.5701 33.8831 16.494 34.0125 16.384 34.1113C16.274 34.2101 16.134 34.2735 15.985 34.2929C15.211 34.4897 13.139 33.9414 13.139 33.9414C13.576 33.7382 14.0331 33.5781 14.5031 33.4634C15.0681 33.3912 15.642 33.438 16.186 33.6005C15.471 33.3459 14.773 33.0513 14.095 32.7183C14.05 32.8544 13.962 32.9733 13.842 33.0579C13.723 33.1425 13.5791 33.1885 13.4311 33.1893C12.6791 33.2772 10.826 32.4442 10.826 32.4442C11.268 32.3044 11.7241 32.2102 12.1871 32.163C12.7411 32.1725 13.286 32.306 13.777 32.5531C13.103 32.2045 12.4541 31.8135 11.8331 31.3828C11.7651 31.4973 11.663 31.5897 11.54 31.648C11.417 31.7062 11.2791 31.7277 11.1431 31.7096C10.4131 31.678 8.75708 30.5603 8.75708 30.5603C9.20608 30.4927 9.66107 30.4714 10.1141 30.4971C10.4761 30.5429 10.8231 30.6627 11.1321 30.8485C10.7071 30.5174 10.3011 30.1655 9.91309 29.7941L9.60706 29.4954C9.52306 29.5987 9.40706 29.6737 9.27606 29.7097C9.14506 29.7457 9.00508 29.7408 8.87708 29.6957C8.17708 29.5305 6.73206 28.1317 6.73206 28.1317C7.18206 28.1471 7.63008 28.2083 8.06708 28.3144C8.44608 28.4439 8.79106 28.6514 9.07806 28.9225C8.51106 28.255 8.01408 27.5357 7.59308 26.775C7.48608 26.8473 7.35909 26.8861 7.22809 26.8861C7.09709 26.8861 6.97004 26.8473 6.86304 26.775C6.23204 26.4236 5.17407 24.6662 5.17407 24.6662C5.60907 24.807 6.02805 24.9895 6.42505 25.211C6.73805 25.4372 6.99908 25.7232 7.19208 26.051Z" fill="url(#paint25_linear_553_291)"/>
</g>
<g opacity="0.54">
<path style="mix-blend-mode:multiply" d="M21.5782 4.60508L21.1372 3.54312L20.6952 4.60508L19.5132 4.67893L20.4222 5.41386L20.1332 6.52154L21.1372 5.9132L22.1402 6.52154L21.8522 5.41386L22.7602 4.67893L21.5782 4.60508Z" fill="url(#paint26_linear_553_291)"/>
<path style="mix-blend-mode:multiply" d="M15.266 6.23537L14.69 6.45682L14.233 6.05258L14.274 6.64663L13.73 6.9419L14.332 7.08954L14.452 7.67656L14.788 7.17039L15.405 7.24069L15.007 6.78021L15.266 6.23537Z" fill="url(#paint27_linear_553_291)"/>
<path style="mix-blend-mode:multiply" d="M17.5542 5.12183L17.0212 4.46091L16.9302 5.29058L16.1162 5.57534L16.9082 5.91283L16.9372 6.74953L17.5142 6.12728L18.3492 6.3593L17.9112 5.63862L18.4002 4.94605L17.5542 5.12183Z" fill="url(#paint28_linear_553_291)"/>
<path style="mix-blend-mode:multiply" d="M27.9591 6.64663L27.9951 6.05258L27.5391 6.45682L26.9631 6.23537L27.2221 6.78021L26.8281 7.24069L27.4441 7.17039L27.7761 7.67656L27.8971 7.08954L28.4991 6.9419L27.9591 6.64663Z" fill="url(#paint29_linear_553_291)"/>
<path style="mix-blend-mode:multiply" d="M25.2121 4.46088L24.6791 5.12181L23.8291 4.94603L24.3181 5.63859L23.8841 6.35928L24.7161 6.12725L25.2961 6.74951L25.3211 5.9128L26.1171 5.57531L25.3001 5.29055L25.2121 4.46088Z" fill="url(#paint30_linear_553_291)"/>
</g>
<path d="M17.9059 24.6918L19.5769 14.51H20.9689L19.2979 24.6918H17.9059ZM13.3179 22.0668L13.5509 20.6748H21.3859L21.1529 22.0668H13.3179ZM14.3269 24.6918L15.9969 14.51H17.3889L15.7189 24.6918H14.3269ZM13.9089 18.5271L14.1379 17.135H21.9729L21.7439 18.5271H13.9089ZM27.1989 14.51V24.6918H25.3549V16.3048H25.2949L22.9139 17.8261V16.1357L25.4449 14.51H27.1989Z" fill="#E9C91A"/>
<path d="M58.7429 28H56.064L62.0839 11.2727H64.9999L71.0189 28H68.34L63.611 14.3111H63.481L58.7429 28ZM59.1929 21.4496H67.8829V23.5732H59.1929V21.4496ZM81.1859 22.7972V15.4545H83.6359V28H81.2349V25.8274H81.1039C80.8159 26.4972 80.3529 27.0553 79.7159 27.5018C79.0839 27.9428 78.2969 28.1634 77.3549 28.1634C76.5489 28.1634 75.836 27.9864 75.215 27.6325C74.6 27.2731 74.116 26.7422 73.762 26.0398C73.413 25.3374 73.239 24.4689 73.239 23.4343V15.4545H75.681V23.1403C75.681 23.9951 75.918 24.6758 76.392 25.1822C76.865 25.6886 77.4809 25.9418 78.2369 25.9418C78.6949 25.9418 79.149 25.8274 79.601 25.5987C80.059 25.37 80.4369 25.0243 80.7369 24.5614C81.0419 24.0986 81.1909 23.5105 81.1859 22.7972ZM91.614 28.245C90.601 28.245 89.6969 27.9864 88.9019 27.4691C88.1129 26.9464 87.4919 26.2031 87.0399 25.2393C86.5939 24.2701 86.3699 23.1076 86.3699 21.7518C86.3699 20.396 86.5959 19.2362 87.0479 18.2724C87.5059 17.3086 88.1319 16.5708 88.9269 16.0589C89.7219 15.5471 90.6229 15.2912 91.6299 15.2912C92.4089 15.2912 93.0349 15.4219 93.5089 15.6832C93.9879 15.9392 94.3579 16.2386 94.6199 16.5817C94.8859 16.9247 95.0929 17.2269 95.2399 17.4883H95.387V11.2727H97.83V28H95.4449V26.0479H95.2399C95.0929 26.3147 94.881 26.6197 94.603 26.9627C94.331 27.3058 93.955 27.6052 93.476 27.8612C92.997 28.1171 92.376 28.245 91.614 28.245ZM92.153 26.1623C92.855 26.1623 93.449 25.9772 93.934 25.6069C94.424 25.2312 94.7939 24.7112 95.0439 24.0469C95.2999 23.3826 95.4279 22.6094 95.4279 21.7273C95.4279 20.8561 95.3029 20.0937 95.0529 19.4403C94.8019 18.7869 94.434 18.2778 93.95 17.913C93.465 17.5482 92.866 17.3658 92.153 17.3658C91.418 17.3658 90.8049 17.5563 90.3149 17.9375C89.8249 18.3187 89.455 18.8387 89.205 19.4975C88.959 20.1564 88.8369 20.8996 88.8369 21.7273C88.8369 22.5658 88.962 23.32 89.213 23.9897C89.463 24.6594 89.8329 25.1903 90.3229 25.5824C90.8189 25.969 91.429 26.1623 92.153 26.1623ZM101.315 28V15.4545H103.757V28H101.315ZM102.548 13.5188C102.124 13.5188 101.759 13.3772 101.454 13.0941C101.154 12.8055 101.005 12.4625 101.005 12.065C101.005 11.662 101.154 11.319 101.454 11.0359C101.759 10.7473 102.124 10.603 102.548 10.603C102.973 10.603 103.335 10.7473 103.635 11.0359C103.94 11.319 104.092 11.662 104.092 12.065C104.092 12.4625 103.94 12.8055 103.635 13.0941C103.335 13.3772 102.973 13.5188 102.548 13.5188ZM112.327 28.2532C111.151 28.2532 110.124 27.9837 109.248 27.4446C108.371 26.9055 107.691 26.1514 107.206 25.1822C106.721 24.2129 106.479 23.0804 106.479 21.7844C106.479 20.4831 106.721 19.3451 107.206 18.3704C107.691 17.3957 108.371 16.6388 109.248 16.0998C110.124 15.5607 111.151 15.2912 112.327 15.2912C113.503 15.2912 114.53 15.5607 115.406 16.0998C116.283 16.6388 116.963 17.3957 117.448 18.3704C117.933 19.3451 118.175 20.4831 118.175 21.7844C118.175 23.0804 117.933 24.2129 117.448 25.1822C116.963 26.1514 116.283 26.9055 115.406 27.4446C114.53 27.9837 113.503 28.2532 112.327 28.2532ZM112.335 26.2031C113.097 26.2031 113.729 26.0017 114.23 25.5987C114.731 25.1958 115.101 24.6594 115.341 23.9897C115.586 23.32 115.708 22.5821 115.708 21.7763C115.708 20.9759 115.586 20.2408 115.341 19.571C115.101 18.8958 114.731 18.354 114.23 17.9457C113.729 17.5373 113.097 17.3331 112.335 17.3331C111.567 17.3331 110.93 17.5373 110.424 17.9457C109.923 18.354 109.55 18.8958 109.305 19.571C109.065 20.2408 108.946 20.9759 108.946 21.7763C108.946 22.5821 109.065 23.32 109.305 23.9897C109.55 24.6594 109.923 25.1958 110.424 25.5987C110.93 26.0017 111.567 26.2031 112.335 26.2031ZM121.097 28V11.2727H123.539V17.4883H123.686C123.828 17.2269 124.032 16.9247 124.299 16.5817C124.566 16.2386 124.936 15.9392 125.409 15.6832C125.883 15.4219 126.509 15.2912 127.288 15.2912C128.301 15.2912 129.205 15.5471 130 16.0589C130.795 16.5708 131.418 17.3086 131.87 18.2724C132.327 19.2362 132.556 20.396 132.556 21.7518C132.556 23.1076 132.33 24.2701 131.878 25.2393C131.426 26.2031 130.806 26.9464 130.016 27.4691C129.226 27.9864 128.325 28.245 127.313 28.245C126.55 28.245 125.927 28.1171 125.442 27.8612C124.963 27.6052 124.587 27.3058 124.315 26.9627C124.043 26.6197 123.833 26.3147 123.686 26.0479H123.482V28H121.097ZM123.49 21.7273C123.49 22.6094 123.618 23.3826 123.874 24.0469C124.13 24.7112 124.5 25.2312 124.985 25.6069C125.469 25.9772 126.063 26.1623 126.765 26.1623C127.495 26.1623 128.105 25.969 128.595 25.5824C129.085 25.1903 129.455 24.6594 129.706 23.9897C129.962 23.32 130.09 22.5658 130.09 21.7273C130.09 20.8996 129.964 20.1564 129.714 19.4975C129.469 18.8387 129.099 18.3187 128.603 17.9375C128.113 17.5563 127.5 17.3658 126.765 17.3658C126.057 17.3658 125.458 17.5482 124.968 17.913C124.484 18.2778 124.116 18.7869 123.866 19.4403C123.615 20.0937 123.49 20.8561 123.49 21.7273ZM140.583 28.2532C139.407 28.2532 138.38 27.9837 137.504 27.4446C136.627 26.9055 135.946 26.1514 135.462 25.1822C134.977 24.2129 134.735 23.0804 134.735 21.7844C134.735 20.4831 134.977 19.3451 135.462 18.3704C135.946 17.3957 136.627 16.6388 137.504 16.0998C138.38 15.5607 139.407 15.2912 140.583 15.2912C141.759 15.2912 142.785 15.5607 143.662 16.0998C144.539 16.6388 145.219 17.3957 145.704 18.3704C146.189 19.3451 146.431 20.4831 146.431 21.7844C146.431 23.0804 146.189 24.2129 145.704 25.1822C145.219 26.1514 144.539 26.9055 143.662 27.4446C142.785 27.9837 141.759 28.2532 140.583 28.2532ZM140.591 26.2031C141.353 26.2031 141.985 26.0017 142.486 25.5987C142.987 25.1958 143.357 24.6594 143.597 23.9897C143.842 23.32 143.964 22.5821 143.964 21.7763C143.964 20.9759 143.842 20.2408 143.597 19.571C143.357 18.8958 142.987 18.354 142.486 17.9457C141.985 17.5373 141.353 17.3331 140.591 17.3331C139.823 17.3331 139.186 17.5373 138.68 17.9457C138.179 18.354 137.806 18.8958 137.561 19.571C137.321 20.2408 137.201 20.9759 137.201 21.7763C137.201 22.5821 137.321 23.32 137.561 23.9897C137.806 24.6594 138.179 25.1958 138.68 25.5987C139.186 26.0017 139.823 26.2031 140.591 26.2031ZM154.441 28.2532C153.265 28.2532 152.239 27.9837 151.362 27.4446C150.485 26.9055 149.805 26.1514 149.32 25.1822C148.836 24.2129 148.593 23.0804 148.593 21.7844C148.593 20.4831 148.836 19.3451 149.32 18.3704C149.805 17.3957 150.485 16.6388 151.362 16.0998C152.239 15.5607 153.265 15.2912 154.441 15.2912C155.617 15.2912 156.644 15.5607 157.52 16.0998C158.397 16.6388 159.078 17.3957 159.562 18.3704C160.047 19.3451 160.289 20.4831 160.289 21.7844C160.289 23.0804 160.047 24.2129 159.562 25.1822C159.078 26.1514 158.397 26.9055 157.52 27.4446C156.644 27.9837 155.617 28.2532 154.441 28.2532ZM154.449 26.2031C155.212 26.2031 155.843 26.0017 156.344 25.5987C156.845 25.1958 157.216 24.6594 157.455 23.9897C157.7 23.32 157.823 22.5821 157.823 21.7763C157.823 20.9759 157.7 20.2408 157.455 19.571C157.216 18.8958 156.845 18.354 156.344 17.9457C155.843 17.5373 155.212 17.3331 154.449 17.3331C153.682 17.3331 153.045 17.5373 152.538 17.9457C152.037 18.354 151.664 18.8958 151.419 19.571C151.18 20.2408 151.06 20.9759 151.06 21.7763C151.06 22.5821 151.18 23.32 151.419 23.9897C151.664 24.6594 152.037 25.1958 152.538 25.5987C153.045 26.0017 153.682 26.2031 154.449 26.2031ZM165.261 23.7447L165.245 20.7635H165.67L170.668 15.4545H173.592L167.891 21.4986H167.507L165.261 23.7447ZM163.015 28V11.2727H165.457V28H163.015ZM170.938 28L166.446 22.0376L168.128 20.3306L173.935 28H170.938ZM185.219 18.5174L183.005 18.9094C182.913 18.6263 182.766 18.3568 182.564 18.1009C182.368 17.8449 182.102 17.6353 181.764 17.4719C181.426 17.3086 181.004 17.2269 180.498 17.2269C179.806 17.2269 179.229 17.3821 178.766 17.6925C178.304 17.9974 178.072 18.3922 178.072 18.8768C178.072 19.296 178.227 19.6336 178.538 19.8896C178.848 20.1455 179.349 20.3551 180.041 20.5185L182.034 20.9759C183.188 21.2427 184.048 21.6538 184.614 22.2092C185.181 22.7646 185.464 23.486 185.464 24.3736C185.464 25.125 185.246 25.7947 184.811 26.3828C184.38 26.9654 183.779 27.4228 183.005 27.755C182.238 28.0871 181.347 28.2532 180.335 28.2532C178.93 28.2532 177.784 27.9537 176.896 27.3548C176.009 26.7504 175.464 25.8928 175.263 24.782L177.623 24.4226C177.77 25.0379 178.072 25.5034 178.53 25.8192C178.987 26.1296 179.583 26.2848 180.318 26.2848C181.119 26.2848 181.759 26.1187 182.238 25.7866C182.717 25.449 182.956 25.0379 182.956 24.5533C182.956 24.1612 182.809 23.8318 182.515 23.565C182.227 23.2982 181.783 23.0967 181.184 22.9606L179.061 22.495C177.89 22.2282 177.024 21.8035 176.463 21.2209C175.908 20.6383 175.63 19.9004 175.63 19.0075C175.63 18.2669 175.837 17.619 176.251 17.0636C176.665 16.5082 177.236 16.0753 177.966 15.7649C178.696 15.4491 179.532 15.2912 180.473 15.2912C181.829 15.2912 182.897 15.5852 183.675 16.1733C184.454 16.7559 184.968 17.5373 185.219 18.5174Z" fill="black"/>
<defs>
<linearGradient id="paint0_linear_553_291" x1="27.423" y1="0.710296" x2="13.149" y2="49.0691" gradientUnits="userSpaceOnUse">
<stop stop-color="#FFF5A8"/>
<stop offset="0.31" stop-color="#BD8100"/>
<stop offset="0.76" stop-color="#E0BE58"/>
<stop offset="1" stop-color="#F1DC83"/>
</linearGradient>
<linearGradient id="paint1_linear_553_291" x1="4.77205" y1="2.72088" x2="36.575" y2="37.8673" gradientUnits="userSpaceOnUse">
<stop stop-color="#FFF5A8"/>
<stop offset="0.31" stop-color="#BD8100"/>
<stop offset="0.76" stop-color="#E0BE58"/>
<stop offset="1" stop-color="#F1DC83"/>
</linearGradient>
<linearGradient id="paint2_linear_553_291" x1="5.55982" y1="3.52906" x2="35.8528" y2="37.0059" gradientUnits="userSpaceOnUse">
<stop stop-color="#05224C"/>
<stop offset="1" stop-color="#0B2D62"/>
</linearGradient>
<linearGradient id="paint3_linear_553_291" x1="29.2618" y1="-2.49858" x2="4.9388" y2="71.3744" gradientUnits="userSpaceOnUse">
<stop stop-color="#FFF5A8"/>
<stop offset="0.31" stop-color="#BD8100"/>
<stop offset="0.76" stop-color="#E0BE58"/>
<stop offset="1" stop-color="#F1DC83"/>
</linearGradient>
<radialGradient id="paint4_radial_553_291" cx="0" cy="0" r="1" gradientUnits="userSpaceOnUse" gradientTransform="translate(18.1783 37.4719) scale(35.6909 34.4281)">
<stop stop-color="#FFF5A8"/>
<stop offset="0.72" stop-color="#FFF5A8"/>
</radialGradient>
<radialGradient id="paint5_radial_553_291" cx="0" cy="0" r="1" gradientUnits="userSpaceOnUse" gradientTransform="translate(18.1771 37.4432) scale(35.6913 34.3978)">
<stop stop-color="#FFF5A8"/>
<stop offset="0.72" stop-color="#FFF5A8"/>
</radialGradient>
<radialGradient id="paint6_radial_553_291" cx="0" cy="0" r="1" gradientUnits="userSpaceOnUse" gradientTransform="translate(18.1778 37.435) scale(35.6911 34.3804)">
<stop stop-color="#FFF5A8"/>
<stop offset="0.72" stop-color="#FFF5A8"/>
</radialGradient>
<radialGradient id="paint7_radial_553_291" cx="0" cy="0" r="1" gradientUnits="userSpaceOnUse" gradientTransform="translate(18.1781 37.4719) scale(35.6914 34.4281)">
<stop stop-color="#FFF5A8"/>
<stop offset="0.72" stop-color="#FFF5A8"/>
</radialGradient>
<radialGradient id="paint8_radial_553_291" cx="0" cy="0" r="1" gradientUnits="userSpaceOnUse" gradientTransform="translate(18.178 37.4391) scale(35.6913 34.3891)">
<stop stop-color="#FFF5A8"/>
<stop offset="0.72" stop-color="#FFF5A8"/>
</radialGradient>
<radialGradient id="paint9_radial_553_291" cx="0" cy="0" r="1" gradientUnits="userSpaceOnUse" gradientTransform="translate(18.1781 37.4521) scale(35.6911 34.3978)">
<stop stop-color="#FFF5A8"/>
<stop offset="0.72" stop-color="#FFF5A8"/>
</radialGradient>
<radialGradient id="paint10_radial_553_291" cx="0" cy="0" r="1" gradientUnits="userSpaceOnUse" gradientTransform="translate(18.1769 37.439) scale(35.6903 34.3848)">
<stop stop-color="#FFF5A8"/>
<stop offset="0.72" stop-color="#FFF5A8"/>
</radialGradient>
<radialGradient id="paint11_radial_553_291" cx="0" cy="0" r="1" gradientUnits="userSpaceOnUse" gradientTransform="translate(18.1769 37.4434) scale(35.6907 34.3891)">
<stop stop-color="#FFF5A8"/>
<stop offset="0.72" stop-color="#FFF5A8"/>
</radialGradient>
<radialGradient id="paint12_radial_553_291" cx="0" cy="0" r="1" gradientUnits="userSpaceOnUse" gradientTransform="translate(18.178 37.439) scale(35.6908 34.3848)">
<stop stop-color="#FFF5A8"/>
<stop offset="0.72" stop-color="#FFF5A8"/>
</radialGradient>
<radialGradient id="paint13_radial_553_291" cx="0" cy="0" r="1" gradientUnits="userSpaceOnUse" gradientTransform="translate(18.1769 37.4434) scale(35.6911 34.3891)">
<stop stop-color="#FFF5A8"/>
<stop offset="0.72" stop-color="#FFF5A8"/>
</radialGradient>
<linearGradient id="paint14_linear_553_291" x1="16.5758" y1="42.6489" x2="42.3039" y2="-10.413" gradientUnits="userSpaceOnUse">
<stop stop-color="#C9BF85"/>
<stop offset="0.17" stop-color="#875900"/>
<stop offset="0.41" stop-color="#AA8F47"/>
<stop offset="0.59" stop-color="#C0B274"/>
<stop offset="0.67" stop-color="#C9BF85"/>
</linearGradient>
<linearGradient id="paint15_linear_553_291" x1="24.7806" y1="46.5929" x2="50.4725" y2="-6.4402" gradientUnits="userSpaceOnUse">
<stop stop-color="#C9BF85"/>
<stop offset="0.17" stop-color="#875900"/>
<stop offset="0.41" stop-color="#AA8F47"/>
<stop offset="0.59" stop-color="#C0B274"/>
<stop offset="0.67" stop-color="#C9BF85"/>
</linearGradient>
<linearGradient id="paint16_linear_553_291" x1="19.1768" y1="43.8668" x2="44.8478" y2="-9.14961" gradientUnits="userSpaceOnUse">
<stop stop-color="#C9BF85"/>
<stop offset="0.17" stop-color="#875900"/>
<stop offset="0.41" stop-color="#AA8F47"/>
<stop offset="0.59" stop-color="#C0B274"/>
<stop offset="0.67" stop-color="#C9BF85"/>
</linearGradient>
<linearGradient id="paint17_linear_553_291" x1="16.5758" y1="42.6489" x2="42.3039" y2="-10.413" gradientUnits="userSpaceOnUse">
<stop stop-color="#C9BF85"/>
<stop offset="0.17" stop-color="#875900"/>
<stop offset="0.41" stop-color="#AA8F47"/>
<stop offset="0.59" stop-color="#C0B274"/>
<stop offset="0.67" stop-color="#C9BF85"/>
</linearGradient>
<linearGradient id="paint18_linear_553_291" x1="24.7806" y1="46.5929" x2="50.4725" y2="-6.4402" gradientUnits="userSpaceOnUse">
<stop stop-color="#C9BF85"/>
<stop offset="0.17" stop-color="#875900"/>
<stop offset="0.41" stop-color="#AA8F47"/>
<stop offset="0.59" stop-color="#C0B274"/>
<stop offset="0.67" stop-color="#C9BF85"/>
</linearGradient>
<linearGradient id="paint19_linear_553_291" x1="19.1768" y1="43.8668" x2="44.8478" y2="-9.14961" gradientUnits="userSpaceOnUse">
<stop stop-color="#C9BF85"/>
<stop offset="0.17" stop-color="#875900"/>
<stop offset="0.41" stop-color="#AA8F47"/>
<stop offset="0.59" stop-color="#C0B274"/>
<stop offset="0.67" stop-color="#C9BF85"/>
</linearGradient>
<linearGradient id="paint20_linear_553_291" x1="26.0704" y1="42.6489" x2="0.342481" y2="-10.4132" gradientUnits="userSpaceOnUse">
<stop stop-color="#C9BF85"/>
<stop offset="0.17" stop-color="#875900"/>
<stop offset="0.41" stop-color="#AA8F47"/>
<stop offset="0.59" stop-color="#C0B274"/>
<stop offset="0.67" stop-color="#C9BF85"/>
</linearGradient>
<linearGradient id="paint21_linear_553_291" x1="17.8642" y1="46.5865" x2="-7.81969" y2="-6.43845" gradientUnits="userSpaceOnUse">
<stop stop-color="#C9BF85"/>
<stop offset="0.17" stop-color="#875900"/>
<stop offset="0.41" stop-color="#AA8F47"/>
<stop offset="0.59" stop-color="#C0B274"/>
<stop offset="0.67" stop-color="#C9BF85"/>
</linearGradient>
<linearGradient id="paint22_linear_553_291" x1="23.468" y1="43.8668" x2="-2.20198" y2="-9.14955" gradientUnits="userSpaceOnUse">
<stop stop-color="#C9BF85"/>
<stop offset="0.17" stop-color="#875900"/>
<stop offset="0.41" stop-color="#AA8F47"/>
<stop offset="0.59" stop-color="#C0B274"/>
<stop offset="0.67" stop-color="#C9BF85"/>
</linearGradient>
<linearGradient id="paint23_linear_553_291" x1="26.0704" y1="42.6489" x2="0.342481" y2="-10.4132" gradientUnits="userSpaceOnUse">
<stop stop-color="#C9BF85"/>
<stop offset="0.17" stop-color="#875900"/>
<stop offset="0.41" stop-color="#AA8F47"/>
<stop offset="0.59" stop-color="#C0B274"/>
<stop offset="0.67" stop-color="#C9BF85"/>
</linearGradient>
<linearGradient id="paint24_linear_553_291" x1="17.8642" y1="46.5865" x2="-7.81969" y2="-6.43845" gradientUnits="userSpaceOnUse">
<stop stop-color="#C9BF85"/>
<stop offset="0.17" stop-color="#875900"/>
<stop offset="0.41" stop-color="#AA8F47"/>
<stop offset="0.59" stop-color="#C0B274"/>
<stop offset="0.67" stop-color="#C9BF85"/>
</linearGradient>
<linearGradient id="paint25_linear_553_291" x1="23.468" y1="43.8668" x2="-2.20198" y2="-9.14955" gradientUnits="userSpaceOnUse">
<stop stop-color="#C9BF85"/>
<stop offset="0.17" stop-color="#875900"/>
<stop offset="0.41" stop-color="#AA8F47"/>
<stop offset="0.59" stop-color="#C0B274"/>
<stop offset="0.67" stop-color="#C9BF85"/>
</linearGradient>
<linearGradient id="paint26_linear_553_291" x1="19.7902" y1="10.8046" x2="22.0852" y2="-0.429649" gradientUnits="userSpaceOnUse">
<stop stop-color="#C9BF85"/>
<stop offset="0.17" stop-color="#875900"/>
<stop offset="0.41" stop-color="#AA8F47"/>
<stop offset="0.59" stop-color="#C0B274"/>
<stop offset="0.67" stop-color="#C9BF85"/>
</linearGradient>
<linearGradient id="paint27_linear_553_291" x1="14.011" y1="9.62042" x2="16.3039" y2="-1.6064" gradientUnits="userSpaceOnUse">
<stop stop-color="#C9BF85"/>
<stop offset="0.17" stop-color="#875900"/>
<stop offset="0.41" stop-color="#AA8F47"/>
<stop offset="0.59" stop-color="#C0B274"/>
<stop offset="0.67" stop-color="#C9BF85"/>
</linearGradient>
<linearGradient id="paint28_linear_553_291" x1="16.3242" y1="10.0963" x2="18.6182" y2="-1.13527" gradientUnits="userSpaceOnUse">
<stop stop-color="#C9BF85"/>
<stop offset="0.17" stop-color="#875900"/>
<stop offset="0.41" stop-color="#AA8F47"/>
<stop offset="0.59" stop-color="#C0B274"/>
<stop offset="0.67" stop-color="#C9BF85"/>
</linearGradient>
<linearGradient id="paint29_linear_553_291" x1="26.5031" y1="12.1724" x2="28.7961" y2="0.945574" gradientUnits="userSpaceOnUse">
<stop stop-color="#C9BF85"/>
<stop offset="0.17" stop-color="#875900"/>
<stop offset="0.41" stop-color="#AA8F47"/>
<stop offset="0.59" stop-color="#C0B274"/>
<stop offset="0.67" stop-color="#C9BF85"/>
</linearGradient>
<linearGradient id="paint30_linear_553_291" x1="23.5811" y1="11.5799" x2="25.8781" y2="0.348152" gradientUnits="userSpaceOnUse">
<stop stop-color="#C9BF85"/>
<stop offset="0.17" stop-color="#875900"/>
<stop offset="0.41" stop-color="#AA8F47"/>
<stop offset="0.59" stop-color="#C0B274"/>
<stop offset="0.67" stop-color="#C9BF85"/>
</linearGradient>
</defs>
</svg>
