<svg width="555" height="92" viewBox="0 0 555 92" fill="none" xmlns="http://www.w3.org/2000/svg">
<path d="M94.5245 34.6817C93.7555 32.3157 91.7155 30.6017 89.2575 30.2427L64.3655 26.6247L53.2325 4.08569C51.0355 -0.372313 43.7425 -0.372313 41.5455 4.08569L30.4125 26.6247L5.57951 30.2427C3.12251 30.6007 1.08251 32.3217 0.319512 34.6817C-0.449488 37.0477 0.195512 39.6357 1.97551 41.3627L19.9785 58.8637L15.7355 83.6327C15.3185 86.0767 16.3225 88.5537 18.3295 90.0137C20.3435 91.4677 23.0025 91.6567 25.1995 90.5027L47.3865 78.8027L69.6395 90.5027C70.5915 91.0047 71.6345 91.2527 72.6705 91.2527C74.0195 91.2527 75.3685 90.8357 76.5165 90.0147C78.5245 88.5477 79.5275 86.0777 79.1105 83.6337L74.8675 58.8647L92.8705 41.3637C94.6485 39.6417 95.2935 37.0417 94.5245 34.6817Z" fill="#E9C91A"/>
<path d="M209.369 34.6817C208.6 32.3157 206.56 30.6017 204.102 30.2427L179.21 26.6247L168.077 4.08569C165.88 -0.372313 158.587 -0.372313 156.39 4.08569L145.257 26.6247L120.423 30.2427C117.966 30.6007 115.926 32.3217 115.163 34.6817C114.394 37.0477 115.039 39.6357 116.819 41.3627L134.822 58.8637L130.579 83.6327C130.162 86.0767 131.166 88.5607 133.173 90.0137C135.181 91.4677 137.853 91.6567 140.043 90.5027L162.23 78.8027L184.483 90.5027C185.435 91.0047 186.478 91.2527 187.514 91.2527C188.863 91.2527 190.212 90.8357 191.36 90.0147C193.368 88.5477 194.371 86.0777 193.954 83.6337L189.711 58.8647L207.714 41.3637C209.493 39.6417 210.138 37.0417 209.369 34.6817Z" fill="#E9C91A"/>
<path d="M324.214 34.6817C323.445 32.3157 321.405 30.6017 318.947 30.2427L294.054 26.6247L282.921 4.08569C280.724 -0.372313 273.431 -0.372313 271.234 4.08569L260.101 26.6247L235.267 30.2427C232.81 30.6007 230.77 32.3217 230.007 34.6817C229.238 37.0477 229.883 39.6357 231.663 41.3627L249.666 58.8637L245.423 83.6327C245.006 86.0767 246.01 88.5607 248.017 90.0137C250.025 91.4677 252.697 91.6567 254.887 90.5027L277.075 78.8027L299.328 90.5027C300.28 91.0047 301.323 91.2527 302.359 91.2527C303.708 91.2527 305.057 90.8357 306.205 90.0147C308.213 88.5477 309.216 86.0777 308.799 83.6337L304.556 58.8647L322.559 41.3637C324.338 39.6417 324.983 37.0417 324.214 34.6817Z" fill="#E9C91A"/>
<path d="M439.061 34.6807C438.292 32.3147 436.252 30.6007 433.794 30.2417L408.902 26.6237L397.769 4.08569C395.572 -0.372313 388.279 -0.372313 386.082 4.08569L374.949 26.6247L350.115 30.2427C347.658 30.6007 345.618 32.3217 344.855 34.6817C344.086 37.0477 344.731 39.6357 346.511 41.3627L364.514 58.8637L360.271 83.6327C359.854 86.0767 360.858 88.5537 362.865 90.0137C364.879 91.4677 367.545 91.6567 369.735 90.5027L391.923 78.8027L414.176 90.5027C415.128 91.0047 416.171 91.2527 417.207 91.2527C418.556 91.2527 419.905 90.8357 421.053 90.0147C423.061 88.5477 424.064 86.0777 423.647 83.6337L419.404 58.8647L437.407 41.3637C439.185 39.6477 439.83 37.0407 439.061 34.6807Z" fill="#E9C91A"/>
<path d="M553.904 34.6807C553.135 32.3147 551.095 30.6007 548.637 30.2417L523.745 26.6247L512.612 4.08569C510.415 -0.372313 503.122 -0.372313 500.925 4.08569L489.792 26.6247L464.958 30.2417C462.501 30.6007 460.461 32.3207 459.698 34.6807C458.929 37.0467 459.574 39.6347 461.354 41.3617L479.357 58.8627L475.114 83.6317C474.697 86.0757 475.701 88.5527 477.708 90.0127C479.722 91.4657 482.388 91.6557 484.578 90.5017L506.766 78.8017L529.019 90.5017C529.971 91.0037 531.014 91.2517 532.05 91.2517C533.399 91.2517 534.748 90.8347 535.896 90.0137C537.904 88.5467 538.907 86.0767 538.49 83.6327L534.247 58.8637L552.25 41.3627C554.028 39.6407 554.673 37.0397 553.904 34.6807ZM522.682 51.9077C521.144 53.4067 520.433 55.5647 520.798 57.6827L523.392 72.8177L509.789 65.6677C508.844 65.1657 507.801 64.9177 506.758 64.9177C505.715 64.9177 504.672 65.1657 503.727 65.6677L490.196 72.7987L492.79 57.6837C493.155 55.5657 492.445 53.4017 490.906 51.9087L479.93 41.2387L495.058 39.0357C497.176 38.7297 499.008 37.3927 499.96 35.4707L506.758 21.6977L513.556 35.4707C514.508 37.3997 516.339 38.7297 518.464 39.0357L533.651 41.2457L522.682 51.9077Z" fill="#E9C91A"/>
</svg>
