<svg width="140" height="20" viewBox="0 0 140 20" fill="none" xmlns="http://www.w3.org/2000/svg">
<g clip-path="url(#clip0_281_82)">
<mask id="mask0_281_82" style="mask-type:luminance" maskUnits="userSpaceOnUse" x="0" y="0" width="140" height="20">
<path d="M140 0H0V20H140V0Z" fill="white"/>
</mask>
<g mask="url(#mask0_281_82)">
<path d="M4.51332 18.6794C4.03082 18.9269 3.48332 18.4931 3.58082 17.9394L4.61832 12.0269L0.214567 7.83187C-0.196683 7.43937 0.0170665 6.72188 0.568317 6.64438L6.69082 5.77437L9.42082 0.365625C9.66707 -0.121875 10.3333 -0.121875 10.5796 0.365625L13.3096 5.77437L19.4321 6.64438C19.9833 6.72188 20.1971 7.43937 19.7846 7.83187L15.3821 12.0269L16.4196 17.9394C16.5171 18.4931 15.9696 18.9269 15.4871 18.6794L9.99832 15.8594L4.51332 18.6794Z" fill="#2C1810"/>
<path d="M34.5133 18.6794C34.0308 18.9269 33.4833 18.4931 33.5808 17.9394L34.6183 12.0269L30.2146 7.83187C29.8033 7.43937 30.0171 6.72188 30.5683 6.64438L36.6908 5.77437L39.4208 0.365625C39.6671 -0.121875 40.3333 -0.121875 40.5796 0.365625L43.3096 5.77437L49.4321 6.64438C49.9833 6.72188 50.1971 7.43937 49.7846 7.83187L45.3821 12.0269L46.4196 17.9394C46.5171 18.4931 45.9696 18.9269 45.4871 18.6794L39.9983 15.8594L34.5133 18.6794Z" fill="#2C1810"/>
<path d="M64.5133 18.6794C64.0308 18.9269 63.4833 18.4931 63.5808 17.9394L64.6183 12.0269L60.2146 7.83187C59.8033 7.43937 60.0171 6.72188 60.5683 6.64438L66.6908 5.77437L69.4208 0.365625C69.6671 -0.121875 70.3333 -0.121875 70.5796 0.365625L73.3096 5.77437L79.4321 6.64438C79.9833 6.72188 80.1971 7.43937 79.7846 7.83187L75.3821 12.0269L76.4196 17.9394C76.5171 18.4931 75.9696 18.9269 75.4871 18.6794L69.9983 15.8594L64.5133 18.6794Z" fill="#2C1810"/>
<path d="M94.5133 18.6794C94.0308 18.9269 93.4833 18.4931 93.5808 17.9394L94.6183 12.0269L90.2146 7.83187C89.8033 7.43937 90.0171 6.72188 90.5683 6.64438L96.6908 5.77437L99.4208 0.365625C99.6671 -0.121875 100.333 -0.121875 100.58 0.365625L103.31 5.77437L109.432 6.64438C109.983 6.72188 110.197 7.43937 109.785 7.83187L105.382 12.0269L106.42 17.9394C106.517 18.4931 105.97 18.9269 105.487 18.6794L99.9983 15.8594L94.5133 18.6794Z" fill="#2C1810"/>
<mask id="mask1_281_82" style="mask-type:luminance" maskUnits="userSpaceOnUse" x="120" y="0" width="20" height="20">
<path d="M140 0H120V20H140V0Z" fill="white"/>
</mask>
<g mask="url(#mask1_281_82)">
<path d="M126.695 6.39875L129.425 0.99C129.478 0.881555 129.56 0.789975 129.662 0.725511C129.764 0.661047 129.882 0.626245 130.003 0.625C130.231 0.625 130.46 0.74625 130.584 0.99L133.314 6.39875L139.436 7.26875C139.589 7.2934 139.728 7.36949 139.831 7.48435C139.934 7.59921 139.995 7.74591 140.003 7.9C140.011 8.00272 139.997 8.10604 139.96 8.20232C139.923 8.29861 139.865 8.38539 139.79 8.45625L135.386 12.6513L136.424 18.5637C136.521 19.1175 135.974 19.5513 135.491 19.3037L130.003 16.4838L124.516 19.3037C124.459 19.3339 124.398 19.355 124.334 19.3662C123.906 19.4412 123.499 19.0487 123.584 18.5637L124.621 12.6513L120.219 8.45625C120.15 8.3915 120.096 8.31337 120.059 8.22671C120.022 8.14005 120.003 8.04672 120.004 7.9525C120.005 7.81947 120.042 7.68918 120.11 7.575C120.159 7.49241 120.226 7.42197 120.306 7.36893C120.386 7.3159 120.477 7.28166 120.573 7.26875L126.695 6.39875ZM130.003 15.0338C130.104 15.0333 130.203 15.0574 130.293 15.1038L134.9 17.4713L134.033 12.525C134.012 12.4112 134.019 12.294 134.054 12.1839C134.09 12.0737 134.152 11.974 134.235 11.8938L137.869 8.43125L132.804 7.71125C132.699 7.69491 132.6 7.65369 132.514 7.59105C132.429 7.52841 132.36 7.44617 132.313 7.35125L130.004 2.77875L130.003 2.7825V15.0338Z" fill="#2C1810"/>
</g>
</g>
</g>
<defs>
<clipPath id="clip0_281_82">
<rect width="140" height="20" fill="white"/>
</clipPath>
</defs>
</svg>
