<svg width="189" height="80" viewBox="0 0 189 80" fill="none" xmlns="http://www.w3.org/2000/svg">
<rect width="188.975" height="79.1053" fill="#E9C91A"/>
<path d="M55.9302 24V13.8182H59.6589C60.3814 13.8182 60.9797 13.9375 61.4536 14.1761C61.9276 14.4115 62.2822 14.7313 62.5175 15.1357C62.7529 15.5367 62.8705 15.9891 62.8705 16.4929C62.8705 16.9171 62.7926 17.2751 62.6369 17.5668C62.4811 17.8551 62.2723 18.0871 62.0104 18.2628C61.7519 18.4351 61.4669 18.5611 61.1553 18.6406V18.7401C61.4934 18.7566 61.8232 18.866 62.1447 19.0682C62.4695 19.267 62.7379 19.5504 62.9501 19.9183C63.1622 20.2862 63.2682 20.7337 63.2682 21.2607C63.2682 21.781 63.1456 22.2483 62.9003 22.6626C62.6584 23.0736 62.2839 23.4001 61.7768 23.642C61.2697 23.8807 60.6217 24 59.8329 24H55.9302ZM57.4664 22.6825H59.6837C60.4195 22.6825 60.9465 22.54 61.2647 22.255C61.5829 21.9699 61.742 21.6136 61.742 21.1861C61.742 20.8646 61.6608 20.5696 61.4984 20.3011C61.336 20.0327 61.1039 19.8189 60.8023 19.6598C60.504 19.5007 60.1494 19.4212 59.7384 19.4212H57.4664V22.6825ZM57.4664 18.223H59.5246C59.8693 18.223 60.1792 18.1567 60.4543 18.0241C60.7327 17.8916 60.9531 17.706 61.1155 17.4673C61.2813 17.2254 61.3641 16.9403 61.3641 16.6122C61.3641 16.1913 61.2166 15.8383 60.9217 15.5533C60.6267 15.2682 60.1743 15.1257 59.5644 15.1257H57.4664V18.223ZM68.2622 24.1541C67.5098 24.1541 66.8619 23.9934 66.3183 23.6719C65.7781 23.3471 65.3605 22.8913 65.0655 22.3047C64.7738 21.7147 64.628 21.0237 64.628 20.2315C64.628 19.4493 64.7738 18.7599 65.0655 18.1634C65.3605 17.5668 65.7714 17.1011 66.2984 16.7663C66.8287 16.4316 67.4485 16.2642 68.1578 16.2642C68.5887 16.2642 69.0063 16.3355 69.4106 16.478C69.815 16.6205 70.1779 16.8442 70.4994 17.1491C70.8209 17.4541 71.0745 17.8501 71.2601 18.3374C71.4457 18.8213 71.5385 19.4096 71.5385 20.1023V20.6293H65.4682V19.5156H70.0818C70.0818 19.1245 70.0023 18.7782 69.8432 18.4766C69.6841 18.1716 69.4604 17.9313 69.172 17.7557C68.887 17.58 68.5522 17.4922 68.1677 17.4922C67.7501 17.4922 67.3856 17.5949 67.074 17.8004C66.7658 18.0026 66.5271 18.2678 66.3581 18.5959C66.1924 18.9207 66.1095 19.2737 66.1095 19.6548V20.5249C66.1095 21.0353 66.199 21.4695 66.378 21.8274C66.5603 22.1854 66.8138 22.4588 67.1386 22.6477C67.4634 22.8333 67.8429 22.9261 68.2771 22.9261C68.5588 22.9261 68.8157 22.8864 69.0477 22.8068C69.2797 22.724 69.4802 22.6013 69.6493 22.4389C69.8183 22.2765 69.9476 22.076 70.0371 21.8374L71.444 22.0909C71.3313 22.5052 71.1292 22.8681 70.8375 23.1797C70.5491 23.4879 70.1862 23.7282 69.7487 23.9006C69.3145 24.0696 68.819 24.1541 68.2622 24.1541ZM78.9101 18.228L77.5628 18.4666C77.5065 18.2943 77.417 18.1302 77.2943 17.9744C77.175 17.8187 77.0126 17.6911 76.8071 17.5916C76.6016 17.4922 76.3448 17.4425 76.0365 17.4425C75.6156 17.4425 75.2643 17.5369 74.9826 17.7259C74.7008 17.9115 74.56 18.1518 74.56 18.4467C74.56 18.7019 74.6544 18.9074 74.8434 19.0632C75.0323 19.219 75.3372 19.3466 75.7581 19.446L76.9712 19.7244C77.6738 19.8868 78.1975 20.1371 78.5422 20.4751C78.8869 20.8132 79.0593 21.2524 79.0593 21.7926C79.0593 22.25 78.9267 22.6577 78.6615 23.0156C78.3997 23.3703 78.0335 23.6487 77.5628 23.8509C77.0955 24.053 76.5536 24.1541 75.9371 24.1541C75.082 24.1541 74.3843 23.9718 73.8441 23.6072C73.3038 23.2393 72.9724 22.7173 72.8497 22.0412L74.2865 21.8224C74.376 22.197 74.56 22.4804 74.8384 22.6726C75.1168 22.8615 75.4797 22.956 75.9272 22.956C76.4144 22.956 76.8038 22.8549 77.0955 22.6527C77.3871 22.4472 77.533 22.197 77.533 21.902C77.533 21.6634 77.4435 21.4628 77.2645 21.3004C77.0889 21.138 76.8187 21.0154 76.4541 20.9325L75.1615 20.6491C74.4489 20.4867 73.922 20.2282 73.5806 19.8736C73.2425 19.5189 73.0735 19.0698 73.0735 18.5263C73.0735 18.0755 73.1994 17.6811 73.4513 17.343C73.7032 17.005 74.0512 16.7415 74.4953 16.5526C74.9395 16.3603 75.4482 16.2642 76.0216 16.2642C76.8469 16.2642 77.4965 16.4432 77.9705 16.8011C78.4444 17.1558 78.7577 17.6314 78.9101 18.228ZM84.2583 16.3636V17.5568H80.0871V16.3636H84.2583ZM81.2057 14.5341H82.6923V21.7578C82.6923 22.0462 82.7353 22.2633 82.8215 22.4091C82.9077 22.5516 83.0187 22.6494 83.1546 22.7024C83.2938 22.7521 83.4446 22.777 83.607 22.777C83.7263 22.777 83.8307 22.7687 83.9202 22.7521C84.0097 22.7356 84.0793 22.7223 84.129 22.7124L84.3975 23.9403C84.3113 23.9735 84.1887 24.0066 84.0296 24.0398C83.8705 24.0762 83.6717 24.0961 83.433 24.0994C83.0419 24.1061 82.6773 24.0365 82.3393 23.8906C82.0012 23.7448 81.7278 23.5194 81.519 23.2145C81.3101 22.9096 81.2057 22.5268 81.2057 22.0661V14.5341ZM91.5019 18.228L90.1546 18.4666C90.0983 18.2943 90.0088 18.1302 89.8861 17.9744C89.7668 17.8187 89.6044 17.6911 89.3989 17.5916C89.1934 17.4922 88.9366 17.4425 88.6283 17.4425C88.2074 17.4425 87.8561 17.5369 87.5744 17.7259C87.2926 17.9115 87.1518 18.1518 87.1518 18.4467C87.1518 18.7019 87.2462 18.9074 87.4351 19.0632C87.6241 19.219 87.929 19.3466 88.3499 19.446L89.563 19.7244C90.2656 19.8868 90.7893 20.1371 91.134 20.4751C91.4787 20.8132 91.6511 21.2524 91.6511 21.7926C91.6511 22.25 91.5185 22.6577 91.2533 23.0156C90.9915 23.3703 90.6253 23.6487 90.1546 23.8509C89.6873 24.053 89.1454 24.1541 88.5289 24.1541C87.6738 24.1541 86.9761 23.9718 86.4359 23.6072C85.8956 23.2393 85.5642 22.7173 85.4415 22.0412L86.8783 21.8224C86.9678 22.197 87.1518 22.4804 87.4302 22.6726C87.7086 22.8615 88.0715 22.956 88.519 22.956C89.0062 22.956 89.3956 22.8549 89.6873 22.6527C89.9789 22.4472 90.1248 22.197 90.1248 21.902C90.1248 21.6634 90.0353 21.4628 89.8563 21.3004C89.6807 21.138 89.4105 21.0154 89.0459 20.9325L87.7533 20.6491C87.0407 20.4867 86.5137 20.2282 86.1724 19.8736C85.8343 19.5189 85.6653 19.0698 85.6653 18.5263C85.6653 18.0755 85.7912 17.6811 86.0431 17.343C86.295 17.005 86.643 16.7415 87.0871 16.5526C87.5313 16.3603 88.04 16.2642 88.6134 16.2642C89.4387 16.2642 90.0883 16.4432 90.5623 16.8011C91.0362 17.1558 91.3494 17.6314 91.5019 18.228ZM96.5767 24.1541C95.8243 24.1541 95.1763 23.9934 94.6328 23.6719C94.0925 23.3471 93.6749 22.8913 93.3799 22.3047C93.0883 21.7147 92.9424 21.0237 92.9424 20.2315C92.9424 19.4493 93.0883 18.7599 93.3799 18.1634C93.6749 17.5668 94.0859 17.1011 94.6129 16.7663C95.1432 16.4316 95.763 16.2642 96.4723 16.2642C96.9031 16.2642 97.3207 16.3355 97.7251 16.478C98.1295 16.6205 98.4924 16.8442 98.8139 17.1491C99.1354 17.4541 99.3889 17.8501 99.5745 18.3374C99.7601 18.8213 99.8529 19.4096 99.8529 20.1023V20.6293H93.7826V19.5156H98.3963C98.3963 19.1245 98.3167 18.7782 98.1576 18.4766C97.9985 18.1716 97.7748 17.9313 97.4865 17.7557C97.2014 17.58 96.8667 17.4922 96.4822 17.4922C96.0646 17.4922 95.7 17.5949 95.3885 17.8004C95.0802 18.0026 94.8416 18.2678 94.6725 18.5959C94.5068 18.9207 94.424 19.2737 94.424 19.6548V20.5249C94.424 21.0353 94.5135 21.4695 94.6924 21.8274C94.8747 22.1854 95.1283 22.4588 95.4531 22.6477C95.7779 22.8333 96.1574 22.9261 96.5916 22.9261C96.8733 22.9261 97.1302 22.8864 97.3622 22.8068C97.5942 22.724 97.7947 22.6013 97.9637 22.4389C98.1328 22.2765 98.262 22.076 98.3515 21.8374L99.7585 22.0909C99.6458 22.5052 99.4436 22.8681 99.1519 23.1797C98.8636 23.4879 98.5007 23.7282 98.0632 23.9006C97.629 24.0696 97.1335 24.1541 96.5767 24.1541ZM102.989 13.8182V24H101.502V13.8182H102.989ZM106.475 13.8182V24H104.989V13.8182H106.475ZM111.766 24.1541C111.014 24.1541 110.366 23.9934 109.822 23.6719C109.282 23.3471 108.864 22.8913 108.569 22.3047C108.278 21.7147 108.132 21.0237 108.132 20.2315C108.132 19.4493 108.278 18.7599 108.569 18.1634C108.864 17.5668 109.275 17.1011 109.802 16.7663C110.333 16.4316 110.952 16.2642 111.662 16.2642C112.093 16.2642 112.51 16.3355 112.915 16.478C113.319 16.6205 113.682 16.8442 114.003 17.1491C114.325 17.4541 114.578 17.8501 114.764 18.3374C114.95 18.8213 115.042 19.4096 115.042 20.1023V20.6293H108.972V19.5156H113.586C113.586 19.1245 113.506 18.7782 113.347 18.4766C113.188 18.1716 112.964 17.9313 112.676 17.7557C112.391 17.58 112.056 17.4922 111.672 17.4922C111.254 17.4922 110.889 17.5949 110.578 17.8004C110.27 18.0026 110.031 18.2678 109.862 18.5959C109.696 18.9207 109.613 19.2737 109.613 19.6548V20.5249C109.613 21.0353 109.703 21.4695 109.882 21.8274C110.064 22.1854 110.318 22.4588 110.643 22.6477C110.967 22.8333 111.347 22.9261 111.781 22.9261C112.063 22.9261 112.32 22.8864 112.552 22.8068C112.784 22.724 112.984 22.6013 113.153 22.4389C113.322 22.2765 113.451 22.076 113.541 21.8374L114.948 22.0909C114.835 22.5052 114.633 22.8681 114.341 23.1797C114.053 23.4879 113.69 23.7282 113.253 23.9006C112.818 24.0696 112.323 24.1541 111.766 24.1541ZM116.692 24V16.3636H118.129V17.5767H118.208C118.347 17.1657 118.593 16.8426 118.944 16.6072C119.298 16.3686 119.7 16.2493 120.147 16.2493C120.24 16.2493 120.349 16.2526 120.475 16.2592C120.604 16.2659 120.705 16.2741 120.778 16.2841V17.706C120.719 17.6894 120.613 17.6712 120.46 17.6513C120.308 17.6281 120.155 17.6165 120.003 17.6165C119.651 17.6165 119.338 17.6911 119.063 17.8402C118.791 17.986 118.576 18.1899 118.417 18.4517C118.258 18.7102 118.178 19.0052 118.178 19.3366V24H116.692ZM128.986 24.1541C128.271 24.1541 127.646 23.9901 127.112 23.6619C126.579 23.3338 126.164 22.8748 125.869 22.2848C125.574 21.6948 125.427 21.0054 125.427 20.2166C125.427 19.4245 125.574 18.7318 125.869 18.1385C126.164 17.5452 126.579 17.0845 127.112 16.7564C127.646 16.4283 128.271 16.2642 128.986 16.2642C129.702 16.2642 130.327 16.4283 130.861 16.7564C131.394 17.0845 131.809 17.5452 132.104 18.1385C132.399 18.7318 132.546 19.4245 132.546 20.2166C132.546 21.0054 132.399 21.6948 132.104 22.2848C131.809 22.8748 131.394 23.3338 130.861 23.6619C130.327 23.9901 129.702 24.1541 128.986 24.1541ZM128.991 22.9062C129.455 22.9062 129.84 22.7836 130.145 22.5384C130.45 22.2931 130.675 21.9666 130.821 21.5589C130.97 21.1513 131.045 20.7022 131.045 20.2116C131.045 19.7244 130.97 19.277 130.821 18.8693C130.675 18.4583 130.45 18.1286 130.145 17.88C129.84 17.6314 129.455 17.5071 128.991 17.5071C128.524 17.5071 128.136 17.6314 127.828 17.88C127.523 18.1286 127.296 18.4583 127.147 18.8693C127.001 19.277 126.928 19.7244 126.928 20.2116C126.928 20.7022 127.001 21.1513 127.147 21.5589C127.296 21.9666 127.523 22.2931 127.828 22.5384C128.136 22.7836 128.524 22.9062 128.991 22.9062ZM135.692 19.4659V24H134.205V16.3636H135.632V17.6065H135.727C135.902 17.2022 136.177 16.8774 136.552 16.6321C136.93 16.3868 137.405 16.2642 137.979 16.2642C138.499 16.2642 138.955 16.3736 139.346 16.5923C139.737 16.8078 140.04 17.1293 140.256 17.5568C140.471 17.9844 140.579 18.513 140.579 19.1428V24H139.092V19.3217C139.092 18.7682 138.948 18.3357 138.66 18.0241C138.372 17.7093 137.976 17.5518 137.472 17.5518C137.127 17.5518 136.82 17.6264 136.552 17.7756C136.287 17.9247 136.076 18.1435 135.921 18.4318C135.768 18.7169 135.692 19.0616 135.692 19.4659Z" fill="#2C1810"/>
<path d="M49.6766 59.8421H45.1318C44.9003 59.3982 44.7748 58.8386 44.7555 58.1632C43.752 59.514 42.1599 60.1895 39.9792 60.1895C38.3389 60.1895 37.0169 59.7842 36.0134 58.9737C35.0292 58.1632 34.5371 57.0439 34.5371 55.6158C34.5371 52.8368 36.4862 51.2833 40.3845 50.9553L42.7292 50.7526C44.0222 50.6176 44.6687 50.1255 44.6687 49.2763C44.6687 48.2728 43.9064 47.771 42.3818 47.771C41.4555 47.771 40.7994 47.9158 40.4134 48.2053C40.0468 48.4755 39.8248 48.9868 39.7476 49.7395H35.2608C35.531 46.2851 37.9143 44.5579 42.4108 44.5579C46.8494 44.5579 49.0687 46.0921 49.0687 49.1605V57.0921C49.0687 58.3465 49.2713 59.2632 49.6766 59.8421ZM41.3397 57.15C42.3626 57.15 43.1731 56.8895 43.7713 56.3684C44.3695 55.8281 44.6687 55.0272 44.6687 53.9658V52.8658C44.3985 53.1553 43.8968 53.3482 43.1634 53.4447L41.3108 53.6474C39.8634 53.8018 39.1397 54.4 39.1397 55.4421C39.1397 55.9632 39.3327 56.3781 39.7187 56.6868C40.1047 56.9956 40.645 57.15 41.3397 57.15ZM70.5648 44.5579C72.2052 44.5579 73.4885 45.05 74.4148 46.0342C75.3411 46.9991 75.8043 48.3693 75.8043 50.1447V59.8421H71.2885V50.9263C71.2885 49.2474 70.5456 48.4079 69.0596 48.4079C68.2683 48.4079 67.6411 48.6781 67.178 49.2184C66.7148 49.7587 66.4833 50.55 66.4833 51.5921V59.8421H61.9675V50.9263C61.9675 49.2474 61.2245 48.4079 59.7385 48.4079C58.9473 48.4079 58.3104 48.6781 57.828 49.2184C57.3648 49.7587 57.1332 50.55 57.1332 51.5921V59.8421H52.6175V44.9053H57.0175V47.0184C58.1175 45.3781 59.5359 44.5579 61.2727 44.5579C63.5113 44.5579 65.0552 45.4553 65.9043 47.25C67.1201 45.4553 68.6736 44.5579 70.5648 44.5579ZM93.9435 59.8421H89.3987C89.1671 59.3982 89.0417 58.8386 89.0224 58.1632C88.0189 59.514 86.4268 60.1895 84.2461 60.1895C82.6057 60.1895 81.2838 59.7842 80.2803 58.9737C79.2961 58.1632 78.8039 57.0439 78.8039 55.6158C78.8039 52.8368 80.7531 51.2833 84.6513 50.9553L86.9961 50.7526C88.2891 50.6176 88.9355 50.1255 88.9355 49.2763C88.9355 48.2728 88.1733 47.771 86.6487 47.771C85.7224 47.771 85.0662 47.9158 84.6803 48.2053C84.3136 48.4755 84.0917 48.9868 84.0145 49.7395H79.5276C79.7978 46.2851 82.1812 44.5579 86.6776 44.5579C91.1162 44.5579 93.3356 46.0921 93.3356 49.1605V57.0921C93.3356 58.3465 93.5382 59.2632 93.9435 59.8421ZM85.6066 57.15C86.6294 57.15 87.4399 56.8895 88.0382 56.3684C88.6364 55.8281 88.9355 55.0272 88.9355 53.9658V52.8658C88.6654 53.1553 88.1636 53.3482 87.4303 53.4447L85.5776 53.6474C84.1303 53.8018 83.4066 54.4 83.4066 55.4421C83.4066 55.9632 83.5996 56.3781 83.9855 56.6868C84.3715 56.9956 84.9118 57.15 85.6066 57.15ZM117.141 43.1974H112.828V39.3763H117.141V43.1974ZM117.228 59.8421H112.712V44.9053H117.228V59.8421ZM133.962 58.0474C132.534 59.4755 130.633 60.1895 128.259 60.1895C125.886 60.1895 123.985 59.4755 122.557 58.0474C121.129 56.6193 120.415 54.7281 120.415 52.3737C120.415 50 121.129 48.0991 122.557 46.671C123.965 45.2623 125.867 44.5579 128.259 44.5579C130.652 44.5579 132.553 45.2623 133.962 46.671C135.371 48.0798 136.075 49.9807 136.075 52.3737C136.075 54.7474 135.371 56.6386 133.962 58.0474ZM128.259 56.571C129.302 56.571 130.102 56.214 130.662 55.5C131.222 54.786 131.502 53.7439 131.502 52.3737C131.502 51.0035 131.222 49.9614 130.662 49.2474C130.102 48.5333 129.302 48.1763 128.259 48.1763C127.198 48.1763 126.388 48.5333 125.828 49.2474C125.268 49.9614 124.988 51.0035 124.988 52.3737C124.988 53.7439 125.268 54.786 125.828 55.5C126.388 56.214 127.198 56.571 128.259 56.571ZM148.316 44.5579C149.899 44.5579 151.153 45.0403 152.079 46.0053C153.025 46.9509 153.497 48.3018 153.497 50.0579V59.8421H148.982V50.9553C148.982 49.257 148.181 48.4079 146.579 48.4079C145.769 48.4079 145.093 48.6781 144.553 49.2184C144.013 49.7587 143.742 50.521 143.742 51.5053V59.8421H139.226V44.9053H143.626V47.0184C144.784 45.3781 146.347 44.5579 148.316 44.5579Z" fill="black"/>
<path d="M108.93 44.789V46.9977L103.254 55.4366C106.251 55.2238 108.537 56.5205 108.537 56.5205C109.323 56.9074 109.249 57.5272 109.249 57.5272V59.869C109.249 60.7204 108.424 60.3332 108.424 60.3332C106.439 59.0756 103.46 59.1139 103.46 59.1139C100.445 59.1139 98.6459 60.2366 98.6459 60.2366C97.6334 60.7719 97.6716 59.8494 97.6716 59.8494V57.1589C97.664 56.7628 97.8968 56.4042 97.8968 56.4042L103.219 48.138H98.8121C98.6639 48.1379 98.5215 48.077 98.4167 47.9685C98.3113 47.8601 98.2523 47.713 98.2523 47.5596V44.789C98.2523 44.6356 98.3113 44.4884 98.4161 44.38C98.5215 44.2715 98.6639 44.2105 98.8121 44.2105H108.371C108.519 44.2106 108.661 44.2716 108.767 44.38C108.871 44.4885 108.93 44.6356 108.93 44.789Z" fill="black"/>
</svg>
