<svg width="186" height="45" viewBox="0 0 186 45" fill="none" xmlns="http://www.w3.org/2000/svg">
<path d="M55.0456 35.36C53.8456 35.36 52.8256 35.32 51.9856 35.24C51.1656 35.18 50.2056 35.05 49.1056 34.85V14.42H56.5456C57.8456 14.42 58.9756 14.63 59.9356 15.05C60.9156 15.47 61.6656 16.07 62.1856 16.85C62.7256 17.61 62.9956 18.48 62.9956 19.46C62.9956 21.14 62.3556 22.42 61.0756 23.3C60.7756 23.5 60.4756 23.66 60.1756 23.78C59.8956 23.88 59.5556 23.96 59.1556 24.02C59.5956 24.1 59.9656 24.19 60.2656 24.29C60.5856 24.37 60.9456 24.53 61.3456 24.77C62.0456 25.19 62.6156 25.8 63.0556 26.6C63.4956 27.4 63.7156 28.26 63.7156 29.18C63.7156 31.36 62.9256 32.94 61.3456 33.92C59.7856 34.88 57.6856 35.36 55.0456 35.36ZM53.5456 31.31C54.2256 31.41 54.9556 31.46 55.7356 31.46C58.2556 31.46 59.5156 30.58 59.5156 28.82C59.5156 28 59.2256 27.35 58.6456 26.87C58.0856 26.37 57.3756 26.12 56.5156 26.12H53.5456V31.31ZM56.6656 22.43C57.2456 22.43 57.7156 22.23 58.0756 21.83C58.4556 21.43 58.6456 20.92 58.6456 20.3C58.6456 19.78 58.4556 19.36 58.0756 19.04C57.7156 18.7 57.2056 18.52 56.5456 18.5H53.5456V22.43H56.6656ZM73.4338 35.66C71.8938 35.66 70.5138 35.31 69.2938 34.61C68.0938 33.91 67.1538 32.94 66.4738 31.7C65.7938 30.44 65.4538 29.03 65.4538 27.47C65.4538 25.91 65.7938 24.51 66.4738 23.27C67.1538 22.03 68.0938 21.06 69.2938 20.36C70.5138 19.64 71.8938 19.28 73.4338 19.28C74.9338 19.28 76.2838 19.64 77.4838 20.36C78.7038 21.06 79.6538 22.04 80.3338 23.3C81.0338 24.54 81.3838 25.93 81.3838 27.47C81.3838 29.03 81.0338 30.43 80.3338 31.67C79.6538 32.91 78.7038 33.89 77.4838 34.61C76.2838 35.31 74.9338 35.66 73.4338 35.66ZM73.4338 31.58C74.4338 31.58 75.2538 31.2 75.8938 30.44C76.5338 29.68 76.8538 28.69 76.8538 27.47C76.8538 26.25 76.5338 25.27 75.8938 24.53C75.2538 23.77 74.4338 23.39 73.4338 23.39C72.3938 23.39 71.5538 23.77 70.9138 24.53C70.2938 25.27 69.9838 26.25 69.9838 27.47C69.9838 28.71 70.2938 29.71 70.9138 30.47C71.5538 31.21 72.3938 31.58 73.4338 31.58ZM91.0412 35.66C89.5012 35.66 88.1212 35.31 86.9012 34.61C85.7012 33.91 84.7612 32.94 84.0812 31.7C83.4012 30.44 83.0612 29.03 83.0612 27.47C83.0612 25.91 83.4012 24.51 84.0812 23.27C84.7612 22.03 85.7012 21.06 86.9012 20.36C88.1212 19.64 89.5012 19.28 91.0412 19.28C92.5412 19.28 93.8912 19.64 95.0912 20.36C96.3112 21.06 97.2612 22.04 97.9412 23.3C98.6412 24.54 98.9912 25.93 98.9912 27.47C98.9912 29.03 98.6412 30.43 97.9412 31.67C97.2612 32.91 96.3112 33.89 95.0912 34.61C93.8912 35.31 92.5412 35.66 91.0412 35.66ZM91.0412 31.58C92.0412 31.58 92.8612 31.2 93.5012 30.44C94.1412 29.68 94.4612 28.69 94.4612 27.47C94.4612 26.25 94.1412 25.27 93.5012 24.53C92.8612 23.77 92.0412 23.39 91.0412 23.39C90.0012 23.39 89.1612 23.77 88.5212 24.53C87.9012 25.27 87.5912 26.25 87.5912 27.47C87.5912 28.71 87.9012 29.71 88.5212 30.47C89.1612 31.21 90.0012 31.58 91.0412 31.58ZM101.479 13.1H105.919V24.8H106.429C107.889 24.8 108.949 24.41 109.609 23.63C110.269 22.85 110.699 21.64 110.899 20H114.829C114.649 21.58 114.299 23.01 113.779 24.29C113.279 25.57 112.499 26.59 111.439 27.35L116.389 35.03H111.259L107.629 28.67C107.389 28.71 106.999 28.73 106.459 28.73H105.919V35H101.479V13.1ZM118.598 14.48H123.038V31.01H132.668V35H118.598V14.48ZM145.621 36.02C145.221 35.74 144.851 35.38 144.511 34.94C144.191 34.48 143.931 34.02 143.731 33.56C143.251 34.18 142.631 34.7 141.871 35.12C141.131 35.54 140.321 35.75 139.441 35.75C138.361 35.75 137.401 35.52 136.561 35.06C135.721 34.62 135.061 34.01 134.581 33.23C134.121 32.45 133.891 31.58 133.891 30.62C133.891 28.92 134.511 27.6 135.751 26.66C136.991 25.72 138.711 25.29 140.911 25.37L142.951 25.52V24.92C142.951 24.34 142.731 23.89 142.291 23.57C141.871 23.25 141.281 23.09 140.521 23.09C139.801 23.09 139.011 23.23 138.151 23.51C137.291 23.77 136.601 24.09 136.081 24.47L134.281 21.47C135.101 20.81 136.171 20.27 137.491 19.85C138.831 19.41 140.151 19.19 141.451 19.19C143.351 19.19 144.811 19.69 145.831 20.69C146.871 21.69 147.391 23.11 147.391 24.95V30.02C147.391 30.7 147.511 31.36 147.751 32C148.011 32.64 148.331 33.15 148.711 33.53L145.621 36.02ZM140.101 32C140.921 32 141.601 31.78 142.141 31.34C142.681 30.88 142.951 30.31 142.951 29.63V28.76C142.191 28.64 141.421 28.58 140.641 28.58C138.921 28.58 138.061 29.15 138.061 30.29C138.061 30.83 138.241 31.25 138.601 31.55C138.981 31.85 139.481 32 140.101 32ZM151.175 24.86C151.175 23.44 150.805 22.34 150.065 21.56L153.125 18.95C153.985 19.63 154.635 20.57 155.075 21.77C155.735 21.01 156.485 20.43 157.325 20.03C158.185 19.61 159.085 19.4 160.025 19.4C161.065 19.4 162.005 19.67 162.845 20.21C163.685 20.75 164.345 21.5 164.825 22.46C165.305 23.42 165.545 24.51 165.545 25.73V35.06H161.105V26.09C161.105 25.21 160.905 24.53 160.505 24.05C160.125 23.55 159.555 23.3 158.795 23.3C158.135 23.3 157.525 23.49 156.965 23.87C156.405 24.25 155.945 24.77 155.585 25.43V35H151.145L151.175 24.95V24.86ZM176.544 19.19C177.124 19.19 177.694 19.22 178.254 19.28V13.04L182.694 13.07V29.96V30.02C182.694 31.46 183.064 32.57 183.804 33.35L180.714 35.93C180.014 35.35 179.434 34.56 178.974 33.56C178.434 34.14 177.794 34.59 177.054 34.91C176.334 35.23 175.554 35.39 174.714 35.39C173.454 35.39 172.304 35.07 171.264 34.43C170.244 33.77 169.434 32.86 168.834 31.7C168.254 30.52 167.964 29.2 167.964 27.74C167.964 26.04 168.294 24.56 168.954 23.3C169.634 22.02 170.614 21.02 171.894 20.3C173.194 19.58 174.744 19.21 176.544 19.19ZM172.464 27.68C172.464 28.78 172.734 29.69 173.274 30.41C173.814 31.13 174.524 31.49 175.404 31.49C176.164 31.49 176.824 31.2 177.384 30.62C177.944 30.04 178.234 29.26 178.254 28.28V23.27C177.774 23.19 177.264 23.15 176.724 23.15C175.304 23.15 174.234 23.56 173.514 24.38C172.814 25.18 172.464 26.28 172.464 27.68Z" fill="#2C1810"/>
<path d="M29.2395 5H2.78472C1.24676 5 0 6.08687 0 7.42759V37.7724C0 39.1131 1.24676 40.2 2.78472 40.2H29.2395C30.7775 40.2 32.0243 39.1131 32.0243 37.7724V7.42759C32.0243 6.08687 30.7775 5 29.2395 5Z" fill="#2C1810"/>
<path d="M28.5433 7.42761H3.48085C3.09636 7.42761 2.78467 7.69933 2.78467 8.03451V32.3104C2.78467 32.6455 3.09636 32.9173 3.48085 32.9173H28.5433C28.9278 32.9173 29.2395 32.6455 29.2395 32.3104V8.03451C29.2395 7.69933 28.9278 7.42761 28.5433 7.42761Z" fill="#E6E7E8"/>
<path d="M17.4046 35.3448C17.7736 35.3457 18.1271 35.4739 18.3879 35.7014C18.6488 35.9288 18.7959 36.237 18.797 36.5586C18.7942 36.8798 18.6467 37.1871 18.3861 37.4142C18.1256 37.6413 17.773 37.77 17.4046 37.7724H14.6199C14.251 37.7714 13.8974 37.6432 13.6366 37.4158C13.3757 37.1884 13.2286 36.8802 13.2275 36.5586C13.2303 36.2374 13.3778 35.93 13.6384 35.7029C13.8989 35.4758 14.2515 35.3472 14.6199 35.3448H17.4046Z" fill="#E6E7E8"/>
<path d="M29.2395 15.3172V32.3103C29.2395 32.4713 29.1662 32.6256 29.0356 32.7394C28.905 32.8533 28.728 32.9172 28.5433 32.9172H9.05029L29.2395 15.3172Z" fill="#E0E0E2"/>
<path d="M20.1892 15.3172C19.4506 15.3172 18.7423 15.573 18.2201 16.0282C17.6978 16.4835 17.4044 17.101 17.4044 17.7448C17.4044 17.101 17.1111 16.4835 16.5888 16.0282C16.0666 15.573 15.3583 15.3172 14.6197 15.3172H9.05029V27.4551H25.7586V15.3172H20.1892Z" fill="#D8D7DA"/>
<path d="M25.7591 18.3517V27.4551H15.3164L25.7591 18.3517Z" fill="#C6C5CA"/>
<path d="M24.3664 23.8137V26.2412H16.0122C16.0118 25.9223 16.0835 25.6065 16.2233 25.3118C16.363 25.0171 16.5681 24.7493 16.8268 24.5238C17.0855 24.2983 17.3927 24.1195 17.7307 23.9976C18.0688 23.8758 18.4311 23.8133 18.7969 23.8137H24.3664Z" fill="#E8CCA2"/>
<path d="M24.3664 14.1035V23.8139H18.7969C18.4311 23.8135 18.0688 23.876 17.7307 23.9978C17.3927 24.1197 17.0855 24.2985 16.8268 24.524C16.5681 24.7495 16.363 25.0173 16.2233 25.312C16.0835 25.6067 16.0118 25.9225 16.0122 26.2414V16.5311C16.0122 15.8873 16.3056 15.2698 16.8278 14.8145C17.3501 14.3593 18.0584 14.1035 18.7969 14.1035H24.3664Z" fill="#F9FAFA"/>
<path d="M16.0114 16.5311V26.2414C16.0118 25.9225 15.9401 25.6067 15.8003 25.312C15.6606 25.0173 15.4555 24.7495 15.1968 24.524C14.9381 24.2985 14.6309 24.1197 14.2929 23.9978C13.9548 23.876 13.5925 23.8135 13.2267 23.8139H7.65723V14.1035H13.2267C13.9652 14.1035 14.6735 14.3593 15.1958 14.8145C15.718 15.2698 16.0114 15.8873 16.0114 16.5311Z" fill="#F1F2F2"/>
<path d="M15.1969 24.5237C15.7173 24.9803 16.0101 25.5975 16.0114 26.2412H7.65723V23.8137H13.2267C13.9651 23.8148 14.6731 24.07 15.1969 24.5237Z" fill="#E8CCA2"/>
<path d="M9.74658 15.9241H13.9237V17.1379H9.74658V15.9241Z" fill="#2C1810"/>
<path d="M9.74658 18.3516H13.9237V19.5654H9.74658V18.3516Z" fill="#2C1810"/>
<path d="M9.74658 20.7793H13.9237V21.9931H9.74658V20.7793Z" fill="#2C1810"/>
<path d="M18.0996 15.9241H22.2767V17.1379H18.0996V15.9241Z" fill="#2C1810"/>
<path d="M18.0996 18.3516H22.2767V19.5654H18.0996V18.3516Z" fill="#2C1810"/>
<path d="M18.0996 20.7793H22.2767V21.9931H18.0996V20.7793Z" fill="#2C1810"/>
</svg>
