<svg width="24" height="24" viewBox="0 0 24 24" fill="none" xmlns="http://www.w3.org/2000/svg">
<path d="M12 21.75C17.3848 21.75 21.75 17.3848 21.75 12C21.75 6.61522 17.3848 2.25 12 2.25C6.61522 2.25 2.25 6.61522 2.25 12C2.25 17.3848 6.61522 21.75 12 21.75Z" fill="#E9C91A"/>
<path d="M14.303 13.8546C15.3823 13.1126 15.922 12.7417 16.0202 12.2412C16.0514 12.0823 16.0514 11.9188 16.0202 11.7599C15.9221 11.2594 15.3825 10.8884 14.3032 10.1464L12.5248 8.92356C11.1616 7.98628 10.48 7.51764 9.9203 7.6707C9.74493 7.71865 9.58213 7.80429 9.44325 7.92163C9 8.29614 9 9.12329 9 10.7776L9 13.2229C9 14.8771 9 15.7041 9.44322 16.0786C9.58208 16.196 9.74487 16.2816 9.92023 16.3296C10.4799 16.4827 11.1615 16.0141 12.5246 15.0771L14.303 13.8546Z" fill="#2C1810"/>
</svg>
