<svg width="555" height="92" viewBox="0 0 555 92" fill="none" xmlns="http://www.w3.org/2000/svg">
<path d="M94.5257 34.6128C93.7567 32.2538 91.7167 30.5388 89.2587 30.1808L64.3597 26.5628L53.2337 4.0818C51.0307 -0.363203 43.7497 -0.363203 41.5467 4.0818L30.4207 26.5628L5.58068 30.1808C3.12968 30.5388 1.08968 32.2598 0.320683 34.6198C-0.448317 36.9728 0.190683 39.5608 1.96968 41.2938L19.9857 58.8538L15.7357 83.6288C15.3187 86.0728 16.3227 88.5498 18.3297 90.0098C20.3437 91.4628 23.0097 91.6528 25.1997 90.4988L47.3877 78.7988L69.6407 90.4988C70.5927 91.0008 71.6357 91.2488 72.6717 91.2488C74.0207 91.2488 75.3697 90.8248 76.5107 90.0108C78.5187 88.5438 79.5217 86.0738 79.1047 83.6298L74.8617 58.8548L92.8777 41.2948C94.6567 39.5668 95.2947 36.9728 94.5257 34.6128Z" fill="#E9C91A"/>
<path d="M209.373 34.6128C208.604 32.2538 206.564 30.5388 204.106 30.1808L179.207 26.5628L168.081 4.0818C165.878 -0.363203 158.597 -0.363203 156.394 4.0818L145.268 26.5628L120.428 30.1808C117.977 30.5388 115.937 32.2598 115.168 34.6198C114.399 36.9728 115.038 39.5608 116.817 41.2938L134.833 58.8538L130.583 83.6288C130.166 86.0728 131.17 88.5568 133.177 90.0098C135.185 91.4628 137.857 91.6528 140.047 90.4988L162.235 78.7988L184.488 90.4988C185.44 91.0008 186.483 91.2488 187.519 91.2488C188.868 91.2488 190.217 90.8248 191.358 90.0108C193.366 88.5438 194.369 86.0738 193.952 83.6298L189.709 58.8548L207.725 41.2948C209.504 39.5668 210.142 36.9728 209.373 34.6128Z" fill="#E9C91A"/>
<path d="M324.217 34.6128C323.448 32.2538 321.408 30.5388 318.95 30.1808L294.051 26.5628L282.925 4.0818C280.722 -0.363203 273.441 -0.363203 271.238 4.0818L260.112 26.5628L235.272 30.1808C232.821 30.5388 230.781 32.2598 230.012 34.6198C229.243 36.9728 229.882 39.5608 231.661 41.2938L249.677 58.8538L245.427 83.6288C245.01 86.0728 246.014 88.5498 248.021 90.0098C250.035 91.4628 252.701 91.6528 254.891 90.4988L277.078 78.7988L299.331 90.4988C300.283 91.0008 301.326 91.2488 302.362 91.2488C303.711 91.2488 305.06 90.8248 306.201 90.0108C308.209 88.5438 309.212 86.0738 308.795 83.6298L304.552 58.8548L322.568 41.2948C324.348 39.5668 324.986 36.9728 324.217 34.6128Z" fill="#E9C91A"/>
<path d="M439.065 34.6128C438.296 32.2538 436.256 30.5388 433.798 30.1808L408.899 26.5628L397.773 4.0818C395.57 -0.363203 388.289 -0.363203 386.086 4.0818L374.96 26.5628L350.12 30.1808C347.669 30.5388 345.629 32.2598 344.86 34.6198C344.091 36.9728 344.73 39.5608 346.509 41.2938L364.525 58.8538L360.275 83.6288C359.858 86.0728 360.862 88.5498 362.869 90.0098C364.883 91.4628 367.549 91.6528 369.739 90.4988L391.926 78.7988L414.179 90.4988C415.131 91.0008 416.174 91.2488 417.21 91.2488C418.559 91.2488 419.908 90.8248 421.049 90.0108C423.057 88.5438 424.06 86.0738 423.643 83.6298L419.4 58.8548L437.416 41.2948C439.195 39.5668 439.834 36.9728 439.065 34.6128Z" fill="#E9C91A"/>
<path d="M553.912 34.6108C553.136 32.2518 551.103 30.5368 548.645 30.1788L523.746 26.5608L512.62 4.07984C510.417 -0.365156 503.136 -0.365156 500.933 4.07984L489.807 26.5608L464.967 30.1788C462.516 30.5368 460.476 32.2578 459.707 34.6178C458.938 36.9708 459.577 39.5589 461.356 41.2919L479.372 58.8518L475.122 83.6269C474.705 86.0709 475.709 88.5478 477.716 90.0078C478.85 90.8288 480.193 91.2458 481.542 91.2458C482.585 91.2458 483.628 90.9978 484.592 90.4958L506.78 78.7958L529.039 90.4958C531.229 91.6628 533.888 91.4668 535.903 90.0008C537.904 88.5408 538.908 86.0708 538.491 83.6258L534.248 58.8509L552.264 41.2908C554.042 39.5648 554.675 36.9708 553.912 34.6108Z" fill="#E9C91A"/>
</svg>
